<?xml version="1.0" standalone="no"?>
<!DOCTYPE svg PUBLIC "-//W3C//DTD SVG 20010904//EN"
 "http://www.w3.org/TR/2001/REC-SVG-20010904/DTD/svg10.dtd">
<svg version="1.0" xmlns="http://www.w3.org/2000/svg"
 width="520.000000pt" height="400.000000pt" viewBox="0 0 520.000000 400.000000"
 preserveAspectRatio="xMidYMid meet">

<g transform="translate(0.000000,400.000000) scale(0.100000,-0.100000)"
fill="#000000" stroke="none">
<path d="M4130 3165 c0 -2 9 -9 19 -14 14 -8 20 -7 25 4 4 11 -2 15 -19 15
-14 0 -25 -2 -25 -5z"/>
<path d="M1835 3130 c-46 -23 -48 -24 -39 -7 4 7 3 9 -2 4 -5 -5 -9 -12 -9
-15 -1 -4 -6 -17 -13 -29 -13 -24 -38 -21 -102 12 -37 19 -103 21 -155 6 l-30
-9 27 -1 c15 -1 30 -6 34 -12 4 -7 22 -9 48 -6 40 6 116 -17 116 -34 0 -4 18
1 40 12 46 22 57 23 62 7 3 -9 15 -7 43 6 36 18 41 18 67 3 27 -15 28 -15 28
4 0 22 -48 79 -65 79 -6 0 -28 -9 -50 -20z"/>
<path d="M1333 3071 c-34 -19 -35 -38 0 -20 14 8 22 8 27 -1 5 -8 9 -7 14 5
15 39 7 43 -41 16z"/>
<path d="M4036 3081 c-4 -7 -5 -15 -2 -18 9 -9 19 4 14 18 -4 11 -6 11 -12 0z"/>
<path d="M2195 3061 c-35 -15 -79 -81 -53 -81 6 0 17 8 24 18 12 15 13 13 4
-12 -6 -16 -9 -31 -6 -33 2 -3 7 5 11 17 17 54 45 -19 30 -79 l-7 -26 -24 29
-25 28 7 -78 c6 -68 11 -83 36 -107 30 -30 34 -47 18 -63 -8 -8 -6 -15 5 -24
14 -12 16 -12 15 1 -10 64 16 93 38 44 17 -37 15 -65 -5 -72 -26 -10 -45 -31
-38 -43 9 -14 -13 -50 -31 -50 -8 0 -20 11 -26 25 -8 18 -17 24 -29 20 -11 -4
-19 0 -23 12 -4 15 -5 15 -4 -2 1 -45 -2 -54 -17 -49 -12 5 -15 28 -15 121 0
75 -4 112 -10 108 -6 -4 -8 -11 -5 -16 4 -5 0 -9 -7 -9 -7 0 -26 -10 -41 -23
-32 -25 -29 -58 4 -50 15 4 19 0 19 -21 0 -27 -30 -50 -38 -28 -2 7 -12 12
-23 12 -17 0 -19 -8 -21 -62 -2 -91 1 -106 28 -159 24 -49 32 -85 15 -74 -8 4
-9 -78 -1 -95 1 -3 1 -20 0 -37 -2 -34 8 -41 28 -21 9 9 12 7 12 -9 0 -26 -55
-81 -88 -90 -17 -4 -22 -11 -19 -24 3 -11 1 -19 -4 -19 -5 0 -9 -6 -9 -14 0
-24 -26 -39 -49 -26 -12 6 -21 16 -21 23 0 7 -16 12 -42 13 -24 0 -60 2 -81 4
-22 2 -42 -1 -45 -7 -4 -6 -18 -13 -31 -14 -14 -2 -26 -10 -29 -18 -3 -9 0
-11 8 -6 9 5 11 4 6 -4 -4 -6 -12 -9 -17 -6 -5 4 -12 -1 -15 -9 -4 -10 -18
-16 -38 -15 l-31 0 23 16 c24 17 29 29 10 30 -7 0 -22 4 -32 9 -15 6 -18 4
-13 -8 3 -10 -1 -19 -11 -24 -16 -6 -36 -8 -182 -18 -95 -5 -180 -18 -186 -27
-3 -5 -18 -9 -34 -9 -16 0 -32 -5 -35 -10 -6 -10 -2 -11 140 -15 107 -3 116
-5 110 -16 -4 -5 -1 -9 4 -9 6 0 11 6 11 14 0 23 35 28 75 12 19 -9 33 -11 30
-6 -3 6 1 10 10 10 9 0 13 -5 9 -11 -4 -7 4 -10 25 -7 20 2 36 -3 42 -12 9
-13 10 -12 5 3 -3 11 0 17 10 17 11 0 14 -6 10 -16 -3 -9 -6 -22 -6 -30 0 -10
-6 -14 -17 -10 -10 2 -34 7 -53 11 l-35 6 22 -19 c12 -11 19 -23 15 -27 -4 -4
0 -5 8 -3 8 3 14 10 13 16 -2 8 8 9 27 6 27 -6 89 5 135 23 14 5 17 3 13 -9
-11 -27 11 -37 46 -23 40 16 92 3 101 -26 5 -13 12 -18 24 -14 21 6 38 -10 43
-45 l4 -25 13 27 c11 21 11 36 2 72 -12 48 -4 85 25 117 13 15 22 15 77 4 76
-16 144 -22 153 -12 4 3 14 2 23 -2 9 -5 35 -9 58 -9 24 -1 49 -4 55 -9 7 -4
18 -8 23 -10 6 -1 21 -4 34 -7 14 -3 27 -9 30 -14 10 -14 40 -22 46 -12 10 15
23 12 44 -12 16 -16 19 -31 16 -65 -2 -25 -1 -53 4 -64 4 -11 4 -50 0 -87 -4
-42 -3 -72 3 -80 18 -22 2 -24 -23 -3 -13 11 -19 20 -12 21 7 0 2 18 -14 45
-29 53 -39 59 -19 11 8 -19 17 -61 21 -93 5 -55 5 -56 -8 -28 -19 42 -44 62
-59 47 -9 -9 -9 -15 0 -24 7 -7 12 -19 12 -28 0 -8 -12 4 -26 28 l-26 43 -20
-26 c-13 -17 -27 -25 -39 -22 -11 3 -22 1 -25 -4 -9 -15 -32 -10 -54 13 -36
39 -19 51 33 24 22 -12 27 -12 27 -2 0 8 18 30 41 49 35 31 40 40 34 65 -3 18
-16 34 -31 41 -31 14 -165 13 -140 -1 9 -5 14 -13 11 -19 -4 -5 2 -9 12 -9 11
0 28 -6 38 -14 18 -13 18 -14 -4 -25 -12 -7 -32 -11 -44 -9 -12 2 -27 -4 -34
-12 -10 -12 -15 -13 -32 -2 -27 16 -31 15 -31 -3 0 -10 14 -17 40 -21 45 -7
50 -16 18 -32 -13 -6 -18 -11 -11 -11 6 -1 24 -6 40 -12 38 -14 14 -29 -49
-29 -49 0 -57 7 -36 28 9 9 7 12 -10 12 -15 0 -22 6 -22 19 0 25 -17 36 -34
22 -7 -6 -20 -9 -29 -5 -22 8 -25 -24 -11 -126 7 -56 20 -103 38 -135 14 -28
26 -56 26 -62 0 -7 4 -13 9 -13 11 0 28 -43 36 -94 5 -29 9 -36 18 -27 6 6 20
11 30 11 16 0 18 -6 15 -29 -5 -35 6 -31 27 10 10 19 14 41 9 63 -8 48 -11
206 -3 206 4 0 12 -7 19 -15 15 -19 50 -20 50 -2 0 14 40 37 65 37 8 0 14 5
13 11 -2 6 3 14 10 16 12 5 15 -9 13 -62 -1 -18 8 -43 24 -64 14 -19 25 -42
25 -50 0 -14 1 -14 10 -1 7 10 10 -12 10 -72 0 -48 5 -90 10 -93 6 -3 10 3 10
13 0 11 7 25 15 32 31 26 5 140 -33 140 -22 0 -39 63 -41 148 -1 66 16 68 25
2 7 -51 22 -66 31 -30 9 34 23 22 23 -18 0 -42 22 -198 40 -277 6 -27 11 -64
10 -82 0 -27 2 -31 21 -26 11 3 25 15 29 27 7 16 9 17 9 4 1 -9 -3 -19 -9 -23
-11 -7 -7 -105 5 -125 18 -29 34 -122 25 -145 -10 -27 11 -79 36 -89 17 -7 37
34 23 48 -12 13 -11 53 1 61 7 4 6 13 -1 26 -6 11 8 2 30 -20 22 -22 55 -44
73 -50 30 -8 31 -9 8 -11 -22 -2 -21 -3 10 -12 34 -9 34 -10 15 -25 -19 -15
-19 -15 5 -9 14 3 40 6 58 6 26 0 35 5 39 21 4 16 11 19 27 14 11 -3 36 -10
54 -15 55 -14 107 8 99 42 -3 12 5 25 23 38 16 11 27 28 26 38 -4 22 15 66 23
54 3 -5 16 -12 29 -16 17 -6 22 -3 23 11 0 10 1 43 2 73 2 42 6 57 20 62 9 4
17 15 17 25 0 13 -3 14 -12 5 -7 -7 -25 -12 -41 -12 -28 0 -29 2 -23 33 4 17
10 50 13 72 l5 40 -25 -24 c-14 -13 -33 -44 -41 -69 -22 -63 -42 -82 -86 -82
-54 0 -100 -11 -100 -24 0 -6 -7 -19 -14 -29 -12 -15 -15 -16 -26 -2 -11 13
-10 14 6 9 10 -4 16 -4 12 1 -4 4 -3 14 4 22 6 7 8 16 4 20 -3 3 -6 0 -6 -7 0
-9 -5 -7 -14 6 -14 18 -14 18 -13 0 1 -10 -4 -21 -10 -23 -9 -3 -13 7 -14 29
0 31 -1 31 -10 10 -5 -13 -7 -28 -3 -33 3 -5 -1 -9 -9 -9 -16 0 -30 -27 -21
-41 3 -5 16 -7 30 -5 13 3 30 -2 39 -10 8 -9 15 -12 15 -8 0 5 5 3 12 -4 18
-18 20 -52 3 -58 -12 -5 -12 -10 -4 -27 9 -16 8 -23 -3 -31 -8 -6 -17 -18 -20
-27 -7 -17 -65 -31 -74 -18 -2 4 10 10 27 14 39 9 45 26 22 61 -17 27 -17 28
0 21 14 -5 18 -3 15 11 -2 9 -10 16 -16 14 -7 -1 -16 6 -19 15 -4 10 -19 30
-35 45 -32 31 -34 45 -13 94 13 32 13 37 -10 81 -14 25 -25 57 -25 70 0 13
-13 47 -29 76 -17 30 -31 75 -35 106 -3 30 -12 61 -21 71 -17 18 -21 45 -5 35
6 -3 10 4 10 15 0 13 -8 24 -20 27 -11 3 -20 10 -21 17 0 6 -2 19 -4 30 -3 16
0 15 21 -5 21 -20 26 -21 34 -9 8 12 10 11 10 -6 0 -12 6 -27 14 -33 11 -9 15
0 21 54 8 75 21 126 34 134 4 3 12 21 16 40 7 33 6 34 -19 29 -22 -4 -26 -2
-21 11 4 9 8 22 9 29 1 7 15 21 30 31 27 18 28 19 8 37 -21 21 -38 59 -22 49
6 -3 10 1 10 9 0 24 116 20 141 -5 19 -19 20 -19 46 -2 33 22 183 32 251 18
19 -4 32 -3 32 2 0 6 11 9 25 8 15 -2 29 3 35 13 18 32 31 -8 24 -75 -7 -67 3
-80 29 -40 9 14 25 23 38 23 18 -1 23 4 24 24 0 27 -11 26 150 20 120 -4 581
2 645 9 63 7 43 8 -120 11 -107 1 -238 3 -292 2 -83 0 -97 3 -101 18 -3 10
-17 19 -36 22 -25 4 -31 1 -31 -13 0 -20 -24 -30 -55 -24 -11 2 -38 4 -60 4
-26 1 -35 4 -26 10 21 14 3 50 -34 68 -45 22 -63 74 -45 137 10 37 10 52 0 76
-9 21 -11 54 -6 103 5 58 3 80 -10 106 -14 28 -15 40 -5 66 14 40 14 62 -1 67
-7 3 -11 25 -10 59 4 159 1 242 -8 282 -7 34 -6 56 5 94 8 26 15 59 15 73 l-1
25 -18 -22 c-10 -12 -21 -19 -25 -16 -3 4 -6 -22 -6 -56 0 -34 -5 -71 -10 -82
-8 -15 -7 -23 5 -35 8 -9 12 -21 8 -27 -4 -7 -9 -88 -9 -182 -2 -219 -8 -337
-17 -352 -4 -6 -3 -14 2 -17 14 -9 22 -85 11 -106 -8 -14 -7 -26 0 -41 14 -24
21 -137 10 -144 -13 -8 -80 25 -80 39 0 12 -7 12 -41 -2 -34 -13 -42 -13 -49
-2 -5 8 -6 18 -4 22 3 4 -1 5 -9 2 -11 -4 -13 3 -10 30 3 30 0 36 -15 36 -25
0 -42 19 -42 47 0 23 3 30 34 90 15 29 15 36 2 60 -8 15 -31 46 -51 68 l-36
40 6 -155 c4 -85 11 -171 16 -190 15 -57 12 -80 -11 -80 -22 0 -50 40 -28 41
7 0 4 5 -8 10 -11 6 -31 31 -45 57 -13 26 -30 53 -37 60 -6 8 -17 22 -22 33
-6 10 -16 19 -23 19 -18 0 -44 -34 -39 -50 3 -7 -3 -19 -14 -27 -20 -15 -29
-49 -14 -58 6 -3 10 -15 10 -26 0 -10 6 -19 14 -19 7 0 20 -8 27 -17 12 -15
12 -16 -6 -9 -11 4 -33 10 -50 13 -69 13 -104 84 -107 223 -1 48 -7 93 -14
104 -9 14 -11 49 -7 127 4 76 2 109 -5 109 -10 0 -11 13 -2 100 1 19 6 12 18
-28 10 -30 22 -54 27 -55 6 -1 15 18 21 43 12 52 26 55 35 8 4 -18 7 -26 8
-17 2 24 38 52 57 45 22 -9 12 -75 -15 -97 -17 -14 -18 -20 -8 -57 8 -29 17
-42 34 -47 26 -6 58 -49 48 -65 -3 -5 -15 -10 -27 -10 -17 0 -18 -2 -8 -15 8
-9 26 -15 46 -13 31 2 32 3 17 20 -15 16 -14 21 12 58 27 39 28 41 9 55 -10 8
-22 15 -26 15 -5 0 -28 54 -28 66 0 2 9 4 21 4 11 0 18 4 15 8 -3 4 -1 26 4
48 7 30 6 41 -5 50 -23 17 -18 38 16 63 36 27 45 20 55 -41 8 -48 24 -50 24
-4 0 42 10 49 46 36 31 -12 51 5 32 27 -8 11 -7 12 8 6 10 -3 23 -12 27 -20
12 -19 24 -16 30 8 7 27 -36 114 -63 129 -11 6 -45 15 -76 21 -48 9 -59 8 -75
-7 -14 -13 -16 -20 -8 -30 9 -11 6 -16 -12 -22 -31 -12 -61 -3 -66 18 -4 17
-7 17 -43 1 -23 -9 -40 -24 -42 -35 -2 -11 -9 -21 -17 -24 -9 -3 -11 0 -6 8 5
9 4 11 -3 6 -6 -4 -25 0 -42 9 -35 18 -42 55 -10 55 11 0 20 4 20 9 0 6 -12 9
-26 8 -24 -2 -27 3 -43 66 -19 75 -36 101 -47 73 -4 -11 -2 -21 6 -26 19 -11
-2 -66 -24 -62 -9 2 -16 -2 -16 -7 0 -6 -7 -8 -15 -5 -12 5 -12 0 -4 -28 6
-18 12 -122 14 -231 2 -129 7 -203 14 -210 13 -13 15 -57 2 -57 -5 0 -11 -19
-13 -42 -5 -49 -29 -140 -39 -148 -4 -3 -10 -21 -14 -40 l-7 -35 18 25 c31 43
44 54 44 37 0 -8 7 -18 16 -21 8 -3 13 -10 9 -15 -3 -5 -1 -13 5 -16 8 -5 7
-11 -1 -21 -9 -11 -8 -15 5 -20 18 -7 23 -74 6 -74 -5 0 -10 6 -10 13 0 8 -2
9 -8 1 -16 -26 -142 -45 -142 -23 0 8 -11 9 -32 5 -24 -4 -29 -3 -18 4 12 8
10 10 -11 10 -16 0 -36 11 -52 30 -27 30 -47 39 -47 20 0 -5 -4 -10 -10 -10
-5 0 -9 27 -7 64 2 63 1 64 -23 63 -21 -2 -25 3 -28 28 -3 38 19 81 40 77 17
-3 33 32 42 90 5 38 -7 60 -18 33 -8 -22 -36 -18 -36 4 0 39 31 167 50 207 11
22 20 52 20 65 0 14 3 29 7 33 4 3 8 39 9 79 2 96 2 95 20 69 17 -24 34 -21
34 7 0 26 -80 107 -124 125 -42 18 -61 19 -91 7z m462 -243 c-3 -8 -6 -5 -6 6
-1 11 2 17 5 13 3 -3 4 -12 1 -19z m-411 -1 c1 -1 4 -11 6 -22 2 -16 -3 -21
-28 -23 -35 -3 -58 17 -48 43 5 13 14 15 37 11 17 -3 32 -7 33 -9z m495 2 c11
-5 16 -15 13 -21 -4 -7 -3 -8 5 -4 6 4 8 12 5 18 -5 7 -1 7 12 0 14 -8 21 -6
32 6 12 15 13 11 8 -25 -5 -37 -4 -43 12 -43 27 0 33 -9 19 -31 -13 -20 -42
-25 -52 -9 -4 6 -11 8 -16 5 -5 -4 -9 1 -9 9 0 17 -33 16 -67 -2 -20 -11 -23
-10 -29 15 -5 17 -3 28 5 31 8 3 9 8 1 17 -27 32 18 58 61 34z m172 -279 c3
-12 0 -20 -8 -20 -8 0 -11 8 -8 20 3 11 7 20 8 20 1 0 5 -9 8 -20z m-819 -97
c3 -21 6 -54 7 -73 1 -24 3 -28 6 -12 2 12 9 22 14 22 5 0 9 8 9 18 0 27 29
62 51 62 28 0 24 -34 -6 -58 -15 -12 -21 -23 -15 -27 16 -10 12 -33 -11 -56
-16 -16 -19 -27 -13 -52 4 -18 8 -39 10 -47 8 -58 23 -113 33 -123 14 -14 14
-37 0 -37 -15 0 -84 72 -86 90 -4 34 -21 87 -36 117 -10 18 -17 44 -17 58 0
34 32 155 41 155 3 0 9 -17 13 -37z m126 -223 c16 -29 -6 -96 -25 -80 -20 17
-29 68 -15 85 17 20 27 19 40 -5z m-203 -132 c-3 -8 -6 -5 -6 6 -1 11 2 17 5
13 3 -3 4 -12 1 -19z m73 12 c0 -5 -5 -10 -11 -10 -5 0 -7 5 -4 10 3 6 8 10
11 10 2 0 4 -4 4 -10z m220 -14 c0 -3 -4 -8 -10 -11 -5 -3 -10 -1 -10 4 0 6 5
11 10 11 6 0 10 -2 10 -4z m15 -67 c0 -8 4 -17 8 -20 7 -5 -55 -5 -73 0 -3 1
6 11 19 22 26 21 46 21 46 -2z m250 -59 c4 -6 -8 -10 -29 -10 -20 0 -36 5 -36
10 0 6 13 10 29 10 17 0 33 -4 36 -10z m-875 -53 c12 3 20 0 20 -6 0 -7 4 -10
9 -7 5 3 11 -1 15 -9 6 -17 -19 -21 -29 -5 -3 6 -17 10 -30 10 -26 0 -42 16
-23 23 7 2 14 1 16 -3 2 -5 12 -6 22 -3z m170 -39 c0 -14 -19 1 -31 25 -12 22
-12 22 10 3 11 -11 21 -23 21 -28z m880 6 c0 -8 -4 -12 -10 -9 -5 3 -10 10
-10 16 0 5 5 9 10 9 6 0 10 -7 10 -16z m-62 -120 c-1 -9 -8 -19 -14 -21 -15
-5 -25 45 -10 50 16 6 28 -8 24 -29z m-333 -251 c-4 -16 -8 -34 -8 -40 0 -7
-3 -11 -5 -8 -3 3 -11 0 -18 -6 -19 -15 -44 -4 -44 20 0 21 44 61 67 61 12 0
13 -7 8 -27z m145 -4 c0 -6 -4 -7 -10 -4 -5 3 -10 11 -10 16 0 6 5 7 10 4 6
-3 10 -11 10 -16z m-301 -8 c36 -23 -38 -82 -82 -65 -29 11 -17 35 28 58 35
18 36 18 54 7z m-34 -99 c-3 -3 -11 0 -18 7 -9 10 -8 11 6 5 10 -3 15 -9 12
-12z m399 -128 c7 -19 -1 -54 -14 -54 -10 0 -22 48 -15 60 9 15 22 12 29 -6z
m126 -94 c0 -11 -2 -20 -4 -20 -2 0 -6 9 -9 20 -3 11 -1 20 4 20 5 0 9 -9 9
-20z m-10 -115 c0 -5 -5 -3 -10 5 -5 8 -10 20 -10 25 0 6 5 3 10 -5 5 -8 10
-19 10 -25z m114 -21 c3 -8 2 -12 -4 -9 -6 3 -10 10 -10 16 0 14 7 11 14 -7z
m396 -184 c0 -5 -2 -10 -4 -10 -3 0 -8 5 -11 10 -3 6 -1 10 4 10 6 0 11 -4 11
-10z"/>
<path d="M3915 2934 c-27 -7 -62 -13 -77 -14 -15 0 -29 -4 -32 -9 -3 -4 -37
-19 -76 -31 -69 -22 -85 -40 -61 -66 5 -5 12 -20 14 -34 3 -14 5 -3 4 25 l-2
50 48 12 c27 6 54 16 61 22 7 6 44 15 83 21 38 5 77 12 86 15 8 4 18 2 22 -4
3 -6 15 -11 26 -11 26 0 24 -18 -3 -23 -20 -5 -20 -5 2 -4 28 2 60 -20 60 -41
0 -8 6 -12 15 -8 10 3 15 -1 16 -12 0 -10 3 -12 6 -5 3 9 10 10 21 4 20 -11
22 -11 62 -11 32 0 33 -2 46 -85 14 -90 14 -93 -17 -85 -15 5 -29 6 -32 4 -2
-3 -18 -6 -35 -9 -43 -5 -52 -12 -52 -41 0 -20 4 -24 19 -19 21 6 34 -15 25
-42 -5 -17 -5 -17 6 0 6 9 16 17 23 17 8 0 7 -3 -2 -9 -11 -7 -10 -11 6 -20
11 -5 23 -7 27 -3 4 3 4 -2 0 -13 -7 -18 -6 -18 9 -6 15 12 17 11 17 -11 0
-14 9 -37 20 -51 11 -14 20 -33 21 -44 0 -13 2 -14 6 -3 2 8 9 25 16 38 8 17
8 31 -1 56 -14 39 -16 105 -2 140 6 16 6 27 0 31 -12 7 -12 101 -1 130 9 23
-8 72 -29 81 -8 4 -44 8 -80 9 -59 1 -114 19 -210 70 -3 1 -27 -3 -55 -11z"/>
<path d="M1209 2883 c-12 -27 -22 -51 -21 -54 1 -4 -6 -6 -16 -5 -12 1 -17 -7
-17 -24 0 -14 -6 -35 -13 -47 -8 -14 -9 -24 -2 -28 5 -3 10 -21 10 -39 0 -40
-23 -100 -34 -89 -4 5 -5 -4 -1 -20 6 -24 4 -28 -24 -38 -29 -10 -31 -14 -31
-62 0 -36 -8 -65 -24 -94 -23 -41 -24 -42 -5 -48 10 -4 19 -10 19 -14 0 -9 45
-30 134 -62 33 -12 71 -35 86 -50 l26 -29 39 27 c40 27 74 31 190 22 32 -3 95
20 95 35 0 4 -8 5 -17 1 -10 -4 -34 -11 -53 -16 -44 -10 -54 5 -56 86 -1 43
-6 60 -15 60 -8 0 -13 -8 -11 -19 2 -12 -1 -16 -10 -10 -8 4 -7 0 3 -12 21
-25 30 -52 20 -58 -9 -6 -41 30 -34 38 4 3 2 6 -4 6 -11 0 -24 45 -25 86 0 24
-31 46 -52 38 -12 -5 -13 -11 -4 -30 6 -13 15 -24 20 -24 4 0 8 -24 8 -54 0
-45 -4 -58 -22 -70 -20 -15 -24 -14 -45 6 -13 12 -23 27 -23 34 0 6 -6 17 -14
24 -8 6 -16 21 -18 33 -2 17 -10 22 -32 22 -16 0 -31 6 -33 13 -3 6 0 12 7 12
6 0 8 5 5 10 -4 6 -11 8 -16 5 -5 -4 -9 -1 -9 6 0 7 -7 4 -15 -7 -8 -10 -15
-14 -15 -8 0 6 7 17 15 24 16 13 28 7 68 -32 23 -23 34 -23 42 2 4 12 15 20
28 20 24 1 73 37 63 47 -3 3 -17 1 -30 -6 -13 -8 -29 -10 -35 -7 -15 10 -14
39 2 55 19 19 -18 41 -73 41 -35 0 -48 5 -59 21 -8 13 -9 24 -3 28 5 3 8 15 6
26 -2 11 5 29 15 40 21 23 33 75 18 75 -6 0 -2 6 9 14 15 12 17 17 7 27 -19
19 -16 28 10 39 17 7 18 9 5 9 -20 1 -23 23 -8 52 7 12 7 19 1 19 -6 0 -20
-21 -32 -47z m-32 -95 c-3 -8 -6 -5 -6 6 -1 11 2 17 5 13 3 -3 4 -12 1 -19z
m27 -43 c-4 -8 -11 -15 -16 -15 -6 0 -5 6 2 15 7 8 14 15 16 15 2 0 1 -7 -2
-15z m41 -215 c0 -16 -1 -30 -1 -30 -1 0 -20 8 -43 18 -40 18 -40 19 -19 30
43 21 63 15 63 -18z m-120 -10 c3 -5 1 -10 -4 -10 -6 0 -11 5 -11 10 0 6 2 10
4 10 3 0 8 -4 11 -10z m21 -67 c-10 -10 -19 5 -10 18 6 11 8 11 12 0 2 -7 1
-15 -2 -18z m55 -87 c41 -19 84 -46 97 -61 22 -26 23 -28 6 -46 -21 -23 -44
-25 -44 -4 0 9 -12 18 -30 22 -16 3 -30 9 -30 14 0 5 -9 9 -21 9 -24 0 -79 57
-79 82 0 25 17 23 101 -16z"/>
<path d="M2778 2875 c2 -14 6 -25 8 -25 2 0 4 11 4 25 0 14 -4 25 -9 25 -4 0
-6 -11 -3 -25z"/>
<path d="M1300 2860 c-27 -4 -31 -7 -17 -13 27 -11 110 -8 127 4 11 8 7 9 -18
4 -18 -4 -38 -3 -45 2 -7 5 -28 6 -47 3z"/>
<path d="M1646 2861 c-3 -5 9 -9 28 -9 47 0 56 -8 56 -45 0 -22 3 -28 9 -18 5
7 14 10 20 7 6 -4 16 -4 22 -1 19 12 -63 74 -98 75 -17 0 -34 -4 -37 -9z"/>
<path d="M2417 2761 c-29 -66 -43 -147 -30 -181 8 -23 8 -39 -4 -72 -9 -26
-14 -82 -15 -148 0 -143 0 -140 17 -134 9 4 19 -3 26 -20 12 -26 29 -35 29
-15 0 21 -22 50 -44 59 -22 8 -22 11 -14 67 5 32 10 66 11 75 1 9 5 14 10 11
5 -3 7 -22 5 -43 -2 -21 0 -36 4 -34 5 3 8 -4 8 -15 0 -26 17 -28 23 -3 8 28
36 155 39 177 2 11 10 20 18 21 43 3 43 3 38 57 -5 55 -58 190 -87 220 -16 17
-18 15 -34 -22z"/>
<path d="M4499 2683 c-2 -95 1 -126 12 -137 5 -6 9 32 9 97 0 65 -4 107 -10
107 -6 0 -10 -30 -11 -67z"/>
<path d="M1696 2723 c-3 -10 -2 -52 2 -94 4 -42 4 -91 -1 -108 -4 -19 -3 -47
3 -69 5 -20 10 -60 10 -88 0 -29 6 -58 15 -70 23 -30 19 -33 -42 -29 -50 4
-52 3 -16 -3 23 -5 47 -13 55 -20 18 -15 40 19 44 69 3 34 2 37 -18 31 -20 -5
-21 -3 -15 40 5 36 3 47 -8 52 -16 6 -22 96 -7 96 5 0 6 21 2 47 -9 60 -5 71
26 65 16 -3 24 0 24 10 0 10 -8 13 -29 10 -33 -5 -43 16 -29 56 4 12 4 22 -2
22 -5 0 -11 -8 -14 -17z"/>
<path d="M3686 2700 c6 -31 30 -80 40 -80 3 0 -6 25 -35 90 -10 23 -10 22 -5
-10z"/>
<path d="M2331 2674 c0 -11 3 -14 6 -6 3 7 2 16 -1 19 -3 4 -6 -2 -5 -13z"/>
<path d="M4005 2679 c-7 -11 37 -19 53 -10 11 6 6 10 -17 13 -18 3 -34 1 -36
-3z"/>
<path d="M3721 2524 c-7 -17 -17 -24 -26 -20 -17 6 -21 -9 -5 -19 6 -3 10 -16
10 -28 1 -12 9 2 20 32 21 57 22 79 1 35z"/>
<path d="M870 2403 c0 -37 3 -44 12 -35 7 7 20 12 30 12 22 0 22 3 0 37 -28
44 -42 40 -42 -14z"/>
<path d="M3693 2365 c0 -22 2 -30 4 -17 2 12 2 30 0 40 -3 9 -5 -1 -4 -23z"/>
<path d="M2981 2371 c-8 -6 -9 -11 -3 -15 6 -3 14 -1 17 5 9 14 2 20 -14 10z"/>
<path d="M4263 2287 c3 -19 -3 -35 -20 -53 -13 -14 -21 -30 -18 -35 9 -14 25
-11 25 6 0 8 4 15 9 15 15 0 23 58 11 77 -10 16 -11 14 -7 -10z"/>
<path d="M3628 2279 c-22 -12 -23 -38 -2 -46 17 -6 67 35 58 48 -7 12 -35 11
-56 -2z"/>
<path d="M3747 2202 c8 -31 73 -78 73 -52 0 5 -10 10 -22 12 -12 2 -28 13 -34
26 -15 31 -24 38 -17 14z"/>
<path d="M4008 2203 c6 -2 18 -2 25 0 6 3 1 5 -13 5 -14 0 -19 -2 -12 -5z"/>
<path d="M3950 2190 l-25 -8 27 -1 c15 -1 30 4 33 9 7 11 0 11 -35 0z"/>
<path d="M1842 2110 c-14 -23 -8 -40 14 -40 15 0 17 14 6 42 -7 17 -8 16 -20
-2z"/>
<path d="M2535 2083 c11 -3 23 -10 26 -15 8 -12 29 -2 29 13 0 5 -17 8 -37 8
-22 -1 -30 -3 -18 -6z"/>
<path d="M4230 2070 c0 -5 5 -10 10 -10 6 0 10 5 10 10 0 6 -4 10 -10 10 -5 0
-10 -4 -10 -10z"/>
<path d="M3990 2050 c0 -5 5 -10 10 -10 6 0 10 5 10 10 0 6 -4 10 -10 10 -5 0
-10 -4 -10 -10z"/>
<path d="M3920 1996 c0 -8 -16 -21 -36 -28 l-36 -13 33 -7 c19 -3 47 -4 62 -1
26 5 27 7 11 24 -9 10 -13 23 -9 28 3 6 -1 11 -9 11 -9 0 -16 -6 -16 -14z"/>
<path d="M4064 1955 c-17 -12 -7 -13 72 -12 107 2 119 21 15 24 -45 1 -75 -3
-87 -12z"/>
<path d="M1048 1933 c7 -3 16 -2 19 1 4 3 -2 6 -13 5 -11 0 -14 -3 -6 -6z"/>
<path d="M1350 1882 l-30 -28 50 1 c27 1 52 3 55 6 3 3 -6 15 -20 27 l-24 21
-31 -27z"/>
<path d="M4435 1860 c-3 -5 0 -10 8 -10 8 0 20 -7 27 -15 7 -9 15 -13 18 -10
6 6 -28 45 -39 45 -4 0 -11 -4 -14 -10z"/>
<path d="M3743 1833 c9 -2 23 -2 30 0 6 3 -1 5 -18 5 -16 0 -22 -2 -12 -5z"/>
<path d="M4333 1833 c9 -2 25 -2 35 0 9 3 1 5 -18 5 -19 0 -27 -2 -17 -5z"/>
<path d="M3623 1823 c9 -2 23 -2 30 0 6 3 -1 5 -18 5 -16 0 -22 -2 -12 -5z"/>
<path d="M2885 1780 l-50 -5 3 -36 c2 -30 -2 -37 -25 -48 -15 -7 -23 -15 -17
-19 5 -4 10 -18 11 -32 0 -14 3 -32 6 -40 2 -8 8 -29 12 -47 4 -19 15 -33 27
-36 32 -9 10 -27 -27 -22 -23 3 -35 -1 -39 -11 -3 -8 -11 -14 -19 -14 -17 0
-11 -121 7 -132 8 -6 7 -11 -4 -17 -18 -12 -33 -3 -26 15 3 8 1 14 -4 14 -6 0
-10 11 -10 25 0 32 -18 32 -26 0 -4 -15 0 -34 9 -48 8 -13 17 -32 20 -42 4
-19 5 -19 6 1 0 11 8 21 16 21 12 0 13 -11 9 -56 l-6 -56 56 -55 c74 -71 79
-74 110 -49 21 16 26 29 26 64 0 24 -4 47 -10 50 -14 9 -13 68 2 83 9 9 4 13
-20 18 -18 4 -32 12 -32 18 0 18 22 36 43 36 11 0 15 4 11 11 -3 6 -1 15 6 19
10 6 9 13 -4 31 -9 13 -16 31 -16 41 0 10 -4 18 -10 18 -16 0 -12 63 6 99 14
29 41 35 31 7 -3 -7 -1 -19 4 -27 6 -10 9 -6 9 16 0 23 3 27 10 15 5 -8 10
-27 10 -41 0 -14 6 -33 13 -43 12 -16 15 -15 59 9 29 16 49 22 53 15 3 -5 11
-10 18 -10 8 0 8 3 -1 12 -7 7 -12 20 -12 30 0 10 -20 39 -45 64 -36 35 -52
45 -73 42 -20 -2 -26 1 -23 12 2 8 4 22 6 30 1 8 7 15 14 15 12 0 31 23 31 38
0 4 -5 7 -11 7 -5 0 -8 -4 -4 -9 3 -5 1 -12 -5 -16 -5 -3 -10 1 -10 9 0 9 -4
16 -10 16 -17 0 -24 2 -40 9 -8 4 -37 4 -65 1z m67 -114 c17 -12 17 -14 0 -29
-9 -8 -26 -17 -37 -19 -26 -4 -33 31 -9 49 22 16 24 16 46 -1z m-59 -445 c11
-11 -22 -51 -42 -51 -18 0 -51 29 -51 45 0 32 62 37 93 6z"/>
<path d="M1380 1756 c0 -2 7 -7 16 -10 8 -3 12 -2 9 4 -6 10 -25 14 -25 6z"/>
<path d="M1948 1737 c-36 -21 -48 -41 -48 -84 0 -15 5 -21 14 -17 8 3 13 11
10 18 -7 17 13 66 26 66 21 0 22 -31 4 -90 -16 -54 -19 -58 -34 -45 -18 16
-30 11 -30 -12 0 -10 9 -13 30 -9 17 2 30 0 30 -5 0 -5 4 -9 9 -9 5 0 12 20
15 44 8 48 27 64 51 40 8 -9 15 -11 15 -6 0 5 11 14 25 20 14 6 25 20 25 30 0
10 6 24 13 31 10 11 0 12 -53 8 l-65 -5 40 19 c27 12 33 19 20 19 -11 0 -29 2
-40 4 -11 3 -37 -5 -57 -17z"/>
<path d="M4184 1735 c-10 -8 -14 -15 -9 -16 6 0 22 -3 38 -5 22 -4 27 -1 27
16 0 24 -27 27 -56 5z"/>
<path d="M2400 1691 c0 -6 4 -12 8 -15 5 -3 9 1 9 9 0 8 -4 15 -9 15 -4 0 -8
-4 -8 -9z"/>
<path d="M1762 1628 c-6 -6 -35 -13 -64 -14 -78 -5 -82 -6 -98 -19 -41 -34
-110 -24 -110 16 0 21 -1 21 -19 5 -17 -16 -69 -18 -106 -5 -5 2 -25 -11 -43
-28 l-34 -31 66 16 c55 13 74 14 111 4 78 -21 171 -12 222 21 7 4 21 3 32 -2
41 -23 48 -179 10 -220 -20 -22 -25 -51 -9 -51 6 0 10 8 10 17 0 13 6 11 29
-11 19 -18 37 -27 52 -24 37 5 28 31 -17 54 -35 18 -39 23 -33 45 3 14 14 37
23 51 12 18 14 28 6 33 -6 4 -9 19 -5 35 4 20 2 29 -9 33 -20 8 -21 41 -1 57
16 13 20 30 7 30 -4 0 -13 -5 -20 -12z"/>
<path d="M3735 1630 c-11 -5 -33 -9 -48 -9 -16 -1 -26 -5 -22 -10 10 -18 -26
-41 -66 -41 -29 0 -39 -4 -39 -16 0 -8 -5 -25 -12 -37 -14 -27 -21 -77 -10
-77 5 0 16 26 25 58 15 49 21 57 43 58 14 1 42 13 62 27 74 50 120 54 265 21
15 -4 27 -2 27 4 0 20 -189 39 -225 22z"/>
<path d="M4511 1563 c0 -10 4 -27 9 -38 7 -17 9 -15 9 12 1 17 -3 35 -9 38 -5
3 -10 -2 -9 -12z"/>
<path d="M1135 1562 c-29 -21 -45 -84 -39 -147 6 -60 5 -66 -19 -87 l-25 -22
27 -36 c38 -50 52 -97 57 -201 4 -78 2 -94 -13 -112 -10 -11 -13 -18 -8 -15 6
3 21 1 35 -5 14 -5 60 -11 102 -13 61 -2 83 -8 99 -23 12 -11 18 -24 15 -29
-3 -5 1 -15 9 -22 12 -10 15 -10 15 3 0 26 29 47 65 47 19 0 36 4 40 9 9 16
-12 22 -38 12 -26 -10 -45 -7 -162 30 -38 11 -78 21 -87 21 -23 -1 -24 31 -2
52 19 20 82 21 103 2 23 -19 104 -31 99 -14 -3 7 -21 14 -41 16 -26 2 -34 7
-30 17 3 8 -2 17 -10 21 -12 4 -24 35 -31 76 -2 16 -26 30 -41 24 -15 -5 -15
-8 -1 -28 18 -26 21 -47 5 -31 -9 9 -18 8 -35 -3 -21 -14 -22 -14 -17 5 3 12
1 21 -6 21 -6 0 -11 -9 -11 -20 0 -11 -6 -20 -13 -20 -8 0 -12 11 -11 30 1 16
-2 46 -6 65 -7 32 -6 37 13 44 12 5 25 7 29 5 4 -3 6 14 4 38 -3 43 -26 68
-26 28 0 -12 -4 -19 -8 -16 -18 11 -6 51 16 54 23 3 22 5 -17 48 -16 18 -17
16 32 39 25 12 36 23 33 32 -3 8 -2 11 4 8 5 -3 14 4 20 15 6 11 15 18 21 15
5 -4 9 3 9 14 0 11 -4 23 -10 26 -5 3 -10 1 -10 -6 0 -8 -4 -8 -12 -2 -7 6
-37 9 -65 8 -29 0 -53 3 -53 7 0 4 12 8 28 9 24 0 25 1 7 9 -26 11 -28 11 -40
2z m-9 -88 c-4 -9 -9 -15 -11 -12 -3 3 -3 13 1 22 4 9 9 15 11 12 3 -3 3 -13
-1 -22z m92 -19 c-1 -1 -14 2 -28 7 -24 10 -24 11 -5 18 13 5 23 3 28 -7 5 -8
7 -16 5 -18z"/>
<path d="M4225 1547 c-4 -9 -1 -24 6 -33 7 -9 12 -38 11 -72 -3 -83 -7 -97
-28 -100 -33 -7 -38 -21 -11 -33 21 -10 29 -9 42 5 22 21 25 20 25 -8 0 -15
-7 -26 -19 -29 -13 -3 -24 -20 -32 -48 -19 -71 -50 -129 -67 -129 -8 0 -13 -3
-9 -6 12 -13 67 8 67 25 0 9 7 26 15 37 19 25 19 13 0 -32 -13 -32 -13 -37 0
-51 16 -15 21 -68 6 -59 -5 3 -22 -1 -37 -9 -16 -8 -50 -15 -75 -15 -25 0 -69
-7 -98 -16 -41 -12 -56 -13 -67 -3 -22 18 -27 5 -5 -15 28 -26 95 -32 125 -12
14 8 31 13 39 10 7 -2 26 0 42 6 21 8 30 8 35 0 12 -20 78 0 99 29 20 28 18
90 -4 103 -16 10 -17 74 -1 107 7 14 19 52 26 83 12 51 11 60 -3 76 -26 28
-35 64 -24 89 8 18 6 27 -5 40 -9 10 -22 32 -31 48 -13 26 -16 27 -22 12z"/>
<path d="M1826 1542 c-2 -4 -1 -14 5 -22 7 -12 9 -10 9 8 0 23 -5 28 -14 14z"/>
<path d="M3010 1403 c0 -46 4 -83 9 -83 4 0 20 9 33 20 22 17 25 24 18 58 -8
45 -18 64 -30 57 -5 -3 -13 3 -19 12 -8 14 -10 -3 -11 -64z"/>
<path d="M3096 1461 c-14 -16 -15 -23 -6 -41 14 -27 19 -23 25 24 6 42 4 43
-19 17z"/>
<path d="M3530 1406 c0 -8 -5 -16 -12 -18 -7 -3 -6 -7 5 -11 13 -5 17 -1 17
18 0 14 -2 25 -5 25 -3 0 -5 -6 -5 -14z"/>
<path d="M870 1354 c0 -14 4 -23 10 -19 6 3 10 15 10 26 0 10 -4 19 -10 19 -5
0 -10 -12 -10 -26z"/>
<path d="M2321 1347 c-7 -10 -22 -17 -32 -17 -24 0 -28 -16 -31 -162 -2 -94
-6 -128 -15 -128 -20 0 -15 -45 7 -65 18 -17 21 -17 55 4 20 11 33 17 30 11
-3 -5 -1 -10 4 -10 6 0 11 9 11 21 0 14 5 19 15 16 8 -4 17 -2 20 3 9 14 -6
39 -20 34 -7 -3 -16 -1 -19 5 -4 5 -22 7 -41 4 -31 -5 -35 -3 -41 22 -9 38 10
54 36 30 19 -18 20 -18 20 2 0 24 -25 48 -40 38 -6 -4 -10 11 -10 42 1 37 3
44 11 31 5 -10 16 -18 24 -18 24 0 36 37 33 97 -3 49 -5 54 -17 40z"/>
<path d="M2230 1335 c0 -5 5 -17 10 -25 5 -8 10 -10 10 -5 0 6 -5 17 -10 25
-5 8 -10 11 -10 5z"/>
<path d="M3001 1284 c0 -11 3 -14 6 -6 3 7 2 16 -1 19 -3 4 -6 -2 -5 -13z"/>
<path d="M3450 1279 c0 -5 5 -7 10 -4 6 3 10 8 10 11 0 2 -4 4 -10 4 -5 0 -10
-5 -10 -11z"/>
<path d="M4196 1274 c-11 -8 -16 -14 -10 -14 13 0 39 18 34 24 -3 2 -14 -2
-24 -10z"/>
<path d="M3530 1257 c0 -9 5 -19 10 -22 6 -4 8 -15 5 -25 -3 -11 0 -20 11 -24
30 -11 33 4 8 42 -32 47 -34 48 -34 29z"/>
<path d="M4532 1240 c0 -19 2 -27 5 -17 2 9 2 25 0 35 -3 9 -5 1 -5 -18z"/>
<path d="M2995 1240 c-3 -5 -1 -18 4 -27 9 -16 10 -14 11 10 0 28 -5 34 -15
17z"/>
<path d="M3046 1216 c-15 -24 -15 -26 21 -55 20 -17 40 -28 45 -25 14 9 9 29
-12 47 -11 9 -20 23 -20 31 0 26 -17 27 -34 2z"/>
<path d="M1230 1206 c0 -2 14 -6 30 -8 17 -3 30 -1 30 4 0 4 -13 8 -30 8 -16
0 -30 -2 -30 -4z"/>
<path d="M1721 1183 c-1 -6 -4 -20 -7 -30 -5 -17 -5 -17 6 0 6 10 9 23 6 30
-3 9 -5 9 -5 0z"/>
<path d="M3608 1134 c-2 -11 6 -27 17 -36 l20 -18 -21 -18 c-13 -11 -21 -29
-21 -50 0 -34 14 -39 67 -22 25 8 25 8 -4 9 -28 1 -29 2 -23 46 5 35 2 52 -12
76 -16 26 -20 28 -23 13z"/>
<path d="M2960 1108 c0 -15 4 -29 9 -32 5 -4 8 -14 7 -23 -3 -22 59 -77 79
-69 23 8 55 68 55 101 l0 30 -19 -30 c-17 -28 -61 -46 -61 -24 0 5 -11 9 -25
9 -17 0 -25 6 -25 18 0 9 -5 24 -10 32 -8 12 -10 9 -10 -12z"/>
<path d="M3970 1095 c0 -37 1 -38 23 -29 12 4 13 11 4 35 -15 39 -27 37 -27
-6z"/>
<path d="M1711 1100 c-1 -14 3 -32 9 -40 15 -24 17 -8 4 30 -11 30 -13 32 -13
10z"/>
<path d="M1790 1100 c0 -5 5 -10 10 -10 6 0 10 5 10 10 0 6 -4 10 -10 10 -5 0
-10 -4 -10 -10z"/>
<path d="M823 1015 c4 -26 8 -60 8 -74 1 -25 2 -25 8 4 12 50 7 108 -8 113
-11 4 -13 -5 -8 -43z"/>
<path d="M1976 1024 c-11 -35 -3 -102 12 -97 13 6 15 66 3 98 -8 20 -8 20 -15
-1z"/>
<path d="M3720 1001 c0 -6 7 -11 15 -11 8 0 24 -9 35 -20 12 -12 25 -18 30
-15 18 11 10 21 -27 35 -21 8 -41 16 -45 18 -5 2 -8 -1 -8 -7z"/>
<path d="M1709 973 c-13 -16 -12 -17 4 -4 16 13 21 21 13 21 -2 0 -10 -8 -17
-17z"/>
<path d="M2376 969 c-4 -8 -1 -29 5 -45 11 -25 13 -26 16 -9 2 12 0 32 -6 45
-7 20 -10 22 -15 9z"/>
<path d="M2299 937 c-1 -12 -2 -26 -4 -32 -1 -5 -3 -16 -3 -23 -1 -7 -6 -10
-12 -7 -5 3 -10 -1 -10 -10 0 -9 4 -13 10 -10 6 4 7 -2 1 -17 -4 -13 -7 -40
-4 -61 2 -21 -1 -53 -6 -72 -7 -28 -6 -37 9 -50 31 -28 62 -15 87 35 12 25 22
47 23 50 0 3 -18 4 -40 2 l-40 -4 0 40 c0 23 4 43 9 46 15 9 9 125 -6 130 -8
3 -13 -3 -14 -17z"/>
<path d="M3227 933 c-10 -9 -9 -33 1 -33 4 0 8 9 8 20 0 23 0 22 -9 13z"/>
<path d="M1975 853 c10 -95 11 -98 28 -101 21 -4 22 31 4 102 -19 73 -39 73
-32 -1z"/>
<path d="M826 865 c-3 -9 -4 -20 -2 -23 2 -4 7 -23 10 -43 5 -34 49 -124 66
-134 4 -3 4 12 -2 33 -5 20 -9 56 -8 80 1 49 -8 71 -21 51 -6 -10 -12 -4 -22
20 -11 26 -15 30 -21 16z"/>
<path d="M1218 823 c7 -3 16 -2 19 1 4 3 -2 6 -13 5 -11 0 -14 -3 -6 -6z"/>
<path d="M2440 788 c-21 -16 -21 -19 -5 -13 16 5 18 4 8 -6 -7 -7 -13 -18 -13
-23 0 -6 5 -4 10 4 8 13 11 12 23 -4 13 -18 14 -17 12 18 -2 21 -5 39 -7 41
-2 2 -14 -5 -28 -17z"/>
<path d="M3136 786 c7 -19 38 -22 32 -3 -3 6 -12 13 -21 15 -12 2 -15 -1 -11
-12z"/>
<path d="M3340 786 c0 -8 5 -18 10 -21 6 -3 10 1 10 9 0 8 -4 18 -10 21 -5 3
-10 -1 -10 -9z"/>
<path d="M1927 774 c-4 -4 -4 -18 -1 -30 4 -17 2 -24 -7 -24 -8 0 -15 -12 -16
-29 -1 -21 4 -31 23 -39 21 -10 24 -9 24 9 0 11 -4 18 -9 14 -5 -3 -12 -1 -16
5 -3 5 0 10 8 10 12 0 14 9 10 43 -6 48 -7 49 -16 41z"/>
<path d="M3965 749 c-4 -6 -13 -8 -21 -5 -8 3 -14 1 -14 -4 0 -6 26 -10 58
-10 57 0 57 0 28 15 -34 18 -43 19 -51 4z"/>
<path d="M721 724 c0 -11 3 -14 6 -6 3 7 2 16 -1 19 -3 4 -6 -2 -5 -13z"/>
<path d="M2000 720 c0 -5 7 -10 15 -10 8 0 15 5 15 10 0 6 -7 10 -15 10 -8 0
-15 -4 -15 -10z"/>
<path d="M2660 709 c0 -5 10 -13 21 -20 13 -6 19 -7 15 -1 -3 6 0 12 6 14 7 3
1 7 -14 10 -16 3 -28 2 -28 -3z"/>
<path d="M3600 710 c0 -4 -12 -12 -27 -19 -18 -8 -23 -15 -16 -22 7 -7 20 -6
41 5 17 9 38 16 47 16 27 0 16 18 -15 22 -16 3 -30 2 -30 -2z"/>
<path d="M1226 674 c-5 -12 1 -15 26 -12 42 4 50 28 10 28 -18 0 -32 -6 -36
-16z"/>
<path d="M2770 619 c0 -5 11 -9 25 -9 14 0 25 2 25 4 0 2 -11 6 -25 8 -14 3
-25 1 -25 -3z"/>
</g>
</svg>
