<svg width="198" height="181" viewBox="0 0 198 181" fill="none" xmlns="http://www.w3.org/2000/svg">
<circle cx="99" cy="96" r="36" fill="#E07153"/>
<path fill-rule="evenodd" clip-rule="evenodd" d="M124.885 60.8231C124.707 60.8439 124.168 60.9037 123.686 60.956C120.645 61.286 117.277 62.4273 114.559 64.0489C111.1 66.1127 108.288 68.9242 106.224 72.3832C104.616 75.0789 103.548 78.2115 103.112 81.5108C102.963 82.6404 102.963 86.0969 103.112 87.2264C103.548 90.5257 104.616 93.6584 106.224 96.354C108.288 99.8131 111.1 102.625 114.559 104.688C117.254 106.297 120.387 107.365 123.686 107.801C124.816 107.95 128.272 107.95 129.402 107.801C135.142 107.042 140.008 104.521 143.979 100.248C146.176 97.8835 147.895 94.9428 148.95 91.7436C149.781 89.2218 150.092 87.2138 150.092 84.3686C150.092 82.2638 150.003 81.3339 149.626 79.4827C148.33 73.1355 144.252 67.4633 138.53 64.0489C135.861 62.457 132.68 61.3661 129.494 60.9511C128.686 60.8458 125.456 60.7561 124.885 60.8231ZM127.743 69.1207C127.743 70.1315 127.611 70.5166 127.155 70.842C126.761 71.1227 125.933 71.1303 125.56 70.8566C125.113 70.5289 124.977 70.1354 124.977 69.1688L124.977 68.3042L124.341 68.3669C122.842 68.5146 121.155 69.0401 119.4 69.9055C117.807 70.6912 116.665 71.4949 115.357 72.753C112.714 75.2947 111.055 78.5055 110.559 82.0409L110.44 82.8936H111.304C112.289 82.8936 112.657 83.0095 113.011 83.431C113.357 83.8417 113.42 84.3479 113.19 84.867C112.903 85.5162 112.591 85.6585 111.454 85.6589C110.937 85.6591 110.496 85.6903 110.473 85.7284C110.45 85.7665 110.485 86.1709 110.549 86.6272C111.289 91.8741 114.599 96.47 119.307 98.7902C121.08 99.6636 122.762 100.195 124.286 100.363C124.59 100.397 124.911 100.444 125 100.469C125.147 100.51 125.161 100.418 125.161 99.443C125.161 98.3072 125.231 98.0481 125.637 97.6755C126.286 97.0791 127.371 97.3038 127.797 98.123C127.887 98.2951 127.927 98.7028 127.927 99.443C127.927 100.419 127.941 100.51 128.088 100.468C128.177 100.443 128.515 100.394 128.84 100.359C129.753 100.261 131.38 99.8289 132.47 99.3948C134.465 98.5999 136.106 97.5414 137.683 96.0304C140.512 93.3208 142.162 89.9752 142.628 86.005L142.69 85.4749H141.591C140.6 85.4749 140.461 85.4542 140.181 85.2652C139.778 84.9937 139.494 84.3365 139.58 83.8756C139.657 83.4639 140.037 83.0008 140.434 82.835C140.621 82.7568 141.089 82.7093 141.672 82.7093H142.609L142.546 82.1331C142.264 79.5442 140.885 76.3813 139.079 74.1819C136.469 71.0045 132.834 68.9492 128.803 68.3713C128.296 68.2987 127.85 68.2384 127.812 68.2375C127.774 68.2366 127.743 68.634 127.743 69.1207ZM118.956 74.9697C119.098 75.0228 120.864 76.713 122.88 78.7258L126.544 82.3853L128.457 80.4765C130.511 78.4265 130.796 78.2231 131.452 78.3339C131.953 78.4188 132.494 78.9622 132.58 79.4667C132.697 80.1584 132.486 80.4321 129.759 83.1391C127.593 85.2883 127.187 85.6524 126.89 85.7077C126.043 85.8652 126.209 85.9997 121.579 81.3886C119.143 78.9616 117.25 77.0044 117.177 76.8353C116.671 75.6657 117.759 74.5249 118.956 74.9697Z" fill="white"/>
<path fill-rule="evenodd" clip-rule="evenodd" d="M124.885 60.8231C124.707 60.8439 124.168 60.9037 123.686 60.956C120.645 61.286 117.277 62.4273 114.559 64.0489C111.1 66.1127 108.288 68.9242 106.224 72.3832C104.616 75.0789 103.548 78.2115 103.112 81.5108C102.963 82.6404 102.963 86.0969 103.112 87.2264C103.548 90.5257 104.616 93.6584 106.224 96.354C108.288 99.8131 111.1 102.625 114.559 104.688C117.254 106.297 120.387 107.365 123.686 107.801C124.816 107.95 128.272 107.95 129.402 107.801C135.142 107.042 140.008 104.521 143.979 100.248C146.176 97.8835 147.895 94.9428 148.95 91.7436C149.781 89.2218 150.092 87.2138 150.092 84.3686C150.092 82.2638 150.003 81.3339 149.626 79.4827C148.33 73.1355 144.252 67.4633 138.53 64.0489C135.861 62.457 132.68 61.3661 129.494 60.9511C128.686 60.8458 125.456 60.7561 124.885 60.8231ZM129.31 65.6169C132.452 66.0759 135.428 67.3435 138.099 69.3616C139.065 70.0911 140.822 71.8481 141.551 72.8138C144.185 76.3005 145.478 80.1054 145.478 84.3686C145.478 86.769 145.122 88.8004 144.342 90.8541C143.278 93.6518 141.969 95.6895 139.917 97.7415C136.971 100.688 133.404 102.494 129.264 103.136C127.888 103.35 125.2 103.35 123.825 103.136C120.56 102.63 117.667 101.399 114.989 99.3757C114.024 98.6462 112.267 96.8892 111.537 95.9235C109.514 93.2456 108.283 90.353 107.776 87.0882C107.563 85.7113 107.563 83.0242 107.777 81.6491C108.281 78.4041 109.53 75.4714 111.537 72.8138C112.267 71.8481 114.024 70.0911 114.989 69.3616C119.19 66.1881 124.219 64.8732 129.31 65.6169ZM127.743 69.1207C127.743 70.1315 127.611 70.5166 127.155 70.842C126.761 71.1227 125.933 71.1303 125.56 70.8566C125.113 70.5289 124.977 70.1354 124.977 69.1688L124.977 68.3042L124.341 68.3669C122.842 68.5146 121.155 69.0401 119.4 69.9055C117.807 70.6912 116.665 71.4949 115.357 72.753C112.714 75.2947 111.055 78.5055 110.559 82.0409L110.44 82.8936H111.304C112.289 82.8936 112.657 83.0095 113.011 83.431C113.357 83.8417 113.42 84.3479 113.19 84.867C112.903 85.5162 112.591 85.6585 111.454 85.6589C110.937 85.6591 110.496 85.6903 110.473 85.7284C110.45 85.7665 110.485 86.1709 110.549 86.6272C111.289 91.8741 114.599 96.47 119.307 98.7902C121.08 99.6636 122.762 100.195 124.286 100.363C124.59 100.397 124.911 100.444 125 100.469C125.147 100.51 125.161 100.418 125.161 99.443C125.161 98.3072 125.231 98.0481 125.637 97.6755C126.286 97.0791 127.371 97.3038 127.797 98.123C127.887 98.2951 127.927 98.7028 127.927 99.443C127.927 100.419 127.941 100.51 128.088 100.468C128.177 100.443 128.515 100.394 128.84 100.359C129.753 100.261 131.38 99.8289 132.47 99.3948C134.465 98.5999 136.106 97.5414 137.683 96.0304C140.512 93.3208 142.162 89.9752 142.628 86.005L142.69 85.4749H141.591C140.6 85.4749 140.461 85.4542 140.181 85.2653C139.778 84.9937 139.494 84.3365 139.58 83.8756C139.657 83.4639 140.037 83.0008 140.434 82.835C140.621 82.7568 141.089 82.7093 141.672 82.7093H142.609L142.546 82.1331C142.264 79.5442 140.885 76.3813 139.079 74.1819C136.469 71.0045 132.834 68.9492 128.803 68.3713C128.296 68.2987 127.85 68.2384 127.812 68.2375C127.774 68.2366 127.743 68.634 127.743 69.1207ZM118.956 74.9697C119.098 75.0228 120.864 76.713 122.88 78.7258L126.544 82.3853L128.457 80.4765C130.511 78.4265 130.796 78.2231 131.452 78.3339C131.953 78.4188 132.494 78.9622 132.58 79.4667C132.697 80.1584 132.486 80.4321 129.759 83.1391C127.593 85.2883 127.187 85.6524 126.89 85.7077C126.043 85.8652 126.209 85.9997 121.579 81.3886C119.143 78.9616 117.25 77.0044 117.177 76.8353C116.671 75.6657 117.759 74.5249 118.956 74.9697Z" fill="#1B1B1B"/>
<path d="M69.64 158.14C67.6987 158.14 66.5787 157.323 66.28 155.69H68.38C68.5107 156.157 68.9307 156.39 69.64 156.39C70.0227 156.39 70.3167 156.329 70.522 156.208C70.7273 156.077 70.83 155.905 70.83 155.69C70.83 155.27 70.4567 155.06 69.71 155.06H68.94V153.45H69.64C70.34 153.45 70.69 153.24 70.69 152.82C70.69 152.4 70.34 152.19 69.64 152.19C69.332 152.19 69.0753 152.255 68.87 152.386C68.674 152.507 68.5573 152.675 68.52 152.89H66.49C66.5647 152.125 66.8633 151.527 67.386 151.098C67.9087 150.659 68.66 150.44 69.64 150.44C70.6293 150.44 71.39 150.641 71.922 151.042C72.454 151.434 72.72 151.957 72.72 152.61C72.72 153.347 72.3467 153.884 71.6 154.22C72.44 154.603 72.86 155.186 72.86 155.97C72.86 156.623 72.5847 157.151 72.034 157.552C71.4833 157.944 70.6853 158.14 69.64 158.14ZM76.7734 156.53C77.2308 156.53 77.5994 156.404 77.8794 156.152C78.1688 155.891 78.3134 155.55 78.3134 155.13V154.92H76.6334C76.3068 154.92 76.0594 154.995 75.8914 155.144C75.7328 155.284 75.6534 155.466 75.6534 155.69C75.6534 155.942 75.7468 156.147 75.9334 156.306C76.1201 156.455 76.4001 156.53 76.7734 156.53ZM76.2834 158.14C75.4901 158.14 74.8601 157.925 74.3934 157.496C73.9268 157.067 73.6934 156.511 73.6934 155.83C73.6934 155.139 73.9408 154.584 74.4354 154.164C74.9394 153.735 75.6488 153.52 76.5634 153.52H78.3134V153.17C78.3134 152.825 78.2014 152.563 77.9774 152.386C77.7534 152.209 77.4454 152.12 77.0534 152.12C76.7828 152.12 76.5448 152.181 76.3394 152.302C76.1434 152.423 76.0081 152.573 75.9334 152.75H73.9734C74.1321 152.087 74.4728 151.537 74.9954 151.098C75.5274 150.659 76.2368 150.44 77.1234 150.44C78.1128 150.44 78.8828 150.683 79.4334 151.168C79.9934 151.653 80.2734 152.344 80.2734 153.24V158H78.5934L78.3834 157.16H78.3134C77.8748 157.813 77.1981 158.14 76.2834 158.14ZM87.3036 155.83C87.6023 156.11 88.013 156.25 88.5356 156.25C89.0583 156.25 89.469 156.11 89.7676 155.83C90.0663 155.541 90.2156 155.167 90.2156 154.71C90.2156 154.234 90.0523 153.847 89.7256 153.548C89.399 153.249 89.0023 153.1 88.5356 153.1C88.013 153.1 87.6023 153.245 87.3036 153.534C87.005 153.823 86.8556 154.215 86.8556 154.71C86.8556 155.167 87.005 155.541 87.3036 155.83ZM88.5356 158.14C87.397 158.14 86.4823 157.813 85.7916 157.16C85.101 156.507 84.7556 155.667 84.7556 154.64C84.7556 153.735 85.1056 152.731 85.8056 151.63L87.9756 148.2H90.2856L88.1856 151.49H88.2556C88.3956 151.443 88.629 151.42 88.9556 151.42C89.9823 151.42 90.799 151.733 91.4056 152.358C92.0123 152.983 92.3156 153.767 92.3156 154.71C92.3156 155.718 91.975 156.544 91.2936 157.188C90.6216 157.823 89.7023 158.14 88.5356 158.14ZM100.637 156.852C99.8899 157.711 98.8679 158.14 97.5705 158.14C96.2732 158.14 95.2465 157.711 94.4905 156.852C93.7439 155.993 93.3705 154.743 93.3705 153.1C93.3705 151.457 93.7439 150.207 94.4905 149.348C95.2465 148.489 96.2732 148.06 97.5705 148.06C98.8679 148.06 99.8899 148.489 100.637 149.348C101.393 150.207 101.771 151.457 101.771 153.1C101.771 154.743 101.393 155.993 100.637 156.852ZM96.0725 155.452C96.4739 155.984 96.9732 156.25 97.5705 156.25C98.1679 156.25 98.6672 155.984 99.0685 155.452C99.4699 154.911 99.6705 154.127 99.6705 153.1C99.6705 152.073 99.4699 151.294 99.0685 150.762C98.6672 150.221 98.1679 149.95 97.5705 149.95C96.9732 149.95 96.4739 150.221 96.0725 150.762C95.6712 151.294 95.4705 152.073 95.4705 153.1C95.4705 154.127 95.6712 154.911 96.0725 155.452ZM106.393 158V150.58H109.123L110.733 154.99H110.803L112.413 150.58H115.143V158H113.183V153.38H113.113L111.433 158H110.103L108.423 153.38H108.353V158H106.393ZM116.824 158V150.58H118.784V155.06H118.854L121.514 150.58H123.684V158H121.724V153.45H121.654L118.994 158H116.824ZM125.369 158V150.58H127.329V153.38H129.989V150.58H131.949V158H129.989V155.2H127.329V158H125.369Z" fill="#1B1B1B"/>
<path d="M9.44484 178V170.72H10.4948V176.684H10.5648L14.0648 170.72H15.4648V178H14.4148V172.036H14.3448L10.8448 178H9.44484ZM16.5892 178.07V177.02H16.7292C17.1866 177.02 17.4992 176.782 17.6672 176.306C17.8352 175.83 17.9192 174.948 17.9192 173.66V170.72H23.0292V178H21.9792V171.7H18.9692V173.66C18.9692 175.247 18.8059 176.381 18.4792 177.062C18.1619 177.734 17.5786 178.07 16.7292 178.07H16.5892ZM24.9898 178V170.72H26.0398V176.684H26.1098L29.6098 170.72H31.0098V178H29.9598V172.036H29.8898L26.3898 178H24.9898ZM36.0503 178V170.72H41.8603V178H40.8103V171.7H37.1003V178H36.0503ZM43.8159 180.8V170.72H44.6559L44.7959 171.7H44.8659C45.3886 170.953 46.1819 170.58 47.2459 170.58C48.1793 170.58 48.9353 170.911 49.5139 171.574C50.1019 172.237 50.3959 173.165 50.3959 174.36C50.3959 175.555 50.1019 176.483 49.5139 177.146C48.9353 177.809 48.1793 178.14 47.2459 178.14C46.2473 178.14 45.4773 177.79 44.9359 177.09H44.8659V180.8H43.8159ZM45.4679 176.432C45.8786 176.917 46.4246 177.16 47.1059 177.16C47.7873 177.16 48.3286 176.917 48.7299 176.432C49.1406 175.947 49.3459 175.256 49.3459 174.36C49.3459 173.464 49.1406 172.773 48.7299 172.288C48.3286 171.803 47.7873 171.56 47.1059 171.56C46.4246 171.56 45.8786 171.803 45.4679 172.288C45.0666 172.773 44.8659 173.464 44.8659 174.36C44.8659 175.256 45.0666 175.947 45.4679 176.432ZM57.4514 177.146C56.8354 177.809 56.0234 178.14 55.0154 178.14C54.0074 178.14 53.1954 177.809 52.5794 177.146C51.9634 176.483 51.6554 175.555 51.6554 174.36C51.6554 173.165 51.9634 172.237 52.5794 171.574C53.1954 170.911 54.0074 170.58 55.0154 170.58C56.0234 170.58 56.8354 170.911 57.4514 171.574C58.0674 172.237 58.3754 173.165 58.3754 174.36C58.3754 175.555 58.0674 176.483 57.4514 177.146ZM53.3354 176.432C53.7647 176.917 54.3247 177.16 55.0154 177.16C55.7061 177.16 56.2614 176.917 56.6814 176.432C57.1107 175.937 57.3254 175.247 57.3254 174.36C57.3254 173.473 57.1107 172.787 56.6814 172.302C56.2614 171.807 55.7061 171.56 55.0154 171.56C54.3247 171.56 53.7647 171.807 53.3354 172.302C52.9154 172.787 52.7054 173.473 52.7054 174.36C52.7054 175.247 52.9154 175.937 53.3354 176.432ZM59.9898 178V170.72H61.5298L63.8398 176.53H63.9098L66.2198 170.72H67.7598V178H66.7098V172.26H66.6398L64.3298 178H63.4198L61.1098 172.26H61.0398V178H59.9898ZM75.1701 177.146C74.5541 177.809 73.7421 178.14 72.7341 178.14C71.7261 178.14 70.9141 177.809 70.2981 177.146C69.6821 176.483 69.3741 175.555 69.3741 174.36C69.3741 173.165 69.6821 172.237 70.2981 171.574C70.9141 170.911 71.7261 170.58 72.7341 170.58C73.7421 170.58 74.5541 170.911 75.1701 171.574C75.7861 172.237 76.0941 173.165 76.0941 174.36C76.0941 175.555 75.7861 176.483 75.1701 177.146ZM71.0541 176.432C71.4835 176.917 72.0435 177.16 72.7341 177.16C73.4248 177.16 73.9801 176.917 74.4001 176.432C74.8295 175.937 75.0441 175.247 75.0441 174.36C75.0441 173.473 74.8295 172.787 74.4001 172.302C73.9801 171.807 73.4248 171.56 72.7341 171.56C72.0435 171.56 71.4835 171.807 71.0541 172.302C70.6341 172.787 70.4241 173.473 70.4241 174.36C70.4241 175.247 70.6341 175.937 71.0541 176.432ZM77.7085 180.8V170.72H78.5485L78.6885 171.7H78.7585C79.2812 170.953 80.0745 170.58 81.1385 170.58C82.0718 170.58 82.8278 170.911 83.4065 171.574C83.9945 172.237 84.2885 173.165 84.2885 174.36C84.2885 175.555 83.9945 176.483 83.4065 177.146C82.8278 177.809 82.0718 178.14 81.1385 178.14C80.1398 178.14 79.3698 177.79 78.8285 177.09H78.7585V180.8H77.7085ZM79.3605 176.432C79.7712 176.917 80.3172 177.16 80.9985 177.16C81.6798 177.16 82.2212 176.917 82.6225 176.432C83.0332 175.947 83.2385 175.256 83.2385 174.36C83.2385 173.464 83.0332 172.773 82.6225 172.288C82.2212 171.803 81.6798 171.56 80.9985 171.56C80.3172 171.56 79.7712 171.803 79.3605 172.288C78.9592 172.773 78.7585 173.464 78.7585 174.36C78.7585 175.256 78.9592 175.947 79.3605 176.432ZM91.344 177.146C90.728 177.809 89.916 178.14 88.908 178.14C87.9 178.14 87.088 177.809 86.472 177.146C85.856 176.483 85.548 175.555 85.548 174.36C85.548 173.165 85.856 172.237 86.472 171.574C87.088 170.911 87.9 170.58 88.908 170.58C89.916 170.58 90.728 170.911 91.344 171.574C91.96 172.237 92.268 173.165 92.268 174.36C92.268 175.555 91.96 176.483 91.344 177.146ZM87.228 176.432C87.6573 176.917 88.2173 177.16 88.908 177.16C89.5986 177.16 90.154 176.917 90.574 176.432C91.0033 175.937 91.218 175.247 91.218 174.36C91.218 173.473 91.0033 172.787 90.574 172.302C90.154 171.807 89.5986 171.56 88.908 171.56C88.2173 171.56 87.6573 171.807 87.228 172.302C86.808 172.787 86.598 173.473 86.598 174.36C86.598 175.247 86.808 175.937 87.228 176.432ZM93.0423 178.07V177.02H93.1823C93.6397 177.02 93.9523 176.782 94.1203 176.306C94.2883 175.83 94.3723 174.948 94.3723 173.66V170.72H99.4823V178H98.4323V171.7H95.4223V173.66C95.4223 175.247 95.259 176.381 94.9323 177.062C94.615 177.734 94.0317 178.07 93.1823 178.07H93.0423ZM106.829 178.14C106.045 178.14 105.396 177.967 104.883 177.622C104.37 177.267 104.062 176.763 103.959 176.11H105.009C105.074 176.446 105.275 176.707 105.611 176.894C105.947 177.071 106.353 177.16 106.829 177.16C107.398 177.16 107.832 177.057 108.131 176.852C108.43 176.647 108.579 176.376 108.579 176.04C108.579 175.704 108.43 175.424 108.131 175.2C107.832 174.967 107.398 174.85 106.829 174.85H106.199V173.87H106.829C107.342 173.87 107.739 173.763 108.019 173.548C108.299 173.333 108.439 173.044 108.439 172.68C108.439 172.353 108.294 172.087 108.005 171.882C107.725 171.667 107.333 171.56 106.829 171.56C105.849 171.56 105.289 171.91 105.149 172.61H104.099C104.202 171.957 104.496 171.457 104.981 171.112C105.466 170.757 106.082 170.58 106.829 170.58C107.65 170.58 108.299 170.776 108.775 171.168C109.251 171.56 109.489 172.064 109.489 172.68C109.489 173.053 109.372 173.399 109.139 173.716C108.906 174.033 108.626 174.248 108.299 174.36C108.672 174.472 108.985 174.682 109.237 174.99C109.498 175.289 109.629 175.639 109.629 176.04C109.629 176.665 109.386 177.174 108.901 177.566C108.425 177.949 107.734 178.14 106.829 178.14ZM113.264 177.16C113.945 177.16 114.486 176.969 114.888 176.586C115.298 176.194 115.504 175.709 115.504 175.13V174.64H113.474C112.923 174.64 112.503 174.752 112.214 174.976C111.934 175.2 111.794 175.508 111.794 175.9C111.794 176.283 111.924 176.591 112.186 176.824C112.447 177.048 112.806 177.16 113.264 177.16ZM113.264 178.14C112.508 178.14 111.896 177.93 111.43 177.51C110.972 177.081 110.744 176.544 110.744 175.9C110.744 175.247 110.986 174.71 111.472 174.29C111.957 173.87 112.624 173.66 113.474 173.66H115.504V173.17C115.504 172.685 115.34 172.297 115.014 172.008C114.696 171.709 114.276 171.56 113.754 171.56C112.867 171.56 112.307 171.91 112.074 172.61H110.954C111.122 171.957 111.453 171.457 111.948 171.112C112.442 170.757 113.044 170.58 113.754 170.58C114.622 170.58 115.303 170.818 115.798 171.294C116.302 171.761 116.554 172.386 116.554 173.17V178H115.714L115.574 177.02H115.504C115.345 177.3 115.06 177.557 114.65 177.79C114.239 178.023 113.777 178.14 113.264 178.14ZM126.959 177.146C126.343 177.809 125.531 178.14 124.523 178.14C123.515 178.14 122.703 177.809 122.087 177.146C121.471 176.483 121.163 175.555 121.163 174.36C121.163 173.165 121.471 172.237 122.087 171.574C122.703 170.911 123.515 170.58 124.523 170.58C125.531 170.58 126.343 170.911 126.959 171.574C127.575 172.237 127.883 173.165 127.883 174.36C127.883 175.555 127.575 176.483 126.959 177.146ZM122.843 176.432C123.273 176.917 123.833 177.16 124.523 177.16C125.214 177.16 125.769 176.917 126.189 176.432C126.619 175.937 126.833 175.247 126.833 174.36C126.833 173.473 126.619 172.787 126.189 172.302C125.769 171.807 125.214 171.56 124.523 171.56C123.833 171.56 123.273 171.807 122.843 172.302C122.423 172.787 122.213 173.473 122.213 174.36C122.213 175.247 122.423 175.937 122.843 176.432ZM129.498 178V170.72H135.308V178H134.258V171.7H130.548V178H129.498ZM142.709 177.146C142.093 177.809 141.281 178.14 140.273 178.14C139.265 178.14 138.453 177.809 137.837 177.146C137.221 176.483 136.913 175.555 136.913 174.36C136.913 173.165 137.221 172.237 137.837 171.574C138.453 170.911 139.265 170.58 140.273 170.58C141.281 170.58 142.093 170.911 142.709 171.574C143.325 172.237 143.633 173.165 143.633 174.36C143.633 175.555 143.325 176.483 142.709 177.146ZM138.593 176.432C139.023 176.917 139.583 177.16 140.273 177.16C140.964 177.16 141.519 176.917 141.939 176.432C142.369 175.937 142.583 175.247 142.583 174.36C142.583 173.473 142.369 172.787 141.939 172.302C141.519 171.807 140.964 171.56 140.273 171.56C139.583 171.56 139.023 171.807 138.593 172.302C138.173 172.787 137.963 173.473 137.963 174.36C137.963 175.247 138.173 175.937 138.593 176.432ZM147.558 178.14C146.774 178.14 146.125 177.967 145.612 177.622C145.098 177.267 144.79 176.763 144.688 176.11H145.738C145.803 176.446 146.004 176.707 146.34 176.894C146.676 177.071 147.082 177.16 147.558 177.16C148.127 177.16 148.561 177.057 148.86 176.852C149.158 176.647 149.308 176.376 149.308 176.04C149.308 175.704 149.158 175.424 148.86 175.2C148.561 174.967 148.127 174.85 147.558 174.85H146.928V173.87H147.558C148.071 173.87 148.468 173.763 148.748 173.548C149.028 173.333 149.168 173.044 149.168 172.68C149.168 172.353 149.023 172.087 148.734 171.882C148.454 171.667 148.062 171.56 147.558 171.56C146.578 171.56 146.018 171.91 145.878 172.61H144.828C144.93 171.957 145.224 171.457 145.71 171.112C146.195 170.757 146.811 170.58 147.558 170.58C148.379 170.58 149.028 170.776 149.504 171.168C149.98 171.56 150.218 172.064 150.218 172.68C150.218 173.053 150.101 173.399 149.868 173.716C149.634 174.033 149.354 174.248 149.028 174.36C149.401 174.472 149.714 174.682 149.966 174.99C150.227 175.289 150.358 175.639 150.358 176.04C150.358 176.665 150.115 177.174 149.63 177.566C149.154 177.949 148.463 178.14 147.558 178.14ZM150.982 179.68V177.02H151.752C152.172 176.301 152.382 175.181 152.382 173.66V170.72H157.352V177.02H158.332V179.68H157.352V178H151.962V179.68H150.982ZM152.802 177.02H156.302V171.7H153.432V173.66C153.432 175.181 153.222 176.301 152.802 177.02ZM161.689 177.16C162.371 177.16 162.912 176.969 163.313 176.586C163.724 176.194 163.929 175.709 163.929 175.13V174.64H161.899C161.349 174.64 160.929 174.752 160.639 174.976C160.359 175.2 160.219 175.508 160.219 175.9C160.219 176.283 160.35 176.591 160.611 176.824C160.873 177.048 161.232 177.16 161.689 177.16ZM161.689 178.14C160.933 178.14 160.322 177.93 159.855 177.51C159.398 177.081 159.169 176.544 159.169 175.9C159.169 175.247 159.412 174.71 159.897 174.29C160.383 173.87 161.05 173.66 161.899 173.66H163.929V173.17C163.929 172.685 163.766 172.297 163.439 172.008C163.122 171.709 162.702 171.56 162.179 171.56C161.293 171.56 160.733 171.91 160.499 172.61H159.379C159.547 171.957 159.879 171.457 160.373 171.112C160.868 170.757 161.47 170.58 162.179 170.58C163.047 170.58 163.729 170.818 164.223 171.294C164.727 171.761 164.979 172.386 164.979 173.17V178H164.139L163.999 177.02H163.929C163.771 177.3 163.486 177.557 163.075 177.79C162.665 178.023 162.203 178.14 161.689 178.14ZM166.863 178V170.72H167.913V173.87H171.693V170.72H172.743V178H171.693V174.85H167.913V178H166.863ZM174.697 178V170.72H175.747V176.684H175.817L179.317 170.72H180.717V178H179.667V172.036H179.597L176.097 178H174.697ZM185.691 178.14C184.683 178.14 183.871 177.809 183.255 177.146C182.639 176.483 182.331 175.555 182.331 174.36C182.331 173.165 182.635 172.237 183.241 171.574C183.857 170.911 184.651 170.58 185.621 170.58C186.153 170.58 186.634 170.687 187.063 170.902C187.502 171.107 187.852 171.378 188.113 171.714C188.375 172.05 188.571 172.409 188.701 172.792C188.841 173.175 188.911 173.557 188.911 173.94L188.841 174.64H183.381C183.419 175.452 183.647 176.077 184.067 176.516C184.497 176.945 185.038 177.16 185.691 177.16C186.531 177.16 187.161 176.81 187.581 176.11H188.701C188.459 176.763 188.071 177.267 187.539 177.622C187.017 177.967 186.401 178.14 185.691 178.14ZM183.381 173.73H187.861C187.796 173.049 187.558 172.517 187.147 172.134C186.737 171.751 186.228 171.56 185.621 171.56C185.015 171.56 184.506 171.751 184.095 172.134C183.685 172.517 183.447 173.049 183.381 173.73Z" fill="#1B1B1B"/>
<path d="M42.6071 64.0269L36.4782 57.491L37.9954 56.0682C37.72 54.7765 37.1425 53.4902 36.263 52.2092C35.3845 50.8981 34.1645 49.41 32.6031 47.7449L26.9119 41.6758L38.3497 30.9502L50.7171 44.1387L52.7012 42.2781L58.8301 48.814L55.5622 51.8785L52.3882 48.4938L42.7011 57.5778L45.875 60.9624L42.6071 64.0269ZM41.3801 52.8943L47.2157 47.4221L37.8034 37.3848L33.3683 41.5437L36.1045 44.4615C39.2857 47.854 41.0442 50.6649 41.3801 52.8943Z" fill="#1B1B1B"/>
<path d="M67.5238 36.9037C66.9733 38.9587 65.5668 40.6076 63.3044 41.8505C61.042 43.0935 58.8866 43.4013 56.8382 42.7741C54.7982 42.118 53.1105 40.5746 51.7752 38.1439C50.4398 35.7132 50.0474 33.4704 50.598 31.4154C51.1569 29.3314 52.5676 27.668 54.83 26.4251C57.0924 25.1822 59.2436 24.8888 61.2836 25.545C63.332 26.1721 65.0239 27.7011 66.3592 30.1317C67.6946 32.5624 68.0828 34.8197 67.5238 36.9037ZM58.3963 38.6321C59.4121 38.9747 60.4061 38.8789 61.3784 38.3448C62.3507 37.8106 62.9646 37.023 63.2203 35.982C63.4657 34.9222 63.2032 33.6912 62.4328 32.2889C61.6624 30.8865 60.7693 30.0141 59.7535 29.6716C58.7274 29.3103 57.7283 29.3967 56.756 29.9309C55.7837 30.465 55.1749 31.262 54.9295 32.3217C54.6739 33.3628 54.9313 34.5845 55.7017 35.9868C56.4721 37.3891 57.3703 38.2709 58.3963 38.6321Z" fill="#1B1B1B"/>
<path d="M78.216 35.6519C75.7374 36.3728 73.5666 36.2043 71.7038 35.1465C69.8554 34.0622 68.544 32.1886 67.7695 29.5256C66.995 26.8626 67.0999 24.5881 68.0844 22.7021C69.0834 20.7897 70.8222 19.4731 73.3009 18.7522C75.4517 18.1266 77.2894 18.1809 78.8137 18.9151C80.3585 19.6433 81.5963 20.8052 82.5269 22.4008L78.2251 23.6519C77.1824 22.5111 75.9133 22.1581 74.4179 22.593C73.3118 22.9147 72.5369 23.5734 72.0932 24.5689C71.6436 25.5439 71.6363 26.7791 72.0712 28.2744C72.5061 29.7698 73.1778 30.8186 74.0861 31.4209C74.9885 32.0027 75.9928 32.1328 77.0989 31.8111C78.5943 31.3762 79.4761 30.3976 79.7444 28.8755L84.0461 27.6244C84.1164 29.4702 83.6949 31.1146 82.7816 32.5578C81.8887 33.995 80.3669 35.0264 78.216 35.6519Z" fill="#1B1B1B"/>
<path d="M90.5405 32.8088L89.4315 20.057L84.1713 20.5144L83.8109 16.3701L98.7944 15.067L99.1548 19.2114L93.8946 19.6688L95.0036 32.4207L90.5405 32.8088Z" fill="#1B1B1B"/>
<path d="M106.319 29.3326C107.359 29.4447 108.227 29.2487 108.925 28.7446C109.647 28.2216 110.059 27.4829 110.162 26.5284L110.214 26.0512L106.396 25.6395C105.653 25.5595 105.073 25.6685 104.655 25.9667C104.26 26.246 104.035 26.6402 103.98 27.1492C103.918 27.7219 104.08 28.2114 104.465 28.6177C104.853 29.0028 105.471 29.2411 106.319 29.3326ZM104.811 32.8713C103.008 32.6769 101.629 32.0347 100.674 30.9447C99.7186 29.8546 99.3244 28.5354 99.4914 26.9871C99.6606 25.4175 100.359 24.2161 101.586 23.3829C102.836 22.5307 104.501 22.2167 106.58 22.4408L110.557 22.8697L110.642 22.0743C110.727 21.2895 110.537 20.6681 110.071 20.2103C109.605 19.7524 108.927 19.4754 108.036 19.3793C107.421 19.313 106.865 19.3925 106.369 19.618C105.894 19.8457 105.55 20.1519 105.337 20.5366L100.882 20.0563C101.405 18.5892 102.315 17.4213 103.61 16.5525C104.926 15.686 106.592 15.3613 108.607 15.5786C110.855 15.8211 112.546 16.5612 113.678 17.7991C114.832 19.0393 115.299 20.6775 115.079 22.7137L113.913 33.5309L110.095 33.1193L109.824 31.1589L109.665 31.1417C108.508 32.5189 106.89 33.0955 104.811 32.8713Z" fill="#1B1B1B"/>
<path d="M120.55 31.6598L123.897 32.7492C124.486 32.9407 124.978 32.9439 125.375 32.759C125.792 32.5806 126.08 32.248 126.238 31.7611C126.588 30.686 126.154 29.9503 124.937 29.5542L121.59 28.4648L120.55 31.6598ZM115.151 33.7726L120.4 17.6453L128.768 20.3688C130.35 20.8838 131.449 21.6788 132.064 22.7539C132.706 23.8152 132.802 25.0357 132.353 26.4151C131.825 28.038 130.735 28.9733 129.084 29.2212C130.469 30.4797 130.901 31.9102 130.379 33.5128C129.884 35.0342 129.048 36.0521 127.871 36.5664C126.714 37.0874 125.264 37.0639 123.519 36.4961L115.151 33.7726ZM122.63 25.2697L125.825 26.3096C126.941 26.6728 127.647 26.3979 127.944 25.485C128.241 24.5722 127.832 23.9342 126.716 23.571L123.521 22.5311L122.63 25.2697Z" fill="#1B1B1B"/>
<path d="M129.988 38.6369L138.648 24.0544L142.5 26.3418L137.271 35.1464L137.409 35.2281L147.865 29.528L152.13 32.0605L143.47 46.6431L139.618 44.3556L144.928 35.4135L144.791 35.3318L134.253 41.1695L129.988 38.6369Z" fill="#1B1B1B"/>
<path d="M144.692 47.1761L156.752 35.2518L161.14 39.6891L156.559 49.393L156.671 49.5068L166.427 45.0366L170.814 49.4739L158.754 61.3982L155.604 58.2125L163.113 50.7879L163.001 50.6741L152.791 55.368L150.654 53.2063L155.463 43.051L155.351 42.9373L147.842 50.3618L144.692 47.1761Z" fill="#1B1B1B"/>
</svg>
