<svg width="198" height="181" viewBox="0 0 198 181" fill="none" xmlns="http://www.w3.org/2000/svg">
<circle cx="98" cy="96" r="36" fill="#E07153"/>
<path fill-rule="evenodd" clip-rule="evenodd" d="M107.625 83.9831V85.3893H110.438H113.25V83.9831V82.5768H110.438H107.625V83.9831ZM133.031 84.0768V85.5768H133.255C133.595 85.5768 135.023 86.0116 135.719 86.3274C136.647 86.7481 137.776 87.5377 138.55 88.3079C140.514 90.2624 141.467 92.6396 141.468 95.5846L141.469 96.6393H142.875H144.281V98.0456V99.4518H131.625H118.969V98.0456V96.6393H120.362H121.755L121.807 95.1628C121.879 93.124 122.238 91.8242 123.163 90.253C124.516 87.9551 127.065 86.1324 129.597 85.652L130.219 85.5341V84.0555V82.5768H131.625H133.031V84.0768ZM104.812 89.6081V91.0143H107.625H110.438V89.6081V88.2018H107.625H104.812V89.6081ZM130.173 88.3575C128.775 88.6569 127.594 89.3302 126.559 90.4176C125.167 91.88 124.594 93.3929 124.594 95.6041V96.6393H131.625H138.656V95.6041C138.656 93.8949 138.31 92.6476 137.485 91.3893C136.738 90.2482 135.493 89.2152 134.264 88.716C133.042 88.2191 131.464 88.0809 130.173 88.3575ZM102 95.2331V96.6393H104.812H107.625V95.2331V93.8268H104.812H102V95.2331Z" fill="white"/>
<rect x="121" y="71.33" width="4" height="7" fill="white"/>
<path fill-rule="evenodd" clip-rule="evenodd" d="M130.219 60.0482C126.994 60.3936 124.349 61.846 122.424 64.3282L121.781 65.1577V68.2423V71.3268H118.937H116.092L116.032 73.8815C115.939 77.8129 115.675 80.0262 114.702 85.0143C113.384 91.7679 113.252 93.3157 113.251 102.1L113.25 107.983H131.625H150L150 102.1C149.999 93.4566 149.846 91.6229 148.595 85.2532C147.529 79.8274 147.191 76.8575 147.188 72.8971L147.188 71.3268H144.328H141.469V68.2423V65.1577L140.827 64.3282C138.953 61.9045 136.392 60.4677 133.266 60.0865C132.47 59.9894 130.946 59.9703 130.219 60.0482ZM133.922 63.0672C135.56 63.4725 136.911 64.2223 138.007 65.3342L138.656 65.9923V68.6595V71.3268H140.062H141.469V74.1393V76.9518H140.062H138.656V74.1393V71.3268H131.625H124.594V74.1393V76.9518H123.188H121.781V74.1393V71.3268H123.188H124.594L124.594 68.6784L124.595 66.0299L124.966 65.5972C125.38 65.1141 126.481 64.2501 127.125 63.9026C127.974 63.4444 129.154 63.0541 130.176 62.8933C131.035 62.758 133.051 62.8515 133.922 63.0672ZM107.625 83.9831V85.3893H110.438H113.25V83.9831V82.5768H110.438H107.625V83.9831ZM133.031 84.0768V85.5768H133.255C133.595 85.5768 135.023 86.0116 135.719 86.3274C136.647 86.7481 137.776 87.5377 138.55 88.3079C140.514 90.2624 141.467 92.6396 141.468 95.5846L141.469 96.6393H142.875H144.281V98.0456V99.4518H131.625H118.969V98.0456V96.6393H120.362H121.755L121.807 95.1628C121.879 93.124 122.238 91.8242 123.163 90.253C124.516 87.9551 127.065 86.1324 129.597 85.652L130.219 85.5341V84.0555V82.5768H131.625H133.031V84.0768ZM104.812 89.6081V91.0143H107.625H110.438V89.6081V88.2018H107.625H104.812V89.6081ZM130.173 88.3575C128.775 88.6569 127.594 89.3302 126.559 90.4176C125.167 91.88 124.594 93.3929 124.594 95.6041V96.6393H131.625H138.656V95.6041C138.656 93.8949 138.31 92.6476 137.485 91.3893C136.738 90.2482 135.493 89.2152 134.264 88.716C133.042 88.2191 131.464 88.0809 130.173 88.3575ZM102 95.2331V96.6393H104.812H107.625V95.2331V93.8268H104.812H102V95.2331Z" fill="#1B1B1B"/>
<path d="M67.07 159.68V156.18H67.77C67.966 155.872 68.106 155.536 68.19 155.172C68.2833 154.799 68.33 154.271 68.33 153.59V150.58H74.21V156.18H75.12V159.68H73.23V158H68.96V159.68H67.07ZM69.66 156.18H72.25V152.4H70.29V153.59C70.29 154.579 70.08 155.443 69.66 156.18ZM82.1845 157.132C81.5405 157.804 80.6539 158.14 79.5245 158.14C78.3952 158.14 77.5039 157.804 76.8505 157.132C76.2065 156.451 75.8845 155.503 75.8845 154.29C75.8845 153.077 76.2065 152.134 76.8505 151.462C77.5039 150.781 78.3952 150.44 79.5245 150.44C80.6539 150.44 81.5405 150.781 82.1845 151.462C82.8379 152.134 83.1645 153.077 83.1645 154.29C83.1645 155.503 82.8379 156.451 82.1845 157.132ZM78.3205 155.872C78.6379 156.217 79.0392 156.39 79.5245 156.39C80.0099 156.39 80.4112 156.217 80.7285 155.872C81.0459 155.517 81.2045 154.99 81.2045 154.29C81.2045 153.59 81.0459 153.067 80.7285 152.722C80.4112 152.367 80.0099 152.19 79.5245 152.19C79.0392 152.19 78.6379 152.367 78.3205 152.722C78.0032 153.067 77.8445 153.59 77.8445 154.29C77.8445 154.99 78.0032 155.517 78.3205 155.872ZM87.7823 158.14C86.653 158.14 85.7617 157.804 85.1083 157.132C84.4643 156.451 84.1423 155.503 84.1423 154.29C84.1423 153.077 84.4643 152.134 85.1083 151.462C85.7617 150.781 86.653 150.44 87.7823 150.44C88.7623 150.44 89.5277 150.687 90.0783 151.182C90.6383 151.677 91.0163 152.316 91.2123 153.1H89.2523C88.9537 152.493 88.4637 152.19 87.7823 152.19C87.2783 152.19 86.8723 152.372 86.5643 152.736C86.2563 153.091 86.1023 153.609 86.1023 154.29C86.1023 154.971 86.2563 155.494 86.5643 155.858C86.8723 156.213 87.2783 156.39 87.7823 156.39C88.4637 156.39 88.9537 156.087 89.2523 155.48H91.2123C91.0163 156.264 90.6383 156.903 90.0783 157.398C89.5277 157.893 88.7623 158.14 87.7823 158.14ZM93.8133 158V152.4H91.5033V150.58H98.0833V152.4H95.7733V158H93.8133ZM101.453 156.53C101.91 156.53 102.279 156.404 102.559 156.152C102.848 155.891 102.993 155.55 102.993 155.13V154.92H101.313C100.986 154.92 100.739 154.995 100.571 155.144C100.412 155.284 100.333 155.466 100.333 155.69C100.333 155.942 100.426 156.147 100.613 156.306C100.8 156.455 101.08 156.53 101.453 156.53ZM100.963 158.14C100.17 158.14 99.5398 157.925 99.0731 157.496C98.6065 157.067 98.3731 156.511 98.3731 155.83C98.3731 155.139 98.6205 154.584 99.1151 154.164C99.6191 153.735 100.328 153.52 101.243 153.52H102.993V153.17C102.993 152.825 102.881 152.563 102.657 152.386C102.433 152.209 102.125 152.12 101.733 152.12C101.462 152.12 101.224 152.181 101.019 152.302C100.823 152.423 100.688 152.573 100.613 152.75H98.6531C98.8118 152.087 99.1525 151.537 99.6751 151.098C100.207 150.659 100.916 150.44 101.803 150.44C102.792 150.44 103.562 150.683 104.113 151.168C104.673 151.653 104.953 152.344 104.953 153.24V158H103.273L103.063 157.16H102.993C102.554 157.813 101.878 158.14 100.963 158.14ZM108.519 156.39H110.059C110.329 156.39 110.535 156.325 110.675 156.194C110.824 156.063 110.899 155.886 110.899 155.662C110.899 155.167 110.619 154.92 110.059 154.92H108.519V156.39ZM106.559 158V150.58H110.409C111.137 150.58 111.701 150.762 112.103 151.126C112.513 151.481 112.719 151.975 112.719 152.61C112.719 153.357 112.392 153.893 111.739 154.22C112.485 154.556 112.859 155.093 112.859 155.83C112.859 156.53 112.649 157.067 112.229 157.44C111.818 157.813 111.211 158 110.409 158H106.559ZM108.519 153.45H109.989C110.502 153.45 110.759 153.24 110.759 152.82C110.759 152.4 110.502 152.19 109.989 152.19H108.519V153.45ZM114.119 158V150.58H116.079V153.87L118.809 150.58H121.119L118.109 154.22L121.329 158H119.019L116.079 154.57V158H114.119ZM124.408 156.53C124.866 156.53 125.234 156.404 125.514 156.152C125.804 155.891 125.948 155.55 125.948 155.13V154.92H124.268C123.942 154.92 123.694 154.995 123.526 155.144C123.368 155.284 123.288 155.466 123.288 155.69C123.288 155.942 123.382 156.147 123.568 156.306C123.755 156.455 124.035 156.53 124.408 156.53ZM123.918 158.14C123.125 158.14 122.495 157.925 122.028 157.496C121.562 157.067 121.328 156.511 121.328 155.83C121.328 155.139 121.576 154.584 122.07 154.164C122.574 153.735 123.284 153.52 124.198 153.52H125.948V153.17C125.948 152.825 125.836 152.563 125.612 152.386C125.388 152.209 125.08 152.12 124.688 152.12C124.418 152.12 124.18 152.181 123.974 152.302C123.778 152.423 123.643 152.573 123.568 152.75H121.608C121.767 152.087 122.108 151.537 122.63 151.098C123.162 150.659 123.872 150.44 124.758 150.44C125.748 150.44 126.518 150.683 127.068 151.168C127.628 151.653 127.908 152.344 127.908 153.24V158H126.228L126.018 157.16H125.948C125.51 157.813 124.833 158.14 123.918 158.14Z" fill="#1B1B1B"/>
<path d="M35.8452 178V170.72H41.6552V178H40.6052V171.7H36.8952V178H35.8452ZM43.6109 180.8V170.72H44.4509L44.5909 171.7H44.6609C45.1835 170.953 45.9769 170.58 47.0409 170.58C47.9742 170.58 48.7302 170.911 49.3089 171.574C49.8969 172.237 50.1909 173.165 50.1909 174.36C50.1909 175.555 49.8969 176.483 49.3089 177.146C48.7302 177.809 47.9742 178.14 47.0409 178.14C46.0422 178.14 45.2722 177.79 44.7309 177.09H44.6609V180.8H43.6109ZM45.2629 176.432C45.6735 176.917 46.2195 177.16 46.9009 177.16C47.5822 177.16 48.1235 176.917 48.5249 176.432C48.9355 175.947 49.1409 175.256 49.1409 174.36C49.1409 173.464 48.9355 172.773 48.5249 172.288C48.1235 171.803 47.5822 171.56 46.9009 171.56C46.2195 171.56 45.6735 171.803 45.2629 172.288C44.8615 172.773 44.6609 173.464 44.6609 174.36C44.6609 175.256 44.8615 175.947 45.2629 176.432ZM51.8003 178V170.72H52.8503V176.684H52.9203L56.4203 170.72H57.8203V178H56.7703V172.036H56.7003L53.2003 178H51.8003ZM65.1709 178.14C64.3869 178.14 63.7382 177.967 63.2249 177.622C62.7115 177.267 62.4035 176.763 62.3009 176.11H63.3509C63.4162 176.446 63.6169 176.707 63.9529 176.894C64.2889 177.071 64.6949 177.16 65.1709 177.16C65.7402 177.16 66.1742 177.057 66.4729 176.852C66.7715 176.647 66.9209 176.376 66.9209 176.04C66.9209 175.704 66.7715 175.424 66.4729 175.2C66.1742 174.967 65.7402 174.85 65.1709 174.85H64.5409V173.87H65.1709C65.6842 173.87 66.0809 173.763 66.3609 173.548C66.6409 173.333 66.7809 173.044 66.7809 172.68C66.7809 172.353 66.6362 172.087 66.3469 171.882C66.0669 171.667 65.6749 171.56 65.1709 171.56C64.1909 171.56 63.6309 171.91 63.4909 172.61H62.4409C62.5435 171.957 62.8375 171.457 63.3229 171.112C63.8082 170.757 64.4242 170.58 65.1709 170.58C65.9922 170.58 66.6409 170.776 67.1169 171.168C67.5929 171.56 67.8309 172.064 67.8309 172.68C67.8309 173.053 67.7142 173.399 67.4809 173.716C67.2475 174.033 66.9675 174.248 66.6409 174.36C67.0142 174.472 67.3269 174.682 67.5789 174.99C67.8402 175.289 67.9709 175.639 67.9709 176.04C67.9709 176.665 67.7282 177.174 67.2429 177.566C66.7669 177.949 66.0762 178.14 65.1709 178.14ZM71.6054 177.16C72.2867 177.16 72.8281 176.969 73.2294 176.586C73.6401 176.194 73.8454 175.709 73.8454 175.13V174.64H71.8154C71.2647 174.64 70.8447 174.752 70.5554 174.976C70.2754 175.2 70.1354 175.508 70.1354 175.9C70.1354 176.283 70.2661 176.591 70.5274 176.824C70.7887 177.048 71.1481 177.16 71.6054 177.16ZM71.6054 178.14C70.8494 178.14 70.2381 177.93 69.7714 177.51C69.3141 177.081 69.0854 176.544 69.0854 175.9C69.0854 175.247 69.3281 174.71 69.8134 174.29C70.2987 173.87 70.9661 173.66 71.8154 173.66H73.8454V173.17C73.8454 172.685 73.6821 172.297 73.3554 172.008C73.0381 171.709 72.6181 171.56 72.0954 171.56C71.2087 171.56 70.6487 171.91 70.4154 172.61H69.2954C69.4634 171.957 69.7947 171.457 70.2894 171.112C70.7841 170.757 71.3861 170.58 72.0954 170.58C72.9634 170.58 73.6447 170.818 74.1394 171.294C74.6434 171.761 74.8954 172.386 74.8954 173.17V178H74.0554L73.9154 177.02H73.8454C73.6867 177.3 73.4021 177.557 72.9914 177.79C72.5807 178.023 72.1187 178.14 71.6054 178.14ZM76.7788 178V170.72H77.8288V174.15L81.2588 170.72H82.5888L79.0188 174.29L82.7988 178H81.4688L77.8288 174.43V178H76.7788ZM85.6054 177.16C86.2867 177.16 86.8281 176.969 87.2294 176.586C87.6401 176.194 87.8454 175.709 87.8454 175.13V174.64H85.8154C85.2647 174.64 84.8447 174.752 84.5554 174.976C84.2754 175.2 84.1354 175.508 84.1354 175.9C84.1354 176.283 84.2661 176.591 84.5274 176.824C84.7887 177.048 85.1481 177.16 85.6054 177.16ZM85.6054 178.14C84.8494 178.14 84.2381 177.93 83.7714 177.51C83.3141 177.081 83.0854 176.544 83.0854 175.9C83.0854 175.247 83.3281 174.71 83.8134 174.29C84.2987 173.87 84.9661 173.66 85.8154 173.66H87.8454V173.17C87.8454 172.685 87.6821 172.297 87.3554 172.008C87.0381 171.709 86.6181 171.56 86.0954 171.56C85.2087 171.56 84.6487 171.91 84.4154 172.61H83.2954C83.4634 171.957 83.7947 171.457 84.2894 171.112C84.7841 170.757 85.3861 170.58 86.0954 170.58C86.9634 170.58 87.6447 170.818 88.1394 171.294C88.6434 171.761 88.8954 172.386 88.8954 173.17V178H88.0554L87.9154 177.02H87.8454C87.6867 177.3 87.4021 177.557 86.9914 177.79C86.5807 178.023 86.1187 178.14 85.6054 178.14ZM93.0888 178.14C92.3048 178.14 91.6562 177.967 91.1428 177.622C90.6295 177.267 90.3215 176.763 90.2188 176.11H91.2688C91.3342 176.446 91.5348 176.707 91.8708 176.894C92.2068 177.071 92.6128 177.16 93.0888 177.16C93.6582 177.16 94.0922 177.057 94.3908 176.852C94.6895 176.647 94.8388 176.376 94.8388 176.04C94.8388 175.704 94.6895 175.424 94.3908 175.2C94.0922 174.967 93.6582 174.85 93.0888 174.85H92.4588V173.87H93.0888C93.6022 173.87 93.9988 173.763 94.2788 173.548C94.5588 173.333 94.6988 173.044 94.6988 172.68C94.6988 172.353 94.5542 172.087 94.2648 171.882C93.9848 171.667 93.5928 171.56 93.0888 171.56C92.1088 171.56 91.5488 171.91 91.4088 172.61H90.3588C90.4615 171.957 90.7555 171.457 91.2408 171.112C91.7262 170.757 92.3422 170.58 93.0888 170.58C93.9102 170.58 94.5588 170.776 95.0348 171.168C95.5108 171.56 95.7488 172.064 95.7488 172.68C95.7488 173.053 95.6322 173.399 95.3988 173.716C95.1655 174.033 94.8855 174.248 94.5588 174.36C94.9322 174.472 95.2448 174.682 95.4968 174.99C95.7582 175.289 95.8888 175.639 95.8888 176.04C95.8888 176.665 95.6462 177.174 95.1608 177.566C94.6848 177.949 93.9942 178.14 93.0888 178.14ZM100.433 178.14C99.4254 178.14 98.6134 177.809 97.9974 177.146C97.3814 176.483 97.0734 175.555 97.0734 174.36C97.0734 173.165 97.3767 172.237 97.9834 171.574C98.5994 170.911 99.3927 170.58 100.363 170.58C100.895 170.58 101.376 170.687 101.805 170.902C102.244 171.107 102.594 171.378 102.855 171.714C103.117 172.05 103.313 172.409 103.443 172.792C103.583 173.175 103.653 173.557 103.653 173.94L103.583 174.64H98.1234C98.1607 175.452 98.3894 176.077 98.8094 176.516C99.2387 176.945 99.78 177.16 100.433 177.16C101.273 177.16 101.903 176.81 102.323 176.11H103.443C103.201 176.763 102.813 177.267 102.281 177.622C101.759 177.967 101.143 178.14 100.433 178.14ZM98.1234 173.73H102.603C102.538 173.049 102.3 172.517 101.889 172.134C101.479 171.751 100.97 171.56 100.363 171.56C99.7567 171.56 99.248 171.751 98.8374 172.134C98.4267 172.517 98.1887 173.049 98.1234 173.73ZM113.78 177.146C113.164 177.809 112.352 178.14 111.344 178.14C110.336 178.14 109.524 177.809 108.908 177.146C108.292 176.483 107.984 175.555 107.984 174.36C107.984 173.165 108.292 172.237 108.908 171.574C109.524 170.911 110.336 170.58 111.344 170.58C112.352 170.58 113.164 170.911 113.78 171.574C114.396 172.237 114.704 173.165 114.704 174.36C114.704 175.555 114.396 176.483 113.78 177.146ZM109.664 176.432C110.093 176.917 110.653 177.16 111.344 177.16C112.034 177.16 112.59 176.917 113.01 176.432C113.439 175.937 113.654 175.247 113.654 174.36C113.654 173.473 113.439 172.787 113.01 172.302C112.59 171.807 112.034 171.56 111.344 171.56C110.653 171.56 110.093 171.807 109.664 172.302C109.244 172.787 109.034 173.473 109.034 174.36C109.034 175.247 109.244 175.937 109.664 176.432ZM117.724 178V171.7H115.274V170.72H121.294V171.7H118.774V178H117.724ZM126.592 176.502C127.003 176.894 127.544 177.09 128.216 177.09C128.888 177.09 129.43 176.894 129.84 176.502C130.251 176.11 130.456 175.583 130.456 174.92C130.456 174.257 130.251 173.73 129.84 173.338C129.43 172.946 128.888 172.75 128.216 172.75C127.544 172.75 127.003 172.946 126.592 173.338C126.182 173.73 125.976 174.257 125.976 174.92C125.976 175.583 126.182 176.11 126.592 176.502ZM128.216 178.14C127.171 178.14 126.336 177.832 125.71 177.216C125.094 176.6 124.786 175.765 124.786 174.71C124.786 173.795 125.113 172.815 125.766 171.77L128.006 168.2H129.336L126.746 172.19H126.816C127.208 171.863 127.722 171.7 128.356 171.7C129.336 171.7 130.13 171.999 130.736 172.596C131.343 173.193 131.646 173.968 131.646 174.92C131.646 175.844 131.329 176.614 130.694 177.23C130.069 177.837 129.243 178.14 128.216 178.14ZM139.851 176.838C139.123 177.706 138.162 178.14 136.967 178.14C135.773 178.14 134.807 177.706 134.069 176.838C133.341 175.97 132.977 174.724 132.977 173.1C132.977 171.476 133.341 170.23 134.069 169.362C134.807 168.494 135.773 168.06 136.967 168.06C138.162 168.06 139.123 168.494 139.851 169.362C140.589 170.23 140.957 171.476 140.957 173.1C140.957 174.724 140.589 175.97 139.851 176.838ZM134.951 176.082C135.474 176.754 136.146 177.09 136.967 177.09C137.789 177.09 138.461 176.754 138.983 176.082C139.506 175.401 139.767 174.407 139.767 173.1C139.767 171.793 139.506 170.804 138.983 170.132C138.461 169.451 137.789 169.11 136.967 169.11C136.146 169.11 135.474 169.451 134.951 170.132C134.429 170.804 134.167 171.793 134.167 173.1C134.167 174.407 134.429 175.401 134.951 176.082ZM149.23 176.838C148.502 177.706 147.541 178.14 146.346 178.14C145.152 178.14 144.186 177.706 143.448 176.838C142.72 175.97 142.356 174.724 142.356 173.1C142.356 171.476 142.72 170.23 143.448 169.362C144.186 168.494 145.152 168.06 146.346 168.06C147.541 168.06 148.502 168.494 149.23 169.362C149.968 170.23 150.336 171.476 150.336 173.1C150.336 174.724 149.968 175.97 149.23 176.838ZM144.33 176.082C144.853 176.754 145.525 177.09 146.346 177.09C147.168 177.09 147.84 176.754 148.362 176.082C148.885 175.401 149.146 174.407 149.146 173.1C149.146 171.793 148.885 170.804 148.362 170.132C147.84 169.451 147.168 169.11 146.346 169.11C145.525 169.11 144.853 169.451 144.33 170.132C143.808 170.804 143.546 171.793 143.546 173.1C143.546 174.407 143.808 175.401 144.33 176.082ZM155.721 178V176.11H154.461V175.06H155.721V173.94H154.461V172.89H155.721V168.2H159.361C160.323 168.2 161.074 168.466 161.615 168.998C162.166 169.521 162.441 170.211 162.441 171.07C162.441 171.929 162.166 172.624 161.615 173.156C161.074 173.679 160.323 173.94 159.361 173.94H156.911V175.06H159.921V176.11H156.911V178H155.721ZM156.911 172.89H159.291C159.917 172.89 160.397 172.731 160.733 172.414C161.079 172.087 161.251 171.639 161.251 171.07C161.251 170.501 161.079 170.057 160.733 169.74C160.397 169.413 159.917 169.25 159.291 169.25H156.911V172.89Z" fill="#1B1B1B"/>
<path d="M30.9175 65.9283L33.2318 62.4715C33.8371 61.5674 34.0873 60.7337 33.9823 59.9702C33.8773 59.2067 33.4525 58.5757 32.708 58.0773C31.9635 57.5788 31.2182 57.4264 30.4723 57.6202C29.7264 57.814 29.0508 58.3629 28.4455 59.267L26.1312 62.7238L30.9175 65.9283ZM31.8368 72.3203L13.2234 59.8582L21.8578 46.9618L25.4475 49.3652L19.4835 58.2731L22.5414 60.3204L25.2119 56.3318C26.4937 54.4173 28.058 53.2695 29.9048 52.8886C31.7457 52.478 33.5703 52.8781 35.3784 54.0887C37.1866 55.2993 38.2604 56.8398 38.5999 58.7101C38.9335 60.5509 38.4594 62.4286 37.1776 64.3431L31.8368 72.3203Z" fill="#1B1B1B"/>
<path d="M47.9784 52.4194C46.0822 54.1709 44.0645 54.989 41.9253 54.8739C39.7873 54.7287 37.7775 53.6374 35.8957 51.6002C34.014 49.5629 33.0927 47.4807 33.1319 45.3536C33.1722 43.1964 34.1405 41.242 36.0367 39.4906C37.8389 37.826 39.8241 37.0669 41.9922 37.2133C44.1603 37.3598 46.0912 38.3497 47.7847 40.1833L48.8614 41.5847L40.2813 49.5097C42.0832 50.8946 43.7443 50.8851 45.2644 49.481C45.8599 48.931 46.2275 48.4172 46.3673 47.9396C46.507 47.4621 46.5219 46.8965 46.4119 46.243L49.938 42.9862C50.709 44.4812 50.9862 46.0547 50.7697 47.7068C50.5387 49.3431 49.6082 50.914 47.9784 52.4194ZM38.0015 47.0415L43.2906 42.1562C42.6152 41.6765 41.8621 41.4428 41.0313 41.4551C40.2161 41.453 39.4559 41.7776 38.7507 42.4289C37.3716 43.7027 37.1219 45.2402 38.0015 47.0415Z" fill="#1B1B1B"/>
<path d="M60.9228 42.8305C58.6912 44.1278 56.5438 44.4877 54.4809 43.9103C52.4256 43.3037 50.7011 41.8016 49.3073 39.4039C47.9135 37.0063 47.4669 34.7736 47.9676 32.7059C48.476 30.609 49.846 28.9119 52.0776 27.6146C54.0142 26.4889 55.8107 26.0985 57.4671 26.4434C59.1419 26.7776 60.6233 27.6068 61.9112 28.9309L58.0381 31.1824C56.751 30.3267 55.4343 30.2901 54.0879 31.0728C53.092 31.6517 52.4987 32.4778 52.3082 33.5509C52.107 34.6055 52.3977 35.8061 53.1804 37.1524C53.9631 38.4988 54.8678 39.3547 55.8946 39.7202C56.9106 40.0673 57.9166 39.9513 58.9126 39.3724C60.2589 38.5897 60.8788 37.4274 60.7721 35.8855L64.6452 33.634C65.1585 35.4084 65.1459 37.106 64.6076 38.7268C64.0876 40.3368 62.8594 41.7048 60.9228 42.8305Z" fill="#1B1B1B"/>
<path d="M68.4037 38.2281L63.2749 22.0622L77.6107 17.514L82.7395 33.6799L78.4693 35.0347L74.5985 22.834L68.8032 24.6726L72.674 36.8733L68.4037 38.2281Z" fill="#1B1B1B"/>
<path d="M82.5594 33.8169L82.1712 29.3538L82.6494 29.3122C83.6483 29.2253 84.2595 28.7439 84.4832 27.8679C84.7049 26.9706 84.7104 25.3106 84.4997 22.8877L83.9314 16.3524L97.3208 15.1879L98.7903 32.0841L94.3271 32.4723L93.2181 19.7204L88.7549 20.1086L89.0183 23.1371C89.1255 24.3698 89.1667 25.4584 89.1417 26.4027C89.138 27.3453 89.0369 28.2749 88.8382 29.1915C88.6608 30.1063 88.3739 30.8701 87.9775 31.4827C87.5792 32.0741 87.0123 32.5731 86.2768 32.9797C85.5625 33.3844 84.6953 33.6312 83.6751 33.7199L82.5594 33.8169Z" fill="#1B1B1B"/>
<path d="M107.246 29.5679C108.282 29.7034 109.155 29.527 109.864 29.0388C110.597 28.5322 111.026 27.8029 111.151 26.851L111.213 26.375L107.405 25.8775C106.665 25.7807 106.082 25.8767 105.657 26.1654C105.256 26.4357 105.022 26.8247 104.956 27.3324C104.881 27.9036 105.032 28.3966 105.408 28.8115C105.787 29.2052 106.399 29.4574 107.246 29.5679ZM105.658 33.0718C103.86 32.8369 102.496 32.1637 101.565 31.0525C100.635 29.9412 100.27 28.6135 100.472 27.0693C100.677 25.5039 101.402 24.3185 102.647 23.5131C103.917 22.6893 105.588 22.4129 107.661 22.6837L111.627 23.202L111.731 22.4087C111.833 21.6261 111.657 21.0006 111.202 20.5323C110.746 20.0641 110.075 19.7719 109.186 19.6558C108.573 19.5757 108.015 19.6427 107.514 19.8569C107.034 20.0738 106.683 20.3722 106.461 20.752L102.019 20.1715C102.575 18.7166 103.51 17.5695 104.825 16.73C106.16 15.8934 107.833 15.6063 109.842 15.8689C112.085 16.1619 113.758 16.9399 114.862 18.203C115.988 19.4688 116.418 21.1171 116.152 23.1479L114.743 33.9361L110.935 33.4386L110.708 31.4726L110.549 31.4519C109.362 32.8027 107.731 33.3427 105.658 33.0718Z" fill="#1B1B1B"/>
<path d="M119.702 35.5476L123.731 23.3983L118.72 21.7362L120.029 17.7877L134.305 22.5221L132.995 26.4706L127.983 24.8085L123.954 36.9578L119.702 35.5476Z" fill="#1B1B1B"/>
<path d="M128.312 38.3309L136.699 23.5896L140.593 25.805L137.428 31.3677L142.713 34.3743L145.877 28.8115L149.771 31.0269L141.385 45.7682L137.491 43.5528L140.655 37.9901L135.371 34.9835L132.206 40.5463L128.312 38.3309Z" fill="#1B1B1B"/>
<path d="M149.424 48.2826C150.201 48.9817 151.02 49.3311 151.881 49.3309C152.772 49.329 153.539 48.9712 154.181 48.2575L154.502 47.9006L151.647 45.3326C151.092 44.8333 150.557 44.5821 150.044 44.5791C149.56 44.5745 149.147 44.7625 148.805 45.1431C148.419 45.5714 148.264 46.063 148.339 46.618C148.428 47.1571 148.789 47.712 149.424 48.2826ZM146.13 50.2697C144.782 49.057 144.039 47.7292 143.903 46.2862C143.766 44.8433 144.218 43.5429 145.26 42.385C146.315 41.2113 147.585 40.6457 149.067 40.6881C150.58 40.7289 152.114 41.4483 153.668 42.8465L156.642 45.5215L157.177 44.9267C157.705 44.3398 157.914 43.7245 157.804 43.0808C157.695 42.437 157.307 41.8155 156.641 41.2163C156.181 40.8026 155.684 40.5419 155.149 40.4342C154.631 40.3408 154.172 40.3877 153.774 40.5749L150.444 37.5789C151.726 36.6953 153.147 36.2803 154.706 36.3337C156.28 36.4015 157.821 37.113 159.328 38.4683C161.009 39.9806 161.947 41.57 162.14 43.2365C162.35 44.9173 161.77 46.519 160.401 48.0417L153.125 56.1308L150.27 53.5628L151.197 51.8143L151.078 51.7073C149.334 52.147 147.685 51.6678 146.13 50.2697Z" fill="#1B1B1B"/>
<path d="M153.512 56.3386L160.726 55.9301C160.483 54.8679 160.548 53.832 160.923 52.8225C161.31 51.8302 161.988 50.9834 162.955 50.2821C164.371 49.2552 165.822 48.8754 167.306 49.1426C168.791 49.4098 170.054 50.2601 171.093 51.6936L175.977 58.4293L162.247 68.3851L159.617 64.7582L164.15 61.4709L163.117 60.046L156.517 60.4836L153.512 56.3386ZM165.416 56.4026L167.389 59.1228L170.109 57.1504L168.137 54.4303C167.385 53.394 166.534 53.2203 165.585 53.909C164.721 54.5352 164.665 55.3664 165.416 56.4026Z" fill="#1B1B1B"/>
</svg>
