<svg width="198" height="181" viewBox="0 0 198 181" fill="none" xmlns="http://www.w3.org/2000/svg">
<circle cx="100" cy="96" r="36" fill="#E07153"/>
<rect x="114" y="84" width="29" height="21" fill="white"/>
<path d="M106.33 78H149V81H106.33V78Z" fill="white"/>
<path fill-rule="evenodd" clip-rule="evenodd" d="M120.167 60.133C118.891 60.4126 117.939 60.9507 117.053 61.8936C115.4 63.6528 115.018 66.2702 116.094 68.4681L116.38 69.0516L119.118 69.0443L121.856 69.0369L121.005 68.8214C119.914 68.5451 119.483 68.3216 119.011 67.7876C118.049 66.6997 118.076 64.9388 119.071 63.8101C119.492 63.3336 120.36 62.9004 121.037 62.83C122.083 62.7213 123.114 63.1463 123.675 63.9176C124.178 64.6091 124.711 66.2696 124.993 68.0246L125.15 69.0049L126.542 69.0309L127.934 69.0568L127.876 68.3658C127.749 66.8812 127.049 64.2508 126.479 63.1259C125.306 60.8068 122.71 59.5758 120.167 60.133ZM133.347 60.14C132.388 60.3449 131.258 60.9497 130.589 61.6163C129.437 62.7625 128.556 65.0395 128.142 67.9421C128.066 68.4754 128.003 68.9431 128.002 68.9816C128.001 69.0201 128.632 69.0516 129.405 69.0516C130.788 69.0516 130.811 69.0483 130.851 68.8416C130.873 68.7261 130.956 68.2323 131.036 67.7445C131.329 65.9618 131.987 64.1683 132.559 63.5989C133.336 62.8257 134.834 62.5955 135.888 63.0873C137.713 63.939 138.245 66.3165 136.948 67.8251C136.524 68.3177 136.073 68.5481 134.995 68.8221L134.144 69.0384L136.865 69.0217L139.585 69.0049L139.888 68.398C140.362 67.4508 140.506 66.7413 140.455 65.5981C140.422 64.859 140.35 64.4442 140.164 63.9185C139.188 61.1584 136.236 59.5224 133.347 60.14ZM104.633 72.0647C104.018 72.4732 103.978 72.6676 104.007 75.044C104.035 77.3701 104.041 77.3958 104.678 77.8693L104.938 78.0618H128H151.062L151.322 77.8693C151.959 77.3958 151.965 77.3701 151.993 75.044C152.022 72.6676 151.982 72.4732 151.367 72.0647L151.048 71.8527H128H104.952L104.633 72.0647ZM106.331 92.4361C106.331 100.552 106.362 104.109 106.435 104.457C106.773 106.057 108.073 107.35 109.689 107.694C112.53 108.299 145.599 107.845 146.311 107.696C147.903 107.362 149.232 106.039 149.565 104.457C149.638 104.11 149.669 100.52 149.669 92.4361V80.9096H128H106.331V92.4361ZM121.611 86.0506C123.128 86.3988 124.455 87.7195 124.805 89.2299C125.34 91.5393 123.746 93.8699 121.353 94.2784C119.589 94.5795 117.757 93.655 116.95 92.0557C116.096 90.3645 116.388 88.5451 117.728 87.2117C118.785 86.1598 120.218 85.7311 121.611 86.0506ZM132.405 86.6285C133.051 86.9582 133.363 87.8154 133.053 88.4087C132.713 89.0576 125.41 101.621 125.287 101.768C125.206 101.865 124.957 102.026 124.736 102.124C123.569 102.644 122.401 101.359 122.995 100.209C123.553 99.13 130.605 87.0685 130.8 86.8595C131.227 86.4016 131.8 86.3192 132.405 86.6285ZM120.025 88.9229C119.656 89.1152 119.276 89.7548 119.276 90.1836C119.276 90.8406 120.026 91.5537 120.717 91.5537C121.161 91.5537 121.695 91.2125 121.912 90.789C122.537 89.5685 121.243 88.2883 120.025 88.9229ZM136.325 94.4874C137.991 94.929 139.175 96.2258 139.469 97.9315C139.766 99.6579 138.761 101.553 137.15 102.303C135.45 103.095 133.652 102.795 132.355 101.504C130.626 99.7835 130.681 97.1148 132.479 95.472C133.532 94.5099 134.996 94.1352 136.325 94.4874ZM134.681 97.3112C134.012 97.639 133.72 98.5547 134.075 99.21C134.267 99.5643 134.915 99.957 135.307 99.957C135.763 99.957 136.325 99.5981 136.531 99.1749C136.769 98.6857 136.771 98.4348 136.541 97.9317C136.234 97.259 135.373 96.9716 134.681 97.3112Z" fill="#1B1B1B"/>
<path d="M76.968 155.9C77.2667 156.227 77.6773 156.39 78.2 156.39C78.7227 156.39 79.1333 156.227 79.432 155.9C79.7307 155.573 79.88 155.13 79.88 154.57C79.88 154.01 79.7307 153.567 79.432 153.24C79.1333 152.913 78.7227 152.75 78.2 152.75C77.6773 152.75 77.2667 152.913 76.968 153.24C76.6693 153.567 76.52 154.01 76.52 154.57C76.52 155.13 76.6693 155.573 76.968 155.9ZM78.2 158.14C77.052 158.14 76.156 157.781 75.512 157.062C74.8773 156.343 74.56 155.279 74.56 153.87C74.56 151.975 74.8867 150.547 75.54 149.586C76.2027 148.615 77.1827 148.13 78.48 148.13C79.6933 148.13 80.6267 147.967 81.28 147.64V149.53C80.7853 149.81 79.922 149.95 78.69 149.95C77.3833 149.95 76.6133 150.603 76.38 151.91H76.45C76.8513 151.35 77.5747 151.07 78.62 151.07C79.5813 151.07 80.356 151.387 80.944 152.022C81.5413 152.647 81.84 153.497 81.84 154.57C81.84 155.662 81.5133 156.53 80.86 157.174C80.2067 157.818 79.32 158.14 78.2 158.14ZM89.1162 157.132C88.4722 157.804 87.5855 158.14 86.4562 158.14C85.3268 158.14 84.4355 157.804 83.7822 157.132C83.1382 156.451 82.8162 155.503 82.8162 154.29C82.8162 153.077 83.1382 152.134 83.7822 151.462C84.4355 150.781 85.3268 150.44 86.4562 150.44C87.5855 150.44 88.4722 150.781 89.1162 151.462C89.7695 152.134 90.0962 153.077 90.0962 154.29C90.0962 155.503 89.7695 156.451 89.1162 157.132ZM85.2522 155.872C85.5695 156.217 85.9708 156.39 86.4562 156.39C86.9415 156.39 87.3428 156.217 87.6602 155.872C87.9775 155.517 88.1362 154.99 88.1362 154.29C88.1362 153.59 87.9775 153.067 87.6602 152.722C87.3428 152.367 86.9415 152.19 86.4562 152.19C85.9708 152.19 85.5695 152.367 85.2522 152.722C84.9348 153.067 84.7762 153.59 84.7762 154.29C84.7762 154.99 84.9348 155.517 85.2522 155.872ZM91.424 158V150.58H93.384V153.38H96.044V150.58H98.004V158H96.044V155.2H93.384V158H91.424ZM100.662 160.8L101.796 158L98.7718 150.58H100.942L102.762 155.41H102.818L104.582 150.58H106.752L102.692 160.8H100.662ZM110.669 158.14C109.54 158.14 108.648 157.804 107.995 157.132C107.351 156.451 107.029 155.503 107.029 154.29C107.029 153.077 107.351 152.134 107.995 151.462C108.648 150.781 109.54 150.44 110.669 150.44C111.649 150.44 112.414 150.687 112.965 151.182C113.525 151.677 113.903 152.316 114.099 153.1H112.139C111.84 152.493 111.35 152.19 110.669 152.19C110.165 152.19 109.759 152.372 109.451 152.736C109.143 153.091 108.989 153.609 108.989 154.29C108.989 154.971 109.143 155.494 109.451 155.858C109.759 156.213 110.165 156.39 110.669 156.39C111.35 156.39 111.84 156.087 112.139 155.48H114.099C113.903 156.264 113.525 156.903 112.965 157.398C112.414 157.893 111.649 158.14 110.669 158.14ZM117.323 156.25H118.443C119.05 156.25 119.353 155.97 119.353 155.41C119.353 155.167 119.269 154.981 119.101 154.85C118.943 154.71 118.723 154.64 118.443 154.64H117.323V156.25ZM115.363 158V150.58H117.323V152.89H118.723C119.489 152.89 120.109 153.128 120.585 153.604C121.071 154.071 121.313 154.673 121.313 155.41C121.313 156.185 121.071 156.81 120.585 157.286C120.109 157.762 119.489 158 118.723 158H115.363ZM122.013 158V150.58H123.973V158H122.013Z" fill="#1B1B1B"/>
<path d="M2.84095 176.502C3.25161 176.941 3.79761 177.16 4.47895 177.16C5.16028 177.16 5.70161 176.941 6.10295 176.502C6.51361 176.054 6.71895 175.433 6.71895 174.64C6.71895 173.847 6.51361 173.231 6.10295 172.792C5.70161 172.344 5.16028 172.12 4.47895 172.12C3.79761 172.12 3.25161 172.344 2.84095 172.792C2.43961 173.231 2.23895 173.847 2.23895 174.64C2.23895 175.433 2.43961 176.054 2.84095 176.502ZM4.47895 178.14C3.46161 178.14 2.64495 177.795 2.02895 177.104C1.42228 176.413 1.11895 175.405 1.11895 174.08C1.11895 172.111 1.41295 170.673 2.00095 169.768C2.59828 168.863 3.51761 168.41 4.75895 168.41C5.83228 168.41 6.69561 168.247 7.34895 167.92V168.9C6.78895 169.18 5.97228 169.32 4.89895 169.32C3.33095 169.32 2.44428 170.3 2.23895 172.26H2.30895C2.85028 171.513 3.64361 171.14 4.68895 171.14C5.61295 171.14 6.35495 171.448 6.91495 172.064C7.48428 172.68 7.76895 173.539 7.76895 174.64C7.76895 175.741 7.47028 176.6 6.87295 177.216C6.27561 177.832 5.47761 178.14 4.47895 178.14ZM14.8293 177.146C14.2133 177.809 13.4013 178.14 12.3933 178.14C11.3853 178.14 10.5733 177.809 9.95732 177.146C9.34132 176.483 9.03332 175.555 9.03332 174.36C9.03332 173.165 9.34132 172.237 9.95732 171.574C10.5733 170.911 11.3853 170.58 12.3933 170.58C13.4013 170.58 14.2133 170.911 14.8293 171.574C15.4453 172.237 15.7533 173.165 15.7533 174.36C15.7533 175.555 15.4453 176.483 14.8293 177.146ZM10.7133 176.432C11.1427 176.917 11.7027 177.16 12.3933 177.16C13.084 177.16 13.6393 176.917 14.0593 176.432C14.4887 175.937 14.7033 175.247 14.7033 174.36C14.7033 173.473 14.4887 172.787 14.0593 172.302C13.6393 171.807 13.084 171.56 12.3933 171.56C11.7027 171.56 11.1427 171.807 10.7133 172.302C10.2933 172.787 10.0833 173.473 10.0833 174.36C10.0833 175.247 10.2933 175.937 10.7133 176.432ZM17.3677 178V170.72H18.4177V173.87H22.1977V170.72H23.2477V178H22.1977V174.85H18.4177V178H17.3677ZM26.1817 180.8L27.3017 178L24.2917 170.72H25.4117L27.7917 176.53H27.8617L30.1717 170.72H31.2917L27.3017 180.8H26.1817ZM35.2117 178.14C34.2037 178.14 33.3917 177.809 32.7757 177.146C32.1597 176.483 31.8517 175.555 31.8517 174.36C31.8517 173.165 32.1597 172.237 32.7757 171.574C33.3917 170.911 34.2037 170.58 35.2117 170.58C35.921 170.58 36.537 170.757 37.0597 171.112C37.5917 171.457 37.979 171.957 38.2217 172.61H37.1017C36.6817 171.91 36.0517 171.56 35.2117 171.56C34.521 171.56 33.961 171.807 33.5317 172.302C33.1117 172.787 32.9017 173.473 32.9017 174.36C32.9017 175.247 33.1117 175.937 33.5317 176.432C33.961 176.917 34.521 177.16 35.2117 177.16C36.0517 177.16 36.6817 176.81 37.1017 176.11H38.2217C37.979 176.763 37.5917 177.267 37.0597 177.622C36.537 177.967 35.921 178.14 35.2117 178.14ZM39.6939 178V170.72H40.7439V173.87H44.5239V170.72H45.5739V178H44.5239V174.85H40.7439V178H39.6939ZM49.6279 177.16C50.3092 177.16 50.8505 176.969 51.2519 176.586C51.6625 176.194 51.8679 175.709 51.8679 175.13V174.64H49.8379C49.2872 174.64 48.8672 174.752 48.5779 174.976C48.2979 175.2 48.1579 175.508 48.1579 175.9C48.1579 176.283 48.2885 176.591 48.5499 176.824C48.8112 177.048 49.1705 177.16 49.6279 177.16ZM49.6279 178.14C48.8719 178.14 48.2605 177.93 47.7939 177.51C47.3365 177.081 47.1079 176.544 47.1079 175.9C47.1079 175.247 47.3505 174.71 47.8359 174.29C48.3212 173.87 48.9885 173.66 49.8379 173.66H51.8679V173.17C51.8679 172.685 51.7045 172.297 51.3779 172.008C51.0605 171.709 50.6405 171.56 50.1179 171.56C49.2312 171.56 48.6712 171.91 48.4379 172.61H47.3179C47.4859 171.957 47.8172 171.457 48.3119 171.112C48.8065 170.757 49.4085 170.58 50.1179 170.58C50.9859 170.58 51.6672 170.818 52.1619 171.294C52.6659 171.761 52.9179 172.386 52.9179 173.17V178H52.0779L51.9379 177.02H51.8679C51.7092 177.3 51.4245 177.557 51.0139 177.79C50.6032 178.023 50.1412 178.14 49.6279 178.14ZM54.3813 178L56.6213 175.2C56.108 175.2 55.6273 174.999 55.1793 174.598C54.7406 174.187 54.5213 173.641 54.5213 172.96C54.5213 172.297 54.7406 171.761 55.1793 171.35C55.6273 170.93 56.2013 170.72 56.9013 170.72H59.9813V178H58.9313V175.2H57.8113L55.5713 178H54.3813ZM56.9713 174.22H58.9313V171.7H56.9713C56.5513 171.7 56.2106 171.817 55.9493 172.05C55.6973 172.274 55.5713 172.577 55.5713 172.96C55.5713 173.343 55.6973 173.651 55.9493 173.884C56.2106 174.108 56.5513 174.22 56.9713 174.22ZM68.0242 178.14C67.0162 178.14 66.2042 177.809 65.5882 177.146C64.9722 176.483 64.6642 175.555 64.6642 174.36C64.6642 173.165 64.9722 172.237 65.5882 171.574C66.2042 170.911 67.0162 170.58 68.0242 170.58C68.7335 170.58 69.3495 170.757 69.8722 171.112C70.4042 171.457 70.7915 171.957 71.0342 172.61H69.9142C69.4942 171.91 68.8642 171.56 68.0242 171.56C67.3335 171.56 66.7735 171.807 66.3442 172.302C65.9242 172.787 65.7142 173.473 65.7142 174.36C65.7142 175.247 65.9242 175.937 66.3442 176.432C66.7735 176.917 67.3335 177.16 68.0242 177.16C68.8642 177.16 69.4942 176.81 69.9142 176.11H71.0342C70.7915 176.763 70.4042 177.267 69.8722 177.622C69.3495 177.967 68.7335 178.14 68.0242 178.14ZM72.5064 178V170.72H73.5564V176.684H73.6264L77.1264 170.72H78.5264V178H77.4764V172.036H77.4064L73.9064 178H72.5064ZM83.5007 178.14C82.4927 178.14 81.6807 177.809 81.0647 177.146C80.4487 176.483 80.1407 175.555 80.1407 174.36C80.1407 173.165 80.4487 172.237 81.0647 171.574C81.6807 170.911 82.4927 170.58 83.5007 170.58C84.2101 170.58 84.8261 170.757 85.3487 171.112C85.8807 171.457 86.2681 171.957 86.5107 172.61H85.3907C84.9707 171.91 84.3407 171.56 83.5007 171.56C82.8101 171.56 82.2501 171.807 81.8207 172.302C81.4007 172.787 81.1907 173.473 81.1907 174.36C81.1907 175.247 81.4007 175.937 81.8207 176.432C82.2501 176.917 82.8101 177.16 83.5007 177.16C84.3407 177.16 84.9707 176.81 85.3907 176.11H86.5107C86.2681 176.763 85.8807 177.267 85.3487 177.622C84.8261 177.967 84.2101 178.14 83.5007 178.14ZM89.3895 178V171.7H86.9395V170.72H92.9595V171.7H90.4395V178H89.3895ZM96.8855 178.14C95.8775 178.14 95.0655 177.809 94.4495 177.146C93.8335 176.483 93.5255 175.555 93.5255 174.36C93.5255 173.165 93.8288 172.237 94.4355 171.574C95.0515 170.911 95.8448 170.58 96.8155 170.58C97.3475 170.58 97.8282 170.687 98.2575 170.902C98.6962 171.107 99.0462 171.378 99.3075 171.714C99.5688 172.05 99.7648 172.409 99.8955 172.792C100.036 173.175 100.106 173.557 100.106 173.94L100.036 174.64H94.5755C94.6128 175.452 94.8415 176.077 95.2615 176.516C95.6908 176.945 96.2322 177.16 96.8855 177.16C97.7255 177.16 98.3555 176.81 98.7755 176.11H99.8955C99.6528 176.763 99.2655 177.267 98.7335 177.622C98.2108 177.967 97.5948 178.14 96.8855 178.14ZM94.5755 173.73H99.0555C98.9902 173.049 98.7522 172.517 98.3415 172.134C97.9308 171.751 97.4222 171.56 96.8155 171.56C96.2088 171.56 95.7002 171.751 95.2895 172.134C94.8788 172.517 94.6408 173.049 94.5755 173.73ZM101.709 178V170.72H103.249L105.559 176.53H105.629L107.939 170.72H109.479V178H108.429V172.26H108.359L106.049 178H105.139L102.829 172.26H102.759V178H101.709ZM113.544 177.16C114.225 177.16 114.767 176.969 115.168 176.586C115.579 176.194 115.784 175.709 115.784 175.13V174.64H113.754C113.203 174.64 112.783 174.752 112.494 174.976C112.214 175.2 112.074 175.508 112.074 175.9C112.074 176.283 112.205 176.591 112.466 176.824C112.727 177.048 113.087 177.16 113.544 177.16ZM113.544 178.14C112.788 178.14 112.177 177.93 111.71 177.51C111.253 177.081 111.024 176.544 111.024 175.9C111.024 175.247 111.267 174.71 111.752 174.29C112.237 173.87 112.905 173.66 113.754 173.66H115.784V173.17C115.784 172.685 115.621 172.297 115.294 172.008C114.977 171.709 114.557 171.56 114.034 171.56C113.147 171.56 112.587 171.91 112.354 172.61H111.234C111.402 171.957 111.733 171.457 112.228 171.112C112.723 170.757 113.325 170.58 114.034 170.58C114.902 170.58 115.583 170.818 116.078 171.294C116.582 171.761 116.834 172.386 116.834 173.17V178H115.994L115.854 177.02H115.784C115.625 177.3 115.341 177.557 114.93 177.79C114.519 178.023 114.057 178.14 113.544 178.14ZM123.123 178V170.51H121.233V169.46H122.563C122.937 169.46 123.123 169.273 123.123 168.9V168.2H124.313V178H123.123ZM130.189 178V176.11H128.929V175.06H130.189V173.94H128.929V172.89H130.189V168.2H133.829C134.79 168.2 135.542 168.466 136.083 168.998C136.634 169.521 136.909 170.211 136.909 171.07C136.909 171.929 136.634 172.624 136.083 173.156C135.542 173.679 134.79 173.94 133.829 173.94H131.379V175.06H134.389V176.11H131.379V178H130.189ZM131.379 172.89H133.759C134.384 172.89 134.865 172.731 135.201 172.414C135.546 172.087 135.719 171.639 135.719 171.07C135.719 170.501 135.546 170.057 135.201 169.74C134.865 169.413 134.384 169.25 133.759 169.25H131.379V172.89ZM141.239 175.69V174.71H147.889V175.69H141.239ZM141.239 172.82V171.84H147.889V172.82H141.239ZM153.831 178V170.51H151.941V169.46H153.271C153.644 169.46 153.831 169.273 153.831 168.9V168.2H155.021V178H153.831ZM161.708 176.502C162.119 176.941 162.665 177.16 163.346 177.16C164.027 177.16 164.569 176.941 164.97 176.502C165.381 176.054 165.586 175.433 165.586 174.64C165.586 173.847 165.381 173.231 164.97 172.792C164.569 172.344 164.027 172.12 163.346 172.12C162.665 172.12 162.119 172.344 161.708 172.792C161.307 173.231 161.106 173.847 161.106 174.64C161.106 175.433 161.307 176.054 161.708 176.502ZM163.346 178.14C162.329 178.14 161.512 177.795 160.896 177.104C160.289 176.413 159.986 175.405 159.986 174.08C159.986 172.111 160.28 170.673 160.868 169.768C161.465 168.863 162.385 168.41 163.626 168.41C164.699 168.41 165.563 168.247 166.216 167.92V168.9C165.656 169.18 164.839 169.32 163.766 169.32C162.198 169.32 161.311 170.3 161.106 172.26H161.176C161.717 171.513 162.511 171.14 163.556 171.14C164.48 171.14 165.222 171.448 165.782 172.064C166.351 172.68 166.636 173.539 166.636 174.64C166.636 175.741 166.337 176.6 165.74 177.216C165.143 177.832 164.345 178.14 163.346 178.14ZM173.697 177.146C173.081 177.809 172.269 178.14 171.261 178.14C170.253 178.14 169.441 177.809 168.825 177.146C168.209 176.483 167.901 175.555 167.901 174.36C167.901 173.165 168.209 172.237 168.825 171.574C169.441 170.911 170.253 170.58 171.261 170.58C172.269 170.58 173.081 170.911 173.697 171.574C174.313 172.237 174.621 173.165 174.621 174.36C174.621 175.555 174.313 176.483 173.697 177.146ZM169.581 176.432C170.01 176.917 170.57 177.16 171.261 177.16C171.951 177.16 172.507 176.917 172.927 176.432C173.356 175.937 173.571 175.247 173.571 174.36C173.571 173.473 173.356 172.787 172.927 172.302C172.507 171.807 171.951 171.56 171.261 171.56C170.57 171.56 170.01 171.807 169.581 172.302C169.161 172.787 168.951 173.473 168.951 174.36C168.951 175.247 169.161 175.937 169.581 176.432ZM176.235 178V170.72H177.285V173.87H181.065V170.72H182.115V178H181.065V174.85H177.285V178H176.235ZM185.049 180.8L186.169 178L183.159 170.72H184.279L186.659 176.53H186.729L189.039 170.72H190.159L186.169 180.8H185.049ZM194.079 178.14C193.071 178.14 192.259 177.809 191.643 177.146C191.027 176.483 190.719 175.555 190.719 174.36C190.719 173.165 191.027 172.237 191.643 171.574C192.259 170.911 193.071 170.58 194.079 170.58C194.788 170.58 195.404 170.757 195.927 171.112C196.459 171.457 196.846 171.957 197.089 172.61H195.969C195.549 171.91 194.919 171.56 194.079 171.56C193.388 171.56 192.828 171.807 192.399 172.302C191.979 172.787 191.769 173.473 191.769 174.36C191.769 175.247 191.979 175.937 192.399 176.432C192.828 176.917 193.388 177.16 194.079 177.16C194.919 177.16 195.549 176.81 195.969 176.11H197.089C196.846 176.763 196.459 177.267 195.927 177.622C195.404 177.967 194.788 178.14 194.079 178.14Z" fill="#1B1B1B"/>
<path d="M43.8405 56.9971L29.0179 40.2027L42.6934 28.1329L57.5159 44.9273L53.9171 48.1036L41.9532 34.5481L35.4754 40.2653L47.4393 53.8208L43.8405 56.9971Z" fill="#1B1B1B"/>
<path d="M70.0324 36.1363C69.4361 38.1785 67.9932 39.7956 65.7036 40.9877C63.414 42.1798 61.2523 42.4395 59.2184 41.7667C57.1935 41.0652 55.5407 39.4845 54.26 37.0246C52.9792 34.5647 52.637 32.3137 53.2332 30.2715C53.8386 28.2006 55.2861 26.569 57.5756 25.3769C59.8652 24.1848 62.0224 23.9395 64.0473 24.6411C66.0812 25.3138 67.7385 26.8801 69.0193 29.34C70.3 31.7999 70.6377 34.0653 70.0324 36.1363ZM60.8686 37.6605C61.8765 38.0257 62.8724 37.9521 63.8563 37.4398C64.8403 36.9275 65.4717 36.1538 65.7505 35.1187C66.0195 34.0647 65.7845 32.8281 65.0456 31.4089C64.3067 29.9898 63.4333 29.0976 62.4254 28.7325C61.4077 28.3484 60.4069 28.4125 59.4229 28.9248C58.439 29.4371 57.8125 30.2203 57.5435 31.2743C57.2647 32.3094 57.4947 33.5365 58.2336 34.9557C58.9725 36.3748 59.8509 37.2765 60.8686 37.6605Z" fill="#1B1B1B"/>
<path d="M72.5485 40.8831L70.5297 33.142L72.0779 32.7383C72.3338 31.944 72.4496 31.1201 72.4254 30.2666C72.4165 29.387 72.2156 28.1938 71.8226 26.6869L70.0864 20.0295L83.0915 16.6379L86.3215 29.0237L88.3342 28.4988L90.353 36.2399L86.1728 37.33L85.2038 33.6143L75.7597 36.0772L76.7287 39.793L72.5485 40.8831ZM76.2581 31.6481L81.9865 30.1542L79.8062 21.7938L75.4712 22.9244L76.1576 25.5563C76.7282 27.7445 76.7617 29.7751 76.2581 31.6481Z" fill="#1B1B1B"/>
<path d="M96.2857 28.9635C97.3305 28.9279 98.1628 28.6115 98.7829 28.014C99.4235 27.3945 99.7275 26.6051 99.6949 25.6456L99.6786 25.1659L95.8408 25.2965C95.0945 25.3219 94.5353 25.5117 94.1632 25.8659C93.8116 26.198 93.6445 26.6199 93.6619 27.1316C93.6815 27.7073 93.9107 28.1691 94.3494 28.5171C94.7875 28.8437 95.4329 28.9925 96.2857 28.9635ZM95.2915 32.6794C93.4792 32.7411 92.0234 32.2997 90.9239 31.3552C89.8245 30.4107 89.2483 29.1602 89.1954 27.6038C89.1417 26.026 89.6636 24.7382 90.7609 23.7403C91.8789 22.7204 93.4826 22.1749 95.5721 22.1038L99.5698 21.9678L99.5426 21.1682C99.5157 20.3794 99.2396 19.7911 98.7141 19.4034C98.1886 19.0157 97.4781 18.8371 96.5826 18.8675C95.9643 18.8886 95.4253 19.0457 94.9657 19.3388C94.5274 19.6312 94.2298 19.9829 94.0731 20.3938L89.5956 20.5461C89.9066 19.02 90.642 17.7356 91.8019 16.6928C92.9831 15.6494 94.5865 15.0932 96.612 15.0243C98.872 14.9474 100.65 15.4419 101.945 16.5078C103.262 17.573 103.956 19.129 104.025 21.1758L104.395 32.0495L100.558 32.1801L100.013 30.2775L99.8527 30.283C98.9013 31.8095 97.381 32.6083 95.2915 32.6794Z" fill="#1B1B1B"/>
<path d="M104.687 38.3155L109.052 15.3669L112.825 16.0844L112.937 18.0603L113.095 18.0902C114.631 16.8623 116.342 16.4277 118.229 16.7865C120.408 17.201 122.015 18.2883 123.048 20.0484C124.085 21.7875 124.341 24.0403 123.815 26.8067C123.289 29.5731 122.222 31.5852 120.614 32.8431C119.011 34.0799 117.12 34.4911 114.94 34.0765C112.991 33.7058 111.601 32.7357 110.77 31.1662L110.613 31.1363L109.089 39.1526L104.687 38.3155ZM112.262 28.2903C112.827 29.2012 113.655 29.7603 114.744 29.9676C115.834 30.1749 116.809 29.9586 117.669 29.3187C118.533 28.6578 119.115 27.5414 119.414 25.9696C119.713 24.3978 119.579 23.1564 119.014 22.2455C118.453 21.3135 117.628 20.7439 116.538 20.5367C115.448 20.3294 114.471 20.5562 113.607 21.217C112.747 21.857 112.168 22.9628 111.869 24.5346C111.57 26.1065 111.701 27.3583 112.262 28.2903Z" fill="#1B1B1B"/>
<path d="M122.719 35.3242L129.615 19.8293L133.708 21.6508L129.544 31.0062L129.691 31.0713L139.409 24.1879L143.94 26.2045L137.045 41.6994L132.952 39.8779L137.18 30.3763L137.034 30.3113L127.251 37.3409L122.719 35.3242Z" fill="#1B1B1B"/>
<path d="M138.475 42.1687L149.063 28.9197L153.937 32.8153L150.519 42.9871L150.644 43.0869L159.812 37.5099L164.687 41.4055L154.099 54.6545L150.599 51.8577L157.191 43.6083L157.066 43.5084L147.474 49.3605L145.099 47.4627L148.692 36.816L148.567 36.7161L141.975 44.9655L138.475 42.1687Z" fill="#1B1B1B"/>
</svg>
