<svg width="198" height="181" viewBox="0 0 198 181" fill="none" xmlns="http://www.w3.org/2000/svg">
<circle cx="99" cy="96" r="36" fill="#E07153"/>
<path fill-rule="evenodd" clip-rule="evenodd" d="M134.62 67.0552C135.219 71.2311 135.109 75.4816 134.296 79.6193L104.456 81L103.93 80.1164L103 78.5562C115.041 71.1972 120.907 69.858 134.62 67V67.0552ZM113.989 75.9467C114.164 75.9385 114.337 75.984 114.487 76.0774C114.636 76.1709 114.755 76.308 114.827 76.4711C114.9 76.6342 114.923 76.8158 114.894 76.9925C114.865 77.1692 114.785 77.3329 114.664 77.4626C114.543 77.5923 114.387 77.682 114.216 77.7201C114.045 77.7582 113.867 77.743 113.704 77.6765C113.542 77.61 113.403 77.4951 113.304 77.3468C113.206 77.1985 113.153 77.0234 113.153 76.8442C113.15 76.6122 113.235 76.3879 113.392 76.22C113.548 76.0521 113.763 75.954 113.989 75.9467ZM114.178 75.0769C114.485 75.0631 114.788 75.1436 115.05 75.308C115.311 75.4723 115.519 75.713 115.645 75.9992C115.772 76.2853 115.812 76.6037 115.761 76.9134C115.709 77.2232 115.569 77.51 115.356 77.7371C115.144 77.9642 114.871 78.1211 114.571 78.1876C114.271 78.2542 113.959 78.2273 113.674 78.1104C113.389 77.9936 113.145 77.7922 112.973 77.5321C112.801 77.2719 112.709 76.965 112.708 76.6509C112.701 76.2431 112.851 75.8488 113.127 75.5541C113.402 75.2593 113.78 75.0878 114.178 75.0769Z" fill="#1B1B1B"/>
<path fill-rule="evenodd" clip-rule="evenodd" d="M144 72.0753C141.869 69.9516 139.207 68.5358 136.337 68C136.486 72.6387 136.036 77.2772 135 81.7846L136.645 83C139.199 81.5701 143.131 75.4499 143.973 72.0753H144Z" fill="#1B1B1B"/>
<path fill-rule="evenodd" clip-rule="evenodd" d="M149.961 81.5941C149.297 78.6846 147.847 76.0449 145.79 74C144 78.6659 141.798 81.0741 138 84.0981L138.734 86C143.369 85.5758 146.459 84.8917 150 81.5394L149.961 81.5941Z" fill="#1B1B1B"/>
<path fill-rule="evenodd" clip-rule="evenodd" d="M148.985 94C150.721 90.9116 151.357 87.4217 150.808 84C146.567 86.4273 143.386 86.933 138.467 86.9836L138 88.8167C140.474 91.0038 142.524 92.6094 148.985 94Z" fill="#1B1B1B"/>
<path fill-rule="evenodd" clip-rule="evenodd" d="M147 96.0264C143.508 95.255 140.325 93.5075 137.846 91C136.879 93.2398 134.57 95.4144 129.872 95.1149C130.124 96.8967 129.82 98.7107 129 100.324C137.215 104.23 142.423 100.701 147 95.9613V96.0264Z" fill="#1B1B1B"/>
<path fill-rule="evenodd" clip-rule="evenodd" d="M127.681 100C128.17 99.5564 129.651 98.2812 128.673 94.8158L113.536 86L113.957 90.5881L107 93.4297L127.694 100H127.681Z" fill="#1B1B1B"/>
<path fill-rule="evenodd" clip-rule="evenodd" d="M136.487 85.1633C133.223 86.619 131.712 87.4218 130.794 91C132.563 89.2707 134.68 87.9438 137 87.1088C136.933 86.4369 136.76 85.78 136.487 85.1633ZM131.091 81C131.868 81.1585 132.617 81.4288 133.317 81.8027C129.877 84.932 129.27 85.2993 127.112 89.4762C126.572 85.3946 128.002 84.2381 131.159 81H131.091ZM134.855 82.9456C135.273 83.3491 135.636 83.8066 135.934 84.3061C133.12 85.7008 130.691 87.7761 128.865 90.3469C129.122 86.2653 130.727 85.381 134.383 82.7959L134.855 83V82.9456Z" fill="#1B1B1B"/>
<path d="M66.84 158V150.58H73.42V158H71.46V152.4H68.8V158H66.84ZM75.0978 160.8V150.58H76.7778L76.9878 151.42H77.0578C77.6178 150.767 78.3178 150.44 79.1578 150.44C80.1285 150.44 80.9078 150.776 81.4958 151.448C82.0838 152.111 82.3778 153.058 82.3778 154.29C82.3778 155.522 82.0838 156.474 81.4958 157.146C80.9078 157.809 80.1285 158.14 79.1578 158.14C78.2898 158.14 77.6131 157.837 77.1278 157.23H77.0578V160.8H75.0978ZM77.5338 155.872C77.8511 156.217 78.2525 156.39 78.7378 156.39C79.2231 156.39 79.6245 156.217 79.9418 155.872C80.2591 155.517 80.4178 154.99 80.4178 154.29C80.4178 153.59 80.2591 153.067 79.9418 152.722C79.6245 152.367 79.2231 152.19 78.7378 152.19C78.2525 152.19 77.8511 152.367 77.5338 152.722C77.2165 153.067 77.0578 153.59 77.0578 154.29C77.0578 154.99 77.2165 155.517 77.5338 155.872ZM89.6611 157.132C89.0171 157.804 88.1304 158.14 87.0011 158.14C85.8718 158.14 84.9804 157.804 84.3271 157.132C83.6831 156.451 83.3611 155.503 83.3611 154.29C83.3611 153.077 83.6831 152.134 84.3271 151.462C84.9804 150.781 85.8718 150.44 87.0011 150.44C88.1304 150.44 89.0171 150.781 89.6611 151.462C90.3144 152.134 90.6411 153.077 90.6411 154.29C90.6411 155.503 90.3144 156.451 89.6611 157.132ZM85.7971 155.872C86.1144 156.217 86.5158 156.39 87.0011 156.39C87.4864 156.39 87.8878 156.217 88.2051 155.872C88.5224 155.517 88.6811 154.99 88.6811 154.29C88.6811 153.59 88.5224 153.067 88.2051 152.722C87.8878 152.367 87.4864 152.19 87.0011 152.19C86.5158 152.19 86.1144 152.367 85.7971 152.722C85.4798 153.067 85.3211 153.59 85.3211 154.29C85.3211 154.99 85.4798 155.517 85.7971 155.872ZM91.1989 159.68V156.18H91.8989C92.0949 155.872 92.2349 155.536 92.3189 155.172C92.4122 154.799 92.4589 154.271 92.4589 153.59V150.58H98.3389V156.18H99.2489V159.68H97.3589V158H93.0889V159.68H91.1989ZM93.7889 156.18H96.3789V152.4H94.4189V153.59C94.4189 154.579 94.2089 155.443 93.7889 156.18ZM101.343 160.8L102.477 158L99.4534 150.58H101.623L103.443 155.41H103.499L105.263 150.58H107.433L103.373 160.8H101.343ZM108.197 158V150.58H110.157V153.87L112.887 150.58H115.197L112.187 154.22L115.407 158H113.097L110.157 154.57V158H108.197ZM117.573 158V152.4H115.263V150.58H121.843V152.4H119.533V158H117.573ZM124.786 156.25H125.906C126.513 156.25 126.816 155.97 126.816 155.41C126.816 155.167 126.732 154.981 126.564 154.85C126.406 154.71 126.186 154.64 125.906 154.64H124.786V156.25ZM122.826 158V150.58H124.786V152.89H126.186C126.952 152.89 127.572 153.128 128.048 153.604C128.534 154.071 128.776 154.673 128.776 155.41C128.776 156.185 128.534 156.81 128.048 157.286C127.572 157.762 126.952 158 126.186 158H122.826ZM129.476 158V150.58H131.436V158H129.476Z" fill="#1B1B1B"/>
<path d="M38.5777 178V168.2H39.7677V172.54H44.9477V168.2H46.1377V178H44.9477V173.59H39.7677V178H38.5777ZM48.3071 178V170.72H49.3571V176.684H49.4271L52.9271 170.72H54.3271V178H53.2771V172.036H53.2071L49.7071 178H48.3071ZM56.2915 178V170.72H57.3415V174.15L60.7715 170.72H62.1015L58.5315 174.29L62.3115 178H60.9815L57.3415 174.43V178H56.2915ZM65.1181 177.16C65.7994 177.16 66.3408 176.969 66.7421 176.586C67.1528 176.194 67.3581 175.709 67.3581 175.13V174.64H65.3281C64.7774 174.64 64.3574 174.752 64.0681 174.976C63.7881 175.2 63.6481 175.508 63.6481 175.9C63.6481 176.283 63.7788 176.591 64.0401 176.824C64.3014 177.048 64.6608 177.16 65.1181 177.16ZM65.1181 178.14C64.3621 178.14 63.7508 177.93 63.2841 177.51C62.8268 177.081 62.5981 176.544 62.5981 175.9C62.5981 175.247 62.8408 174.71 63.3261 174.29C63.8114 173.87 64.4788 173.66 65.3281 173.66H67.3581V173.17C67.3581 172.685 67.1948 172.297 66.8681 172.008C66.5508 171.709 66.1308 171.56 65.6081 171.56C64.7214 171.56 64.1614 171.91 63.9281 172.61H62.8081C62.9761 171.957 63.3074 171.457 63.8021 171.112C64.2968 170.757 64.8988 170.58 65.6081 170.58C66.4761 170.58 67.1574 170.818 67.6521 171.294C68.1561 171.761 68.4081 172.386 68.4081 173.17V178H67.5681L67.4281 177.02H67.3581C67.1994 177.3 66.9148 177.557 66.5041 177.79C66.0934 178.023 65.6314 178.14 65.1181 178.14ZM70.2915 178V170.72H71.3415V174.15L74.7715 170.72H76.1015L72.5315 174.29L76.3115 178H74.9815L71.3415 174.43V178H70.2915ZM77.1548 178V170.72H78.2048V176.684H78.2748L81.7748 170.72H83.1748V178H82.1248V172.036H82.0548L78.5548 178H77.1548ZM84.1592 178L86.7492 174.22L84.2992 170.72H85.4892L87.3792 173.45L89.2692 170.72H90.4592L88.0092 174.22L90.5992 178H89.4092L87.3792 174.99L85.3492 178H84.1592ZM96.541 178.14C95.757 178.14 95.1083 177.967 94.595 177.622C94.0816 177.267 93.7736 176.763 93.671 176.11H94.721C94.7863 176.446 94.987 176.707 95.323 176.894C95.659 177.071 96.065 177.16 96.541 177.16C97.1103 177.16 97.5443 177.057 97.843 176.852C98.1416 176.647 98.291 176.376 98.291 176.04C98.291 175.704 98.1416 175.424 97.843 175.2C97.5443 174.967 97.1103 174.85 96.541 174.85H95.911V173.87H96.541C97.0543 173.87 97.451 173.763 97.731 173.548C98.011 173.333 98.151 173.044 98.151 172.68C98.151 172.353 98.0063 172.087 97.717 171.882C97.437 171.667 97.045 171.56 96.541 171.56C95.561 171.56 95.001 171.91 94.861 172.61H93.811C93.9136 171.957 94.2076 171.457 94.693 171.112C95.1783 170.757 95.7943 170.58 96.541 170.58C97.3623 170.58 98.011 170.776 98.487 171.168C98.963 171.56 99.201 172.064 99.201 172.68C99.201 173.053 99.0843 173.399 98.851 173.716C98.6176 174.033 98.3376 174.248 98.011 174.36C98.3843 174.472 98.697 174.682 98.949 174.99C99.2103 175.289 99.341 175.639 99.341 176.04C99.341 176.665 99.0983 177.174 98.613 177.566C98.137 177.949 97.4463 178.14 96.541 178.14ZM102.976 177.16C103.657 177.16 104.198 176.969 104.6 176.586C105.01 176.194 105.216 175.709 105.216 175.13V174.64H103.186C102.635 174.64 102.215 174.752 101.926 174.976C101.646 175.2 101.506 175.508 101.506 175.9C101.506 176.283 101.636 176.591 101.898 176.824C102.159 177.048 102.518 177.16 102.976 177.16ZM102.976 178.14C102.22 178.14 101.608 177.93 101.142 177.51C100.684 177.081 100.456 176.544 100.456 175.9C100.456 175.247 100.698 174.71 101.184 174.29C101.669 173.87 102.336 173.66 103.186 173.66H105.216V173.17C105.216 172.685 105.052 172.297 104.726 172.008C104.408 171.709 103.988 171.56 103.466 171.56C102.579 171.56 102.019 171.91 101.786 172.61H100.666C100.834 171.957 101.165 171.457 101.66 171.112C102.154 170.757 102.756 170.58 103.466 170.58C104.334 170.58 105.015 170.818 105.51 171.294C106.014 171.761 106.266 172.386 106.266 173.17V178H105.426L105.286 177.02H105.216C105.057 177.3 104.772 177.557 104.362 177.79C103.951 178.023 103.489 178.14 102.976 178.14ZM108.149 178V170.72H112.769V171.7H109.199V178H108.149ZM119.2 177.146C118.584 177.809 117.772 178.14 116.764 178.14C115.756 178.14 114.944 177.809 114.328 177.146C113.712 176.483 113.404 175.555 113.404 174.36C113.404 173.165 113.712 172.237 114.328 171.574C114.944 170.911 115.756 170.58 116.764 170.58C117.772 170.58 118.584 170.911 119.2 171.574C119.816 172.237 120.124 173.165 120.124 174.36C120.124 175.555 119.816 176.483 119.2 177.146ZM115.084 176.432C115.514 176.917 116.074 177.16 116.764 177.16C117.455 177.16 118.01 176.917 118.43 176.432C118.86 175.937 119.074 175.247 119.074 174.36C119.074 173.473 118.86 172.787 118.43 172.302C118.01 171.807 117.455 171.56 116.764 171.56C116.074 171.56 115.514 171.807 115.084 172.302C114.664 172.787 114.454 173.473 114.454 174.36C114.454 175.247 114.664 175.937 115.084 176.432ZM123.145 178V171.7H120.695V170.72H126.715V171.7H124.195V178H123.145ZM133.077 177.146C132.461 177.809 131.649 178.14 130.641 178.14C129.633 178.14 128.821 177.809 128.205 177.146C127.589 176.483 127.281 175.555 127.281 174.36C127.281 173.165 127.589 172.237 128.205 171.574C128.821 170.911 129.633 170.58 130.641 170.58C131.649 170.58 132.461 170.911 133.077 171.574C133.693 172.237 134.001 173.165 134.001 174.36C134.001 175.555 133.693 176.483 133.077 177.146ZM128.961 176.432C129.391 176.917 129.951 177.16 130.641 177.16C131.332 177.16 131.887 176.917 132.307 176.432C132.737 175.937 132.951 175.247 132.951 174.36C132.951 173.473 132.737 172.787 132.307 172.302C131.887 171.807 131.332 171.56 130.641 171.56C129.951 171.56 129.391 171.807 128.961 172.302C128.541 172.787 128.331 173.473 128.331 174.36C128.331 175.247 128.541 175.937 128.961 176.432ZM136.666 177.02H138.976C139.33 177.02 139.615 176.922 139.83 176.726C140.054 176.521 140.166 176.245 140.166 175.9C140.166 175.555 140.054 175.284 139.83 175.088C139.615 174.883 139.33 174.78 138.976 174.78H136.666V177.02ZM135.616 178V170.72H138.976C139.61 170.72 140.119 170.902 140.502 171.266C140.884 171.63 141.076 172.125 141.076 172.75C141.076 173.469 140.772 173.982 140.166 174.29C140.483 174.43 140.735 174.649 140.922 174.948C141.118 175.237 141.216 175.555 141.216 175.9C141.216 176.563 141.015 177.081 140.614 177.454C140.222 177.818 139.676 178 138.976 178H135.616ZM136.666 173.8H138.976C139.321 173.8 139.592 173.707 139.788 173.52C139.993 173.324 140.096 173.067 140.096 172.75C140.096 172.433 139.993 172.181 139.788 171.994C139.592 171.798 139.321 171.7 138.976 171.7H136.666V173.8ZM148.267 177.146C147.651 177.809 146.839 178.14 145.831 178.14C144.823 178.14 144.011 177.809 143.395 177.146C142.779 176.483 142.471 175.555 142.471 174.36C142.471 173.165 142.779 172.237 143.395 171.574C144.011 170.911 144.823 170.58 145.831 170.58C146.839 170.58 147.651 170.911 148.267 171.574C148.883 172.237 149.191 173.165 149.191 174.36C149.191 175.555 148.883 176.483 148.267 177.146ZM144.151 176.432C144.58 176.917 145.14 177.16 145.831 177.16C146.521 177.16 147.077 176.917 147.497 176.432C147.926 175.937 148.141 175.247 148.141 174.36C148.141 173.473 147.926 172.787 147.497 172.302C147.077 171.807 146.521 171.56 145.831 171.56C145.14 171.56 144.58 171.807 144.151 172.302C143.731 172.787 143.521 173.473 143.521 174.36C143.521 175.247 143.731 175.937 144.151 176.432ZM150.805 178V170.72H151.855V174.15L155.285 170.72H156.615L153.045 174.29L156.825 178H155.495L151.855 174.43V178H150.805ZM159.18 177.846C159.031 177.995 158.854 178.07 158.648 178.07C158.443 178.07 158.261 177.995 158.102 177.846C157.953 177.687 157.878 177.505 157.878 177.3C157.878 177.095 157.953 176.917 158.102 176.768C158.261 176.609 158.443 176.53 158.648 176.53C158.854 176.53 159.031 176.609 159.18 176.768C159.339 176.917 159.418 177.095 159.418 177.3C159.418 177.505 159.339 177.687 159.18 177.846ZM158.228 175.2L158.018 168.9V168.2H159.278V168.9L159.068 175.2H158.228Z" fill="#1B1B1B"/>
<path d="M57.7255 45.6312C55.0412 47.4503 52.3446 48.0536 49.6359 47.441C46.9272 46.8284 44.5556 45.021 42.5211 42.0187C40.4866 39.0165 39.6868 36.144 40.1216 33.4011C40.5564 30.6583 42.116 28.3773 44.8004 26.5582C47.0256 25.0502 49.1714 24.395 51.2379 24.5923C53.3101 24.76 55.2338 25.6212 57.0088 27.1757L52.9028 29.9582C51.0065 28.7951 49.1135 28.8538 47.2238 30.1344C45.7757 31.1157 44.966 32.4118 44.7948 34.0225C44.6236 35.6332 45.1902 37.401 46.4947 39.326C47.7992 41.251 49.2311 42.4324 50.7906 42.8703C52.3501 43.3081 53.8539 43.0364 55.3021 42.055C57.1917 40.7745 57.9478 39.0381 57.5702 36.8457L61.6762 34.0632C62.4623 36.288 62.5552 38.4026 61.955 40.4071C61.3606 42.3819 59.9507 44.1233 57.7255 45.6312Z" fill="#1B1B1B"/>
<path d="M69.0107 34.9975L72.306 33.7599C72.8851 33.5424 73.272 33.2376 73.4666 32.8455C73.6811 32.4459 73.6984 32.0064 73.5183 31.5271C73.1208 30.4686 72.3229 30.1644 71.1246 30.6144L67.8294 31.852L69.0107 34.9975ZM66.1105 40.0176L60.1477 24.1404L68.3859 21.0465C69.9437 20.4614 71.2982 20.3971 72.4495 20.8535C73.6132 21.2824 74.4501 22.1758 74.9601 23.5339C75.5602 25.1316 75.2924 26.5425 74.157 27.7665C76.0247 27.8854 77.2548 28.7338 77.8473 30.3115C78.4099 31.8093 78.3918 33.1265 77.7931 34.2628C77.2144 35.3917 76.0662 36.2787 74.3487 36.9237L66.1105 40.0176ZM66.6481 28.7065L69.7935 27.5252C70.892 27.1126 71.2724 26.457 70.9349 25.5583C70.5974 24.6596 69.8794 24.4165 68.781 24.829L65.6355 26.0103L66.6481 28.7065Z" fill="#1B1B1B"/>
<path d="M88.1097 33.8599C85.5554 34.2327 83.4285 33.767 81.729 32.4627C80.0475 31.1343 79.0065 29.098 78.606 26.3537C78.2055 23.6094 78.6226 21.3711 79.8574 19.6386C81.1101 17.8819 83.0137 16.8172 85.5679 16.4444C87.9955 16.0901 90.0622 16.5862 91.7679 17.9326C93.4735 19.2791 94.5066 21.1872 94.8671 23.6571L94.9629 25.4217L83.4053 27.1085C84.1088 29.2696 85.4844 30.2007 87.532 29.9018C88.3342 29.7848 88.9279 29.5687 89.3131 29.2538C89.6983 28.9389 90.0303 28.4808 90.3091 27.8796L95.0588 27.1864C94.8496 28.8554 94.1888 30.3101 93.0762 31.5504C91.9606 32.7697 90.3051 33.5395 88.1097 33.8599ZM82.9201 23.7837L90.0446 22.7439C89.7587 21.9664 89.2696 21.3479 88.5773 20.8884C87.9061 20.4258 87.0955 20.2638 86.1456 20.4025C84.288 20.6736 83.2128 21.8007 82.9201 23.7837Z" fill="#1B1B1B"/>
<path d="M94.2992 31.7235L101.951 23.8968L96.6894 14.9259L102.095 15.5396L106.529 23.2893L107.341 16.1353L111.792 16.6406L110.98 23.7947L117.039 17.2363L122.444 17.85L115.305 25.4129L121.008 34.7558L115.602 34.1422L110.727 26.0204L109.879 33.4924L105.428 32.987L106.276 25.515L99.7045 32.3372L94.2992 31.7235Z" fill="#1B1B1B"/>
<path d="M118.373 34.834L124.542 19.0357L128.715 20.6651L124.991 30.2038L125.14 30.262L134.528 22.9348L139.148 24.7389L132.979 40.5372L128.806 38.9077L132.589 29.2201L132.44 29.1619L122.994 36.6381L118.373 34.834Z" fill="#1B1B1B"/>
<path d="M140.664 45.8952C138.532 44.4391 137.283 42.6558 136.917 40.5451C136.58 38.4289 137.193 36.2257 138.758 33.9357C140.322 31.6457 142.145 30.2817 144.227 29.8438C146.339 29.4002 148.46 29.9064 150.592 31.3625C152.617 32.7464 153.802 34.5113 154.144 36.6572C154.487 38.8031 153.954 40.9065 152.546 42.9675L151.421 44.3305L141.777 37.7421C140.83 39.8083 141.211 41.4251 142.92 42.5923C143.59 43.0496 144.173 43.2929 144.669 43.3222C145.166 43.3515 145.721 43.2394 146.333 42.986L150.296 45.6935C149.012 46.7796 147.54 47.402 145.882 47.5608C144.235 47.7019 142.496 47.1467 140.664 45.8952ZM143.672 34.9677L149.617 39.029C149.934 38.2634 149.993 37.4771 149.795 36.6701C149.614 35.8751 149.128 35.2069 148.335 34.6654C146.785 33.6064 145.231 33.7072 143.672 34.9677Z" fill="#1B1B1B"/>
</svg>
