<svg width="64" height="64" viewBox="0 0 64 64" fill="none" xmlns="http://www.w3.org/2000/svg">
<path fill-rule="evenodd" clip-rule="evenodd" d="M0.0797101 27.9814C0.378311 26.1047 1.78636 24.4527 3.56597 23.8911C3.99538 23.7556 8.10082 23.7293 25.8316 23.7486L47.5707 23.7724L48.3203 24.1415C49.7594 24.8501 50.9205 26.397 51.0895 27.8308L51.1663 28.4826H25.5831H0L0.0797101 27.9814ZM0.031984 40.7925V36.5215V32.2507H25.6458H51.2598L51.2268 36.4899L51.1939 40.729L25.6129 40.7607L0.031984 40.7925ZM0.0944528 57.1968L0.0578461 50.8784L0.0211144 44.56H25.6388H51.2564L51.2523 50.118C51.25 53.1748 51.1993 56.0571 51.1396 56.5228C50.9368 58.1037 50.017 59.5513 48.7355 60.3063C48.6003 60.3859 48.4932 60.4567 48.3817 60.5195C47.4431 61.0484 46.19 61.017 25.2595 60.9845L3.84258 60.9514L3.008 60.5538C1.8467 60.0008 1.12306 59.2886 0.561095 58.1458L0.0944528 57.1968ZM16.7736 54.6083C16.7736 54.0617 16.2999 53.2876 15.7884 52.9986C15.3132 52.7302 15.203 52.7243 10.6347 52.7249L5.96652 52.7255L5.47839 53.0226C4.23201 53.7811 4.24475 55.5004 5.50212 56.2108C5.99338 56.4884 6.06647 56.4924 10.598 56.4924C14.9849 56.4924 15.2199 56.4806 15.7271 56.2337C16.2886 55.9604 16.7736 55.2072 16.7736 54.6083Z" fill="black"/>
</svg>
