<svg width="64" height="64" viewBox="0 0 64 64" fill="none" xmlns="http://www.w3.org/2000/svg">
<path d="M9 19.3H31V58.3H9V19.3Z" fill="#E07153"/>
<path fill-rule="evenodd" clip-rule="evenodd" d="M5.93924 5.92429C3.12713 6.59816 0.831784 8.96892 0.179882 11.8732C-0.655401 15.5945 1.57356 19.4489 5.30571 20.7367L6.31276 21.0841L4.3118 21.0859C3.21138 21.0867 2.12021 21.1417 1.88695 21.208C1.1858 21.4072 0.638526 21.8579 0.310388 22.5056L0 23.1185V39.7002C0 54.3866 0.0221259 56.3345 0.193508 56.7409C0.451518 57.3531 0.832409 57.7454 1.43756 58.0222C1.90633 58.2367 2.41935 58.251 9.65664 58.2536L17.3757 58.2564V42.1887V26.1211L15.7585 28.4672C14.0206 30.9885 13.7068 31.2882 12.8056 31.2882C11.76 31.2882 10.9537 30.4751 10.9696 29.4363C10.9796 28.783 10.8616 28.9804 13.8131 24.6805L16.1882 21.2204L19.2748 21.2158L22.3615 21.2114L25.2691 25.2035C28.1311 29.1332 28.1774 29.2064 28.2208 29.8806C28.278 30.768 27.9678 31.2898 27.1768 31.6366C26.4699 31.9465 25.8178 31.8632 25.2749 31.3938C25.0634 31.2108 24.064 29.9182 23.0541 28.5212C22.0443 27.1243 21.1972 25.9581 21.1719 25.9297C21.1466 25.9013 21.1259 33.1633 21.1259 42.0672V58.2564L41.5954 58.2536C61.2291 58.251 62.0854 58.2416 62.565 58.0222C63.1702 57.7454 63.5511 57.3531 63.8091 56.7409C63.9805 56.3343 64.0022 54.3913 63.9998 39.7068C63.9972 23.8185 63.9875 23.1112 63.7648 22.6362C63.4863 22.0416 63.1349 21.6614 62.5927 21.3676C62.2156 21.1633 61.2371 21.1473 47.1894 21.1157L32.1888 21.082L33.1888 20.7375C37.6985 19.1834 39.7474 14.2382 37.6381 9.99875C36.3718 7.45367 33.9395 5.88366 31.0638 5.7553C29.5428 5.6874 28.469 5.90769 27.1311 6.56224C25.8099 7.2086 24.8853 8.18007 21.8845 12.074C20.4797 13.8969 19.2944 15.3882 19.2504 15.3882C19.2064 15.3882 17.8902 13.744 16.3255 11.7343C14.761 9.72469 13.1899 7.82598 12.8344 7.515C12.0584 6.83629 10.7318 6.1763 9.62351 5.91735C8.62047 5.68307 6.93291 5.68629 5.93924 5.92429ZM9.07137 9.62768C9.41051 9.73026 9.9224 9.99515 10.209 10.2162C10.6111 10.5263 15.4405 16.5504 15.9256 17.3468C16.0063 17.4792 15.1975 17.5012 11.4811 17.4672C7.30617 17.4292 6.88803 17.406 6.32488 17.1814C5.47347 16.8419 4.58094 16.0097 4.16267 15.1656C3.86041 14.5554 3.8134 14.3153 3.8184 13.4059C3.8244 12.2955 4.01216 11.7573 4.71007 10.8487C5.6131 9.67302 7.48718 9.14845 9.07137 9.62768ZM32.4381 9.81253C33.2478 10.2011 33.9545 10.9243 34.3578 11.7769C34.7942 12.6998 34.8239 14.1597 34.4238 15.0229C34.1 15.7214 33.4748 16.4385 32.8477 16.831C31.8774 17.438 31.2714 17.5005 26.6993 17.4652L22.4793 17.4325L25.1249 14.0254C26.5799 12.1514 28.0051 10.4371 28.292 10.2157C29.0364 9.64131 29.761 9.43651 30.8851 9.48272C31.5616 9.51047 32.0045 9.60451 32.4381 9.81253ZM44.8896 29.5459C46.0312 30.3018 46.002 31.7958 44.8287 32.6641C44.4927 32.9127 44.3414 32.9196 39.1891 32.9196C34.0368 32.9196 33.8855 32.9127 33.5495 32.6641C32.3762 31.7958 32.3469 30.3018 33.4886 29.5459L33.9134 29.2646H39.1891H44.4648L44.8896 29.5459ZM52.175 38.1092C52.8106 38.3724 53.1896 38.9874 53.1896 39.7558C53.1896 40.4487 52.9606 40.8694 52.329 41.3368C51.9877 41.5893 51.8792 41.5923 42.9392 41.5923C33.9992 41.5923 33.8907 41.5893 33.5495 41.3368C32.9111 40.8644 32.6888 40.4505 32.6888 39.7339C32.6888 38.9599 32.9701 38.4906 33.6352 38.1544C34.0314 37.9542 34.7352 37.9377 42.912 37.9376C50.1738 37.9374 51.8345 37.9682 52.175 38.1092ZM52.175 46.7819C52.8106 47.0451 53.1896 47.6601 53.1896 48.4285C53.1896 49.1215 52.9606 49.5421 52.329 50.0096C51.9877 50.2621 51.8792 50.265 42.9392 50.265C33.9992 50.265 33.8907 50.2621 33.5495 50.0096C32.9111 49.5371 32.6888 49.1232 32.6888 48.4066C32.6888 47.6326 32.9701 47.1633 33.6352 46.8272C34.0314 46.627 34.7352 46.6105 42.912 46.6103C50.1738 46.6101 51.8345 46.6409 52.175 46.7819Z" fill="black"/>
<mask id="mask0_853_4893" style="mask-type:alpha" maskUnits="userSpaceOnUse" x="0" y="5" width="64" height="54">
<path fill-rule="evenodd" clip-rule="evenodd" d="M5.93924 5.92429C3.12713 6.59816 0.831784 8.96892 0.179882 11.8732C-0.655401 15.5945 1.57356 19.4489 5.30571 20.7367L6.31276 21.0841L4.3118 21.0859C3.21138 21.0867 2.12021 21.1417 1.88695 21.208C1.1858 21.4072 0.638526 21.8579 0.310388 22.5056L0 23.1185V39.7002C0 54.3866 0.0221259 56.3345 0.193508 56.7409C0.451518 57.3531 0.832409 57.7454 1.43756 58.0222C1.90633 58.2367 2.41935 58.251 9.65664 58.2536L17.3757 58.2564V42.1887V26.1211L15.7585 28.4672C14.0206 30.9885 13.7068 31.2882 12.8056 31.2882C11.76 31.2882 10.9537 30.4751 10.9696 29.4363C10.9796 28.783 10.8616 28.9804 13.8131 24.6805L16.1882 21.2204L19.2748 21.2158L22.3615 21.2114L25.2691 25.2035C28.1311 29.1332 28.1774 29.2064 28.2208 29.8806C28.278 30.768 27.9678 31.2898 27.1768 31.6366C26.4699 31.9465 25.8178 31.8632 25.2749 31.3938C25.0634 31.2108 24.064 29.9182 23.0541 28.5212C22.0443 27.1243 21.1972 25.9581 21.1719 25.9297C21.1466 25.9013 21.1259 33.1633 21.1259 42.0672V58.2564L41.5954 58.2536C61.2291 58.251 62.0854 58.2416 62.565 58.0222C63.1702 57.7454 63.5511 57.3531 63.8091 56.7409C63.9805 56.3343 64.0022 54.3913 63.9998 39.7068C63.9972 23.8185 63.9875 23.1112 63.7648 22.6362C63.4863 22.0416 63.1349 21.6614 62.5927 21.3676C62.2156 21.1633 61.2371 21.1473 47.1894 21.1157L32.1888 21.082L33.1888 20.7375C37.6985 19.1834 39.7474 14.2382 37.6381 9.99875C36.3718 7.45367 33.9395 5.88366 31.0638 5.7553C29.5428 5.6874 28.469 5.90769 27.1311 6.56224C25.8099 7.2086 24.8853 8.18007 21.8845 12.074C20.4797 13.8969 19.2944 15.3882 19.2504 15.3882C19.2064 15.3882 17.8902 13.744 16.3255 11.7343C14.761 9.72469 13.1899 7.82598 12.8344 7.515C12.0584 6.83629 10.7318 6.1763 9.62351 5.91735C8.62047 5.68307 6.93291 5.68629 5.93924 5.92429ZM9.07137 9.62768C9.41051 9.73026 9.9224 9.99515 10.209 10.2162C10.6111 10.5263 15.4405 16.5504 15.9256 17.3468C16.0063 17.4792 15.1975 17.5012 11.4811 17.4672C7.30617 17.4292 6.88803 17.406 6.32488 17.1814C5.47347 16.8419 4.58094 16.0097 4.16267 15.1656C3.86041 14.5554 3.8134 14.3153 3.8184 13.4059C3.8244 12.2955 4.01216 11.7573 4.71007 10.8487C5.6131 9.67302 7.48718 9.14845 9.07137 9.62768ZM32.4381 9.81253C33.2478 10.2011 33.9545 10.9243 34.3578 11.7769C34.7942 12.6998 34.8239 14.1597 34.4238 15.0229C34.1 15.7214 33.4749 16.4385 32.8477 16.831C31.8774 17.438 31.2714 17.5005 26.6993 17.4652L22.4793 17.4325L25.1249 14.0254C26.5799 12.1514 28.0051 10.4371 28.292 10.2157C29.0364 9.64131 29.761 9.43651 30.8851 9.48272C31.5616 9.51047 32.0045 9.60451 32.4381 9.81253ZM44.8896 29.5459C46.0312 30.3018 46.002 31.7958 44.8287 32.6641C44.4927 32.9127 44.3414 32.9196 39.1891 32.9196C34.0368 32.9196 33.8855 32.9127 33.5495 32.6641C32.3762 31.7958 32.3469 30.3018 33.4886 29.5459L33.9134 29.2646H39.1891H44.4648L44.8896 29.5459ZM52.175 38.1092C52.8106 38.3724 53.1896 38.9874 53.1896 39.7558C53.1896 40.4487 52.9606 40.8694 52.329 41.3368C51.9877 41.5893 51.8792 41.5923 42.9392 41.5923C33.9992 41.5923 33.8907 41.5893 33.5495 41.3368C32.9111 40.8644 32.6888 40.4505 32.6888 39.7339C32.6888 38.9599 32.9701 38.4906 33.6352 38.1544C34.0314 37.9542 34.7352 37.9377 42.912 37.9376C50.1738 37.9374 51.8345 37.9682 52.175 38.1092ZM52.175 46.7819C52.8106 47.0451 53.1896 47.6601 53.1896 48.4285C53.1896 49.1215 52.9606 49.5421 52.329 50.0096C51.9877 50.2621 51.8792 50.265 42.9392 50.265C33.9992 50.265 33.8907 50.2621 33.5495 50.0096C32.9111 49.5372 32.6888 49.1232 32.6888 48.4066C32.6888 47.6326 32.9701 47.1633 33.6352 46.8272C34.0314 46.6269 34.7352 46.6105 42.912 46.6103C50.1738 46.6101 51.8345 46.6409 52.175 46.7819Z" fill="black"/>
</mask>
<g mask="url(#mask0_853_4893)">
<path d="M-4.92285 3.19995H44.3079V21.0871H-4.92285V3.19995Z" fill="#E07153"/>
</g>
</svg>
