<svg width="180" height="107" viewBox="0 0 180 107" fill="none" xmlns="http://www.w3.org/2000/svg">
<path d="M22.9175 65.9283L25.2318 62.4715C25.8371 61.5674 26.0873 60.7337 25.9823 59.9702C25.8773 59.2067 25.4525 58.5757 24.708 58.0773C23.9635 57.5788 23.2182 57.4264 22.4723 57.6202C21.7264 57.814 21.0508 58.3629 20.4455 59.267L18.1312 62.7238L22.9175 65.9283ZM23.8368 72.3203L5.22337 59.8582L13.8578 46.9618L17.4475 49.3652L11.4835 58.2731L14.5414 60.3204L17.2119 56.3318C18.4937 54.4173 20.058 53.2695 21.9048 52.8886C23.7457 52.478 25.5703 52.8781 27.3784 54.0887C29.1866 55.2993 30.2604 56.8398 30.5999 58.7101C30.9335 60.5509 30.4594 62.4286 29.1776 64.3431L23.8368 72.3203Z" fill="#1B1B1B"/>
<path d="M39.9784 52.4194C38.0822 54.1709 36.0645 54.989 33.9253 54.8739C31.7873 54.7287 29.7775 53.6374 27.8957 51.6002C26.014 49.5629 25.0927 47.4807 25.1319 45.3536C25.1722 43.1964 26.1405 41.242 28.0367 39.4906C29.8389 37.826 31.8241 37.0669 33.9922 37.2133C36.1603 37.3598 38.0912 38.3497 39.7847 40.1833L40.8614 41.5847L32.2813 49.5097C34.0832 50.8946 35.7443 50.8851 37.2644 49.481C37.8599 48.931 38.2275 48.4172 38.3673 47.9396C38.507 47.4621 38.5219 46.8965 38.4119 46.243L41.938 42.9862C42.709 44.4812 42.9862 46.0547 42.7697 47.7068C42.5387 49.3431 41.6082 50.914 39.9784 52.4194ZM30.0015 47.0415L35.2906 42.1562C34.6152 41.6765 33.8621 41.4428 33.0313 41.4551C32.2161 41.453 31.4559 41.7776 30.7507 42.4289C29.3716 43.7027 29.1219 45.2402 30.0015 47.0415Z" fill="#1B1B1B"/>
<path d="M52.9228 42.8305C50.6912 44.1278 48.5438 44.4877 46.4809 43.9103C44.4256 43.3037 42.7011 41.8016 41.3073 39.4039C39.9135 37.0063 39.4669 34.7736 39.9676 32.7059C40.476 30.609 41.846 28.9119 44.0776 27.6146C46.0142 26.4889 47.8107 26.0985 49.4671 26.4434C51.1419 26.7776 52.6233 27.6068 53.9112 28.9309L50.0381 31.1824C48.751 30.3267 47.4343 30.2901 46.0879 31.0728C45.092 31.6517 44.4987 32.4778 44.3082 33.5509C44.107 34.6055 44.3977 35.8061 45.1804 37.1524C45.9631 38.4988 46.8678 39.3547 47.8946 39.7202C48.9106 40.0673 49.9166 39.9513 50.9126 39.3724C52.2589 38.5897 52.8788 37.4274 52.7721 35.8855L56.6452 33.634C57.1585 35.4084 57.1459 37.106 56.6076 38.7268C56.0876 40.3368 54.8594 41.7048 52.9228 42.8305Z" fill="#1B1B1B"/>
<path d="M60.4037 38.2281L55.2749 22.0622L69.6107 17.514L74.7395 33.6799L70.4693 35.0347L66.5985 22.834L60.8032 24.6726L64.674 36.8733L60.4037 38.2281Z" fill="#1B1B1B"/>
<path d="M74.5594 33.8169L74.1712 29.3538L74.6494 29.3122C75.6483 29.2253 76.2595 28.7439 76.4832 27.8679C76.7049 26.9706 76.7104 25.3106 76.4997 22.8877L75.9314 16.3524L89.3208 15.1879L90.7903 32.0841L86.3271 32.4723L85.2181 19.7204L80.7549 20.1086L81.0183 23.1371C81.1255 24.3698 81.1667 25.4584 81.1417 26.4027C81.138 27.3453 81.0369 28.2749 80.8382 29.1915C80.6608 30.1063 80.3739 30.8701 79.9775 31.4827C79.5792 32.0741 79.0123 32.5731 78.2768 32.9797C77.5625 33.3844 76.6953 33.6312 75.6751 33.7199L74.5594 33.8169Z" fill="#1B1B1B"/>
<path d="M99.2456 29.5679C100.282 29.7034 101.155 29.527 101.864 29.0388C102.597 28.5322 103.026 27.8029 103.151 26.851L103.213 26.375L99.4051 25.8775C98.6647 25.7807 98.082 25.8767 97.657 26.1654C97.256 26.4357 97.0223 26.8247 96.9559 27.3324C96.8813 27.9036 97.032 28.3966 97.4081 28.8115C97.7869 29.2052 98.3994 29.4574 99.2456 29.5679ZM97.6582 33.0718C95.8602 32.8369 94.4959 32.1637 93.5653 31.0525C92.6348 29.9412 92.2704 28.6135 92.4722 27.0693C92.6768 25.5039 93.4018 24.3185 94.6473 23.5131C95.9168 22.6893 97.588 22.4129 99.661 22.6837L103.627 23.202L103.731 22.4087C103.833 21.6261 103.657 21.0006 103.202 20.5323C102.746 20.0641 102.075 19.7719 101.186 19.6558C100.573 19.5757 100.015 19.6427 99.5141 19.8569C99.0339 20.0738 98.683 20.3722 98.4612 20.752L94.019 20.1715C94.5748 18.7166 95.51 17.5695 96.8245 16.73C98.1602 15.8934 99.8328 15.6063 101.842 15.8689C104.085 16.1619 105.758 16.9399 106.862 18.203C107.988 19.4688 108.418 21.1171 108.152 23.1479L106.743 33.9361L102.935 33.4386L102.708 31.4726L102.549 31.4519C101.362 32.8027 99.7312 33.3427 97.6582 33.0718Z" fill="#1B1B1B"/>
<path d="M111.702 35.5476L115.731 23.3983L110.72 21.7362L112.029 17.7877L126.305 22.5221L124.995 26.4706L119.983 24.8085L115.954 36.9578L111.702 35.5476Z" fill="#1B1B1B"/>
<path d="M120.312 38.3309L128.699 23.5896L132.593 25.805L129.428 31.3677L134.713 34.3743L137.877 28.8115L141.771 31.0269L133.385 45.7682L129.491 43.5528L132.655 37.9901L127.371 34.9835L124.206 40.5463L120.312 38.3309Z" fill="#1B1B1B"/>
<path d="M141.424 48.2826C142.201 48.9817 143.02 49.3311 143.881 49.3309C144.772 49.329 145.539 48.9712 146.181 48.2575L146.502 47.9006L143.647 45.3326C143.092 44.8333 142.557 44.5821 142.044 44.5791C141.56 44.5745 141.147 44.7625 140.805 45.1431C140.419 45.5714 140.264 46.063 140.339 46.618C140.428 47.1571 140.789 47.712 141.424 48.2826ZM138.13 50.2697C136.782 49.057 136.039 47.7292 135.903 46.2862C135.766 44.8433 136.218 43.5429 137.26 42.385C138.315 41.2113 139.585 40.6457 141.067 40.6881C142.58 40.7289 144.114 41.4483 145.668 42.8465L148.642 45.5215L149.177 44.9267C149.705 44.3398 149.914 43.7245 149.804 43.0808C149.695 42.437 149.307 41.8155 148.641 41.2163C148.181 40.8026 147.684 40.5419 147.149 40.4342C146.631 40.3408 146.172 40.3877 145.774 40.5749L142.444 37.5789C143.726 36.6953 145.147 36.2803 146.706 36.3337C148.28 36.4015 149.821 37.113 151.328 38.4683C153.009 39.9806 153.947 41.57 154.14 43.2365C154.35 44.9173 153.77 46.519 152.401 48.0417L145.125 56.1308L142.27 53.5628L143.197 51.8143L143.078 51.7073C141.334 52.147 139.685 51.6678 138.13 50.2697Z" fill="#1B1B1B"/>
<path d="M145.512 56.3386L152.726 55.9301C152.483 54.8679 152.548 53.832 152.923 52.8225C153.31 51.8302 153.988 50.9834 154.955 50.2821C156.371 49.2552 157.822 48.8754 159.306 49.1426C160.791 49.4098 162.054 50.2601 163.093 51.6936L167.977 58.4293L154.247 68.3851L151.617 64.7582L156.15 61.4709L155.117 60.046L148.517 60.4836L145.512 56.3386ZM157.416 56.4026L159.389 59.1228L162.109 57.1504L160.137 54.4303C159.385 53.394 158.534 53.2203 157.585 53.909C156.721 54.5352 156.665 55.3664 157.416 56.4026Z" fill="#1B1B1B"/>
</svg>
