<svg width="64" height="64" viewBox="0 0 64 64" fill="none" xmlns="http://www.w3.org/2000/svg">
<path fill-rule="evenodd" clip-rule="evenodd" d="M30.8564 0.40625C30.8225 0.62975 30.7634 1.30425 30.725 1.90513C30.6343 3.324 30.2877 5.08663 29.6661 7.29C28.7293 10.6114 28.4672 13.0049 28.6582 16.493C28.7887 18.8773 28.9768 19.986 29.6731 22.4788C30.246 24.5299 30.5972 26.2613 30.7233 27.6563L30.8109 28.625H31.9411H33.0713L32.9934 27.5313C32.8864 26.0281 32.6272 24.7085 31.9068 22C31.0001 18.5909 30.9687 18.3469 30.9731 14.75C30.9774 11.2344 31.0488 10.7146 31.961 7.56275C32.5043 5.6855 32.6227 5.5645 33.8034 5.68075C35.4564 5.8435 36.3351 5.13313 36.6 3.41988C36.6487 3.10438 36.8026 2.78713 36.994 2.60738L37.3081 2.3125L43.5233 2.27425C46.9416 2.25325 49.9848 2.27175 50.286 2.3155C50.9115 2.40638 51.4273 2.83975 51.4284 3.27563C51.4316 4.56938 52.2942 5.477 53.8329 5.80538C54.2917 5.90325 54.681 6.34538 54.681 6.76875C54.681 6.95938 54.5695 7.59275 54.4334 8.17625C53.9828 10.1069 53.8051 12.0009 53.8051 14.875C53.8051 18.668 53.9904 19.9496 55.2148 24.625C55.4601 25.5616 55.6961 26.827 55.7452 27.4688L55.8337 28.625H57.0091H58.1846V28.1374C58.1846 27.3343 57.7186 24.916 57.2428 23.25C56.253 19.7841 55.9952 17.703 56.0905 13.9453C56.1554 11.3802 56.3923 9.58188 56.9144 7.6875C57.6472 5.02938 57.8177 4.34125 57.9828 3.375C58.0827 2.79063 58.2044 1.79225 58.2532 1.15625L58.342 0H44.63H30.918L30.8564 0.40625ZM38.6068 4.96875C38.4827 5.47075 37.8351 6.43337 37.3144 6.89012C36.6992 7.42963 35.6753 7.87875 34.8711 7.96163L34.205 8.03038L33.8646 9.25388C33.3107 11.2438 33.1199 13.0969 33.202 15.6875C33.2777 18.0719 33.4334 19.0376 34.1475 21.5523C34.6484 23.3163 35.1201 25.5796 35.2177 26.6875C35.26 27.1688 35.3247 27.8035 35.3614 28.0981L35.4279 28.6339L36.6316 28.5981L37.8355 28.5625L37.9927 27.946C38.2587 26.9023 38.9283 25.7505 39.7411 24.9386C43.3971 21.2864 49.4488 22.7279 51.1047 27.6455L51.4135 28.5625L52.4841 28.5986C53.073 28.6185 53.5539 28.5904 53.5526 28.5361C53.5318 27.616 53.198 25.8425 52.6872 23.9391C51.7244 20.3513 51.5131 18.7238 51.511 14.875C51.5095 12.212 51.5543 11.3951 51.7834 9.91088C51.9342 8.93363 52.0881 8.055 52.1253 7.95813C52.1701 7.84163 51.9669 7.65462 51.5252 7.40562C50.6936 6.93663 49.9903 6.17037 49.5898 5.29625L49.2821 4.625H43.9869H38.6918L38.6068 4.96875ZM44.0451 10.6621C44.535 10.8426 44.9528 11.1349 45.4951 11.6765C46.4719 12.6524 46.8389 13.5258 46.8389 14.875C46.8389 16.2243 46.4719 17.0976 45.4951 18.0735C44.5475 19.0201 43.666 19.3914 42.3593 19.3944C40.4979 19.3986 39.0889 18.531 38.1885 16.8259C37.8843 16.25 37.8513 16.059 37.8513 14.875C37.8513 13.6174 37.8692 13.5295 38.2801 12.7724C39.4209 10.6704 41.7516 9.81725 44.0451 10.6621ZM41.3012 12.844C41.0652 12.9641 40.7027 13.2743 40.4957 13.5331C40.0035 14.1486 39.8993 15.2083 40.2655 15.8719C41.1264 17.4313 43.2593 17.5567 44.2027 16.1034C44.9215 14.9959 44.5088 13.4321 43.3498 12.8715C42.7193 12.5666 41.8681 12.5551 41.3012 12.844ZM43.4236 25.3179C41.9243 25.7361 40.6769 26.9205 40.2363 28.3438L40.1493 28.625H44.5529H48.9564L48.8751 28.2188C48.7528 27.6079 47.985 26.5378 47.3461 26.0879C46.1608 25.2533 44.6903 24.9646 43.4236 25.3179Z" fill="#E07153"/>
</svg>
