<svg width="64" height="57" viewBox="0 0 64 57" fill="none" xmlns="http://www.w3.org/2000/svg">
<g opacity="0.35">
<g opacity="0.35">
<path opacity="0.35" d="M53.0981 47.695H3.73488C1.48787 47.695 -0.229688 45.7106 0.119903 43.5186L3.80581 20.3642C3.9274 19.6035 4.59112 19.043 5.36883 19.043H51.6491C52.442 19.043 53.1133 19.621 53.2197 20.3967L56.442 43.9164C56.7156 45.9158 55.1425 47.695 53.0981 47.695Z" fill="#792937"/>
</g>
<g opacity="0.35">
<path opacity="0.35" d="M53.0979 47.7578H3.73483C2.64553 47.7578 1.61196 47.2873 0.905184 46.4691C0.198404 45.6508 -0.113187 44.5723 0.0565418 43.5063L3.74243 20.3518C3.8691 19.5561 4.55308 18.978 5.36879 18.978H51.6489C52.4697 18.978 53.1714 19.5836 53.2829 20.3869L56.5052 43.9066C56.6394 44.8776 56.3405 45.8585 55.6869 46.5967C55.0333 47.3349 54.091 47.7578 53.0979 47.7578ZM5.36879 19.1056C4.61641 19.1056 3.98563 19.6387 3.86656 20.3743L0.180671 43.5288C0.0160096 44.5573 0.314934 45.5982 0.998914 46.389C1.68289 47.1797 2.681 47.6327 3.7323 47.6327H53.0954C54.0504 47.6327 54.9599 47.2248 55.5881 46.5141C56.2164 45.8034 56.5052 44.86 56.376 43.9242L53.1537 20.4044C53.0523 19.6637 52.4038 19.1056 51.6464 19.1056H5.36879Z" fill="#1B1B1B"/>
</g>
</g>
<path d="M17.9085 41.0063V43.5187C17.9085 44.0893 17.4424 44.5497 16.8648 44.5497H12.5582C12.0921 44.5497 11.6817 44.2444 11.5525 43.799L11.17 42.4652L10.752 41.0063H17.9085Z" fill="#FFD78F"/>
<path d="M16.8622 44.6147H12.5557C12.0617 44.6147 11.6234 44.2869 11.4892 43.8189L10.6684 40.9463H17.9718V43.5211C17.9718 44.1217 17.4727 44.6147 16.8622 44.6147ZM10.8356 41.0689L11.6108 43.7839C11.7298 44.1993 12.12 44.4895 12.5557 44.4895H16.8648C17.4069 44.4895 17.8477 44.0541 17.8477 43.5186V41.0689H10.8356Z" fill="#1B1B1B"/>
<path d="M58.6535 41.0063L58.2355 42.4652L57.853 43.799C57.7263 44.2444 57.3159 44.5497 56.8473 44.5497H52.5407C51.9631 44.5497 51.497 44.0893 51.497 43.5187V41.0063H58.6535Z" fill="#FFD78F"/>
<path d="M56.8498 44.6147H52.5432C51.9327 44.6147 51.4337 44.1243 51.4337 43.5187V40.9438H58.7371L57.9137 43.8165C57.782 44.2869 57.3438 44.6147 56.8498 44.6147ZM51.5603 41.069V43.5187C51.5603 44.0542 52.0011 44.4896 52.5432 44.4896H56.8498C57.288 44.4896 57.6756 44.1993 57.7947 43.784L58.5724 41.069H51.5603Z" fill="#1B1B1B"/>
<path d="M63.3172 34.9232H5.81207L10.1617 7.59225C10.2833 6.83153 10.947 6.271 11.7247 6.271H58.0049C58.7978 6.271 59.4691 6.84904 59.5755 7.62478L63.3172 34.9232Z" fill="#FFD78F"/>
<path d="M63.3881 34.9857H5.73608L10.0984 7.58229C10.225 6.78654 10.909 6.2085 11.7247 6.2085H58.0049C58.8257 6.2085 59.5274 6.81407 59.6389 7.61733L63.3881 34.9857ZM5.88555 34.8606H63.2437L59.5122 7.63234C59.4109 6.89164 58.7624 6.33361 58.0049 6.33361H11.7247C10.9723 6.33361 10.3416 6.86662 10.2225 7.60231L5.88555 34.8606Z" fill="#1B1B1B"/>
<g opacity="0.35">
<path opacity="0.35" d="M13.4499 6.271C12.6722 6.271 12.0085 6.83153 11.8869 7.59225L7.53728 34.9232H6.14398L10.4936 7.59225C10.6152 6.83153 11.2789 6.271 12.0566 6.271H13.4499Z" fill="#1B1B1B"/>
</g>
<g opacity="0.55">
<path opacity="0.55" d="M63.3172 34.9232H61.7972L58.0556 7.62478C57.9492 6.84904 57.2779 6.271 56.485 6.271H58.0049C58.7979 6.271 59.4692 6.84904 59.5756 7.62478L63.3172 34.9232Z" fill="white"/>
</g>
<path d="M5.81207 34.9231L7.07111 39.8277C7.24843 40.5209 7.88175 41.0089 8.60626 41.0089H60.523C61.2475 41.0089 61.8808 40.5234 62.0581 39.8277L63.3172 34.9231H5.81207Z" fill="#FFD78F"/>
<path d="M60.5229 41.0689H8.60627C7.85136 41.0689 7.19524 40.5634 7.01032 39.8427L5.73102 34.8606H63.3982L62.1189 39.8427C61.934 40.5634 61.2753 41.0689 60.5229 41.0689ZM5.89315 34.9857L7.13191 39.8127C7.30417 40.4808 7.90962 40.9463 8.60627 40.9463H60.5229C61.2196 40.9463 61.825 40.4808 61.9973 39.8127L63.2361 34.9857H5.89315Z" fill="#1B1B1B"/>
<g opacity="0.35">
<path opacity="0.35" d="M10.752 41.0063H17.9085V42.4677H11.1674L10.752 41.0063Z" fill="#1B1B1B"/>
</g>
<g opacity="0.35">
<path opacity="0.35" d="M58.6534 41.0063L58.2354 42.4677H51.4969V41.0063H58.6534Z" fill="#1B1B1B"/>
</g>
<g opacity="0.35">
<path opacity="0.35" d="M10.334 41.0064H8.60634C7.88182 41.0064 7.2485 40.5209 7.07117 39.8277L5.81213 34.9231H7.53983L8.8014 39.8277C8.9762 40.5209 9.60952 41.0064 10.334 41.0064Z" fill="#1B1B1B"/>
</g>
<g opacity="0.55">
<path opacity="0.55" d="M63.3172 34.9231L62.0582 39.8277C61.8783 40.5209 61.2475 41.0064 60.523 41.0064H58.8764C59.6009 41.0064 60.2342 40.5209 60.4116 39.8277L61.6706 34.9231H63.3172Z" fill="white"/>
</g>
<g opacity="0.55">
<path opacity="0.55" d="M17.7818 41.0063V43.5187C17.7818 44.0893 17.3156 44.5497 16.7381 44.5497H15.783C16.3606 44.5497 16.8267 44.0893 16.8267 43.5187V41.0063H17.7818Z" fill="white"/>
</g>
<g opacity="0.55">
<path opacity="0.55" d="M58.6534 41.0063L57.8555 43.799C57.7288 44.2444 57.3184 44.5497 56.8498 44.5497H55.6794C56.148 44.5497 56.5584 44.2444 56.6851 43.799L57.4831 41.0063H58.6534Z" fill="white"/>
</g>
<path d="M16.8622 44.9902H12.5557C11.892 44.9902 11.3042 44.5498 11.1244 43.9192L10.3264 41.1266C10.2605 40.8939 10.3973 40.6512 10.6329 40.5861C10.8685 40.5211 11.1143 40.6562 11.1801 40.8889L11.9781 43.6815C12.0516 43.9367 12.2897 44.1144 12.5582 44.1144H16.8648C17.1966 44.1144 17.4677 43.8466 17.4677 43.5188V41.0065C17.4677 40.7638 17.6653 40.5686 17.911 40.5686C18.1567 40.5686 18.3543 40.7638 18.3543 41.0065V43.5188C18.3518 44.3296 17.683 44.9902 16.8622 44.9902Z" fill="#1B1B1B"/>
<path d="M56.8498 44.9902H52.5432C51.7225 44.9902 51.0562 44.3296 51.0562 43.5188V41.0065C51.0562 40.7638 51.2538 40.5686 51.4995 40.5686C51.7453 40.5686 51.9429 40.7638 51.9429 41.0065V43.5188C51.9429 43.8466 52.2139 44.1144 52.5458 44.1144H56.8523C57.1208 44.1144 57.359 43.9367 57.4324 43.6815L58.2304 40.8889C58.2963 40.6562 58.542 40.5211 58.7776 40.5861C59.0132 40.6512 59.15 40.8939 59.0841 41.1266L58.2861 43.9192C58.1012 44.5498 57.5135 44.9902 56.8498 44.9902Z" fill="#1B1B1B"/>
<path d="M63.3173 35.3609H5.81214C5.68294 35.3609 5.55881 35.3059 5.47522 35.2083C5.39162 35.1107 5.35362 34.9831 5.37389 34.8554L9.7235 7.52461C9.88057 6.54368 10.7216 5.83301 11.7248 5.83301H58.005C59.0158 5.83301 59.8796 6.57871 60.0139 7.56715L63.7555 34.8654C63.7733 34.9906 63.7353 35.1182 63.6491 35.2133C63.5655 35.3059 63.4439 35.3609 63.3173 35.3609ZM6.32893 34.4851H62.8081L59.1374 7.68226C59.0614 7.12673 58.575 6.70884 58.005 6.70884H11.7248C11.1599 6.70884 10.6861 7.10921 10.5975 7.65973L6.32893 34.4851Z" fill="#1B1B1B"/>
<path d="M60.523 41.4443H8.6063C7.67659 41.4443 6.86848 40.8237 6.64048 39.9328L5.38145 35.0282C5.32065 34.793 5.46505 34.5552 5.70318 34.4952C5.9413 34.4351 6.18196 34.5777 6.24276 34.813L7.50179 39.7176C7.63099 40.2181 8.08444 40.5684 8.6063 40.5684H60.523C61.0449 40.5684 61.5009 40.2181 61.6275 39.7176L62.8865 34.813C62.9473 34.5777 63.188 34.4376 63.4261 34.4952C63.6643 34.5552 63.8061 34.793 63.7479 35.0282L62.4888 39.9328C62.2583 40.8237 61.4502 41.4443 60.523 41.4443Z" fill="#1B1B1B"/>
<g opacity="0.35">
<g opacity="0.35">
<path opacity="0.35" d="M46.7877 30.9318H37.6096C37.2499 30.9318 36.9054 31.0669 36.6419 31.3046L35.8896 31.9953L33.7135 33.9872C33.4652 34.2149 33.1866 34.3951 32.8952 34.5302C32.4697 34.7279 32.0086 34.8255 31.5475 34.823C30.7724 34.823 29.9972 34.5427 29.3892 33.9872L26.4633 31.3046C26.1998 31.0644 25.8553 30.9318 25.4956 30.9318H16.3201C14.0249 30.9318 12.2719 28.9074 12.6291 26.6678L12.6063 19.8038C12.5683 19.476 12.5734 19.1381 12.6291 18.7953L14.6203 6.271H48.7611L50.4888 18.8729C50.5141 19.0581 50.5268 19.2407 50.5217 19.4184C50.5217 19.4409 50.5217 19.4635 50.5192 19.4835H50.5217L50.4888 26.7453C50.7953 28.9599 49.0499 30.9318 46.7877 30.9318Z" fill="#792937"/>
</g>
<g opacity="0.35">
<path opacity="0.35" d="M31.5576 34.8855C31.5551 34.8855 31.5526 34.8855 31.5475 34.8855C30.7267 34.883 29.9465 34.5802 29.3461 34.0322L26.4202 31.3522C26.1669 31.122 25.8401 30.9944 25.4955 30.9944H16.3201C15.208 30.9944 14.1541 30.5164 13.4322 29.6806C12.7102 28.8448 12.3935 27.7438 12.5683 26.6578L12.5455 19.8038C12.5075 19.471 12.5126 19.1256 12.5683 18.7878L14.5696 6.21094H48.8218L50.5571 18.8679C50.5824 19.0556 50.5951 19.2433 50.59 19.4234C50.59 19.4384 50.59 19.451 50.59 19.466V19.4885L50.5571 26.7478C50.704 27.8139 50.3747 28.8974 49.6527 29.7131C48.9307 30.5289 47.887 30.9969 46.7901 30.9969H37.6121C37.2701 30.9969 36.9408 31.1245 36.6875 31.3547L33.759 34.0322C33.5108 34.2599 33.2296 34.4451 32.9256 34.5853C32.5025 34.7829 32.0288 34.8855 31.5576 34.8855ZM14.676 6.33355L12.6925 18.8053C12.6393 19.1331 12.6342 19.4685 12.6722 19.7963L12.695 26.6678C12.5278 27.7263 12.8318 28.7923 13.531 29.598C14.2301 30.4063 15.2485 30.8692 16.3226 30.8692H25.5006C25.8755 30.8692 26.2327 31.0069 26.5089 31.2596L29.4373 33.9421C30.0149 34.4701 30.7647 34.7604 31.5526 34.7629C31.5551 34.7629 31.5576 34.7629 31.5602 34.7629C32.0136 34.7629 32.4671 34.6628 32.8724 34.4751C33.1663 34.34 33.4373 34.1624 33.6754 33.9421L36.6039 31.2596C36.88 31.0069 37.2397 30.8692 37.6121 30.8692H46.7901C47.8516 30.8692 48.8598 30.4163 49.5565 29.6281C50.2531 28.8398 50.5723 27.7913 50.4304 26.7528L50.4634 19.546H50.4608L50.4634 19.4785C50.4634 19.4585 50.4634 19.4384 50.4634 19.4184C50.4659 19.2433 50.4558 19.0631 50.4304 18.8804L48.7103 6.33355H14.676Z" fill="#1B1B1B"/>
</g>
</g>
<g opacity="0.25">
<g opacity="0.25">
<path opacity="0.25" d="M62.5243 27.4911C61.3261 27.4211 60.181 27.7914 59.1804 28.3594C58.9296 28.5046 58.6889 28.6622 58.4533 28.8274C58.2203 28.995 57.9923 29.1752 57.7719 29.3629C57.554 29.5531 57.3362 29.7457 57.1284 29.9484C56.9207 30.1511 56.7155 30.3588 56.5154 30.5715C56.11 30.9919 55.7199 31.4323 55.3273 31.8727C54.927 32.3081 54.5318 32.7511 54.1037 33.1689C53.2601 34.0047 52.305 34.783 51.2031 35.2484C52.2012 34.5978 53.0346 33.772 53.8149 32.9012C54.1999 32.4608 54.585 32.0179 54.965 31.5624C55.3475 31.1145 55.7402 30.6666 56.148 30.2287C56.5635 29.7983 56.9967 29.3804 57.4654 29C57.7035 28.8124 57.9467 28.6347 58.2025 28.467C58.4584 28.3019 58.7219 28.1517 58.9955 28.0166C59.2716 27.8865 59.5502 27.7639 59.839 27.6688C60.1304 27.5762 60.4242 27.4986 60.7257 27.4461C61.0272 27.401 61.3286 27.3735 61.6326 27.3785C61.9341 27.386 62.233 27.4261 62.5243 27.4911Z" fill="#1B1B1B"/>
</g>
<g opacity="0.25">
<path opacity="0.25" d="M62.6027 29.6456C62.0758 29.8483 61.6097 30.1261 61.2221 30.4789C60.832 30.8292 60.5205 31.2521 60.3153 31.715C60.1101 32.1805 60.0113 32.6935 60.0138 33.214C60.0164 33.7369 60.1253 34.2624 60.333 34.7829C59.9429 34.3725 59.7023 33.8195 59.6161 33.2465C59.5325 32.6709 59.6085 32.0629 59.8492 31.5174C60.0898 30.9718 60.4901 30.5039 60.9739 30.1736C61.4603 29.8433 62.0328 29.6406 62.6027 29.6456Z" fill="#1B1B1B"/>
</g>
<g opacity="0.25">
<path opacity="0.25" d="M7.46124 22.061C7.81083 23.6225 8.51508 25.0764 9.49546 26.3076C10.4758 27.5362 11.7273 28.5472 13.156 29.2028C13.8704 29.5406 14.6253 29.8059 15.3828 30.0836C16.1377 30.3689 16.9053 30.6567 17.6273 31.0596C18.3492 31.4574 19.0155 31.9654 19.5475 32.591C19.8109 32.9063 20.0415 33.2491 20.2087 33.622C20.3784 33.9923 20.4848 34.3902 20.5152 34.7881C20.348 34.0023 19.9173 33.3092 19.3625 32.7562C18.8103 32.1956 18.144 31.7577 17.4423 31.4074C16.733 31.0646 15.9806 30.7918 15.2206 30.5316C14.4607 30.2663 13.6906 30.0011 12.9407 29.6582C12.1959 29.3054 11.4866 28.865 10.8533 28.337C10.2225 27.8065 9.65505 27.2084 9.1788 26.5428C8.22122 25.219 7.60057 23.6575 7.46124 22.061Z" fill="#1B1B1B"/>
</g>
<g opacity="0.25">
<path opacity="0.25" d="M6.36182 30.2362C7.05846 30.1211 7.77284 30.071 8.49229 30.1636C9.20921 30.2512 9.93119 30.4939 10.5341 30.9469C10.833 31.1721 11.094 31.4574 11.2915 31.7752C11.4891 32.093 11.6285 32.4433 11.6969 32.8037C11.8413 33.5218 11.7298 34.2901 11.3447 34.8831C11.5297 34.2075 11.5043 33.5218 11.3118 32.8987C11.1142 32.2731 10.7393 31.7301 10.225 31.3423C9.70826 30.9519 9.08001 30.7016 8.42136 30.544C7.76018 30.3889 7.06353 30.3263 6.36182 30.2362Z" fill="#1B1B1B"/>
</g>
<g opacity="0.25">
<path opacity="0.25" d="M61.9138 24.6809L61.2146 24.6459C60.9815 24.6459 60.7485 24.6408 60.5154 24.6459C60.2823 24.6559 60.0493 24.6584 59.8187 24.6734C59.5857 24.6934 59.3552 24.7034 59.1246 24.7334C58.2 24.8335 57.2855 25.0087 56.3862 25.2389C54.585 25.6918 52.8447 26.355 51.1423 27.0957C49.44 27.8389 47.7579 28.6421 46.0403 29.3828C44.3228 30.121 42.5571 30.7841 40.723 31.2296C39.806 31.4523 38.8687 31.5999 37.9314 31.6975C37.4627 31.7526 36.9915 31.7726 36.5203 31.8001C36.0491 31.8101 35.578 31.8276 35.1068 31.8076C34.1644 31.7851 33.222 31.7175 32.2898 31.5874C31.3575 31.4623 30.4304 31.2971 29.5159 31.0769C25.8578 30.2161 22.3796 28.6897 19.2485 26.6803C20.0592 27.1382 20.8825 27.5711 21.721 27.9765C22.5595 28.3794 23.4132 28.7472 24.2796 29.0825C26.0098 29.7632 27.7907 30.3012 29.6045 30.6966C31.4183 31.0769 33.2625 31.3196 35.1144 31.3347C35.5754 31.3447 36.039 31.3297 36.5001 31.3171C36.9611 31.2871 37.4222 31.2646 37.8807 31.2095C38.7977 31.1094 39.7097 30.9618 40.6065 30.7416C42.4026 30.3162 44.1429 29.6631 45.8554 28.9449C47.5704 28.2317 49.2576 27.4385 50.9903 26.7328C52.718 26.0196 54.4964 25.3991 56.3304 24.9987C57.2475 24.8035 58.1772 24.6634 59.1145 24.6008C59.3476 24.5808 59.5832 24.5808 59.8162 24.5683C60.0493 24.5608 60.2849 24.5683 60.5179 24.5683C60.751 24.5758 60.9866 24.5933 61.2196 24.6058L61.9138 24.6809Z" fill="#1B1B1B"/>
</g>
<g opacity="0.25">
<path opacity="0.25" d="M60.7232 15.9878L59.8366 15.7901C59.6896 15.7576 59.5427 15.7226 59.3932 15.6951L58.9448 15.62C58.6459 15.5699 58.3495 15.5124 58.0506 15.4698L57.1513 15.3622C56.8524 15.3197 56.5509 15.3047 56.2494 15.2822L55.7985 15.2496C55.6491 15.2396 55.4971 15.2246 55.3476 15.2271C54.7447 15.2171 54.1418 15.1921 53.5388 15.2246C51.1272 15.2697 48.7307 15.675 46.428 16.3532L45.5717 16.6359L45.1436 16.7786L44.7231 16.9412C44.4444 17.0513 44.1607 17.1539 43.8846 17.2665L43.0613 17.6294C42.7851 17.7445 42.5191 17.8821 42.2506 18.0173C41.9846 18.1549 41.7136 18.28 41.4526 18.4276C40.9333 18.7279 40.4089 19.0132 39.9073 19.341C38.8966 19.9866 37.9111 20.6798 36.8902 21.3404C36.381 21.6707 35.8617 21.991 35.3272 22.2888C34.7927 22.5866 34.2455 22.8643 33.673 23.0971C33.103 23.3298 32.5153 23.5325 31.9098 23.6701C31.3044 23.8102 30.6888 23.8953 30.0681 23.9254C28.8294 23.9854 27.5855 23.8353 26.3949 23.505C25.2068 23.1746 24.0719 22.6717 23.0231 22.0336C21.9743 21.398 21.0142 20.6197 20.1757 19.7314C19.3347 18.8455 18.633 17.8371 18.0579 16.7711C17.4829 15.7051 17.0319 14.574 16.7001 13.4154C16.3733 12.2543 16.1757 11.0607 16.0744 9.86703L16.0389 9.4191L16.0186 8.96868C16.0009 8.66839 16.0009 8.36811 15.9984 8.07032C15.9933 7.77004 16.0136 7.47226 16.0186 7.17197C16.0313 6.87169 16.0566 6.57391 16.0744 6.27612C15.9908 8.66589 16.2238 11.0757 16.9382 13.3503C17.2903 14.4864 17.7514 15.59 18.3366 16.6234C18.9192 17.6594 19.6235 18.6253 20.4569 19.4711C22.1263 21.1502 24.2289 22.4314 26.5241 23.047C27.6691 23.3548 28.8598 23.5 30.0428 23.4374C30.633 23.4074 31.2208 23.3248 31.7958 23.1897C32.3709 23.057 32.9307 22.8593 33.4779 22.6366C34.0276 22.4139 34.5596 22.1487 35.0815 21.8584C35.6033 21.5706 36.115 21.2578 36.6192 20.9325C37.6299 20.2844 38.6179 19.5887 39.6489 18.9431C41.7136 17.6469 43.9707 16.656 46.314 15.9853C48.6648 15.3422 51.0968 14.9744 53.5312 14.9794C54.1392 14.9669 54.7472 15.0094 55.3552 15.0394C55.5072 15.0444 55.6592 15.062 55.8087 15.077L56.2621 15.122C56.5636 15.152 56.8676 15.1771 57.1665 15.2296L58.0658 15.3672C58.3647 15.4198 58.6611 15.4874 58.9575 15.5474L59.4034 15.64C59.5503 15.675 59.6972 15.7176 59.8441 15.7551L60.7232 15.9878Z" fill="#1B1B1B"/>
</g>
<g opacity="0.25">
<path opacity="0.25" d="M10.904 6.82411C11.8058 10.0622 13.5183 13.1025 15.8641 15.5899C13.3967 13.2201 11.5069 10.2398 10.4201 6.97175C10.377 6.84163 10.448 6.699 10.5822 6.65646C10.714 6.61392 10.8584 6.68398 10.9014 6.81661C10.9014 6.81661 10.904 6.82161 10.904 6.82411Z" fill="#1B1B1B"/>
</g>
<g opacity="0.25">
<path opacity="0.25" d="M47.4717 6.271C48.2013 7.17185 49.0448 7.95759 49.9923 8.58319C50.4685 8.89098 50.9651 9.16624 51.4869 9.38144C52.0062 9.60415 52.5458 9.77682 53.0981 9.88942C53.6478 10.012 54.2127 10.0771 54.7776 10.0921C55.3451 10.1171 55.9125 10.0721 56.4774 9.99953C57.6073 9.83938 58.7118 9.49655 59.7656 8.99608C58.8207 9.67672 57.7086 10.1447 56.5458 10.3824C55.9657 10.5075 55.3679 10.5626 54.77 10.5651C54.1722 10.5626 53.5743 10.4975 52.9891 10.3774C52.404 10.2473 51.8314 10.0621 51.2893 9.81185C50.7497 9.55661 50.2329 9.25883 49.7618 8.89849C48.8194 8.18781 48.0265 7.28696 47.4717 6.271Z" fill="#1B1B1B"/>
</g>
<g opacity="0.25">
<path opacity="0.25" d="M61.1639 17.9522C60.1734 18.1374 59.1424 17.9923 58.2178 18.2075C57.9872 18.26 57.7643 18.3351 57.5566 18.4277C57.3514 18.5253 57.1589 18.6479 57.0043 18.798C56.6953 19.0883 56.5053 19.5237 56.5256 19.9291C56.5281 20.0292 56.5484 20.1268 56.5788 20.2219C56.6142 20.312 56.6547 20.3995 56.7155 20.4796C56.8346 20.6398 57.0094 20.7724 57.207 20.8825C57.4021 20.9976 57.6275 21.0877 57.8504 21.1778C58.0759 21.2629 58.3064 21.3379 58.5369 21.408C59.4692 21.6733 60.4546 21.7759 61.4527 21.7233C60.485 21.9836 59.4413 21.9961 58.4407 21.7884C58.1899 21.7358 57.9416 21.6733 57.6984 21.5907C57.4553 21.5081 57.2146 21.423 56.9739 21.3004C56.7358 21.1778 56.5002 21.0076 56.3178 20.7749C56.2266 20.6598 56.1582 20.5222 56.1025 20.3845C56.0544 20.2444 56.024 20.0993 56.0164 19.9541C56.0062 19.6638 56.0696 19.3811 56.1836 19.1258C56.3001 18.8706 56.4622 18.6379 56.675 18.4527C57.0981 18.0874 57.625 17.8972 58.1392 17.8271C58.6585 17.747 59.1728 17.7821 59.6693 17.8271C60.1734 17.8772 60.6623 17.9372 61.1639 17.9522Z" fill="#1B1B1B"/>
</g>
<g opacity="0.25">
<path opacity="0.25" d="M9.54867 12.3242C10.1161 12.637 10.638 13.0324 11.1117 13.4828C11.5778 13.9407 11.9983 14.4487 12.3429 15.0068C13.0319 16.1203 13.4803 17.399 13.5183 18.7378C13.5259 19.4034 13.4119 20.0866 13.1332 20.7047C12.852 21.3177 12.4163 21.8833 11.8286 22.2486C10.6608 22.9918 9.04708 22.8642 8.07684 21.9934C9.17121 22.6865 10.6278 22.624 11.6057 21.9258C12.0921 21.573 12.467 21.075 12.6925 20.517C12.928 19.9615 13.0268 19.3559 13.0116 18.7453C13.0066 18.1347 12.8926 17.5216 12.7178 16.9261C12.5506 16.328 12.2947 15.755 12.0034 15.2019C11.7019 14.6539 11.3422 14.1334 10.9318 13.6505C10.5214 13.165 10.0528 12.7271 9.54867 12.3242Z" fill="#1B1B1B"/>
</g>
</g>
<g opacity="0.2">
<g opacity="0.2">
<path opacity="0.2" d="M51.7883 35.3336C50.9422 36.5673 49.8478 37.6408 48.5989 38.4991L48.3633 38.6592C48.2848 38.7143 48.2063 38.7643 48.1227 38.8119L47.6337 39.1022C47.2968 39.2798 46.9624 39.4625 46.6128 39.6127C45.9187 39.923 45.1967 40.1832 44.452 40.3634C43.7097 40.546 42.9497 40.6687 42.1822 40.7137L41.6071 40.7287L41.3208 40.7362C41.2246 40.7362 41.1283 40.7312 41.0346 40.7262L40.4595 40.7062L39.887 40.6536L39.6008 40.6261L39.317 40.5861L38.7496 40.501L38.1872 40.3909L37.906 40.3358L37.6273 40.2708L37.0726 40.1382L36.5228 39.988C36.1555 39.8929 35.7958 39.7728 35.431 39.6652C33.9896 39.1998 32.5786 38.6617 31.1701 38.1388C30.4658 37.876 29.7616 37.6208 29.0522 37.3805C28.3404 37.1428 27.626 36.9101 26.9091 36.6874C25.4727 36.2494 24.0263 35.8441 22.557 35.5313C21.8223 35.3711 21.0851 35.2285 20.3404 35.1234C20.1554 35.0933 19.968 35.0733 19.7805 35.0483C19.593 35.0233 19.4081 35.0008 19.2207 34.9832C18.8457 34.9382 18.4708 34.9107 18.0959 34.8806C19.6057 34.8781 21.113 35.0408 22.6051 35.291C24.0972 35.5463 25.5665 35.9041 27.0206 36.312C27.7476 36.5172 28.4696 36.7324 29.189 36.9626C29.9085 37.1928 30.6229 37.4406 31.3347 37.6933C32.7533 38.2038 34.1593 38.7343 35.5855 39.1873C35.9427 39.2949 36.2974 39.415 36.6596 39.5101L37.1992 39.6602L37.7413 39.7928L38.0124 39.8579L38.286 39.9129L38.8332 40.023L39.3829 40.1081L39.659 40.1507L39.9351 40.1807L40.4874 40.2408L41.0422 40.2708C41.1359 40.2758 41.2271 40.2808 41.3208 40.2833L41.5995 40.2808L42.1543 40.2758C42.894 40.2383 43.6286 40.1407 44.3532 39.983C45.0802 39.8304 45.7845 39.5901 46.4735 39.3124C46.8206 39.1772 47.1524 39.0121 47.4868 38.8494L47.9757 38.5817C48.1404 38.4966 48.2924 38.389 48.4545 38.2939L48.6926 38.1488L48.9232 37.9911C49.0752 37.8835 49.2348 37.7859 49.3792 37.6683L49.8225 37.328L50.2455 36.9626C50.3165 36.9026 50.3849 36.84 50.4507 36.7749L50.6509 36.5798L50.851 36.3846L51.041 36.1794L51.2335 35.9742L51.3298 35.8716L51.4184 35.764L51.7883 35.3336Z" fill="#1B1B1B"/>
</g>
</g>
<g opacity="0.2">
<g opacity="0.2">
<path opacity="0.2" d="M24.9332 41.0064C24.3353 40.4584 23.6792 39.9829 22.9826 39.5801C22.291 39.1697 21.5589 38.8344 20.809 38.5391C20.6241 38.459 20.4341 38.3964 20.2441 38.3289C20.0541 38.2638 19.8666 38.1888 19.6767 38.1262L19.0991 37.951L18.8103 37.8634L18.519 37.7909L17.9363 37.6407C17.7412 37.5957 17.5436 37.5582 17.3461 37.5181C16.9534 37.428 16.5557 37.3805 16.158 37.3179C15.9604 37.2829 15.7602 37.2704 15.5601 37.2454C15.36 37.2253 15.1624 37.1928 14.9597 37.1853C14.5595 37.1628 14.1567 37.1278 13.7564 37.1303C12.9508 37.0952 12.1478 37.1553 11.3447 37.2128C9.74119 37.373 8.15284 37.7133 6.60248 38.2188C8.0743 37.5206 9.67026 37.0627 11.2991 36.8275C12.9306 36.6048 14.5949 36.6023 16.2314 36.825C17.8628 37.0677 19.4715 37.4981 20.9686 38.1863C21.3385 38.3639 21.7159 38.5266 22.0731 38.7318C22.4328 38.932 22.7824 39.1472 23.1194 39.3799C23.7881 39.8428 24.4139 40.3808 24.9332 41.0064Z" fill="#1B1B1B"/>
</g>
</g>
<g opacity="0.2">
<g opacity="0.2">
<path opacity="0.2" d="M9.28265 41.0063C9.48278 40.6259 9.75131 40.2756 10.0578 39.9603C10.3694 39.65 10.7215 39.3747 11.1066 39.1495C11.4917 38.9218 11.9096 38.7542 12.3454 38.629C12.7811 38.5114 13.2345 38.4539 13.6855 38.4564C14.5898 38.4564 15.4891 38.6916 16.2668 39.132C16.657 39.3497 17.0116 39.6225 17.3257 39.9302C17.6323 40.2455 17.8983 40.6059 18.0604 41.0063C17.5436 40.3156 16.8368 39.8277 16.0844 39.4773C15.3295 39.132 14.5037 38.9593 13.6829 38.9568C13.2725 38.9543 12.8621 39.0019 12.4594 39.0895C12.0566 39.177 11.669 39.3222 11.289 39.4948C10.9141 39.675 10.5543 39.8902 10.22 40.1455C9.88557 40.3957 9.57651 40.6885 9.28265 41.0063Z" fill="#1B1B1B"/>
</g>
</g>
<g opacity="0.2">
<g opacity="0.2">
<path opacity="0.2" d="M35.1398 34.9231C35.8845 35.4561 36.6876 35.879 37.5311 36.1667C37.9542 36.3068 38.3823 36.4244 38.8206 36.4945C39.2563 36.5696 39.6971 36.6096 40.1404 36.6046C40.5812 36.6071 41.0245 36.5671 41.4602 36.492C41.8984 36.4219 42.3266 36.3043 42.7496 36.1667C43.5932 35.879 44.3962 35.4586 45.141 34.9256C44.5381 35.6137 43.7553 36.1592 42.894 36.5295C42.4659 36.7197 42.0124 36.8548 41.5514 36.9574C41.0878 37.0525 40.6166 37.1001 40.1429 37.1051C39.6692 37.1026 39.1955 37.055 38.7319 36.9574C38.2709 36.8548 37.8174 36.7197 37.3893 36.5295C36.5255 36.1567 35.7427 35.6112 35.1398 34.9231Z" fill="#1B1B1B"/>
</g>
</g>
<g opacity="0.2">
<g opacity="0.2">
<path opacity="0.2" d="M50.6788 41.0063C51.4058 40.2581 52.2671 39.63 53.1968 39.1271C53.6604 38.8718 54.1468 38.6591 54.6408 38.4664C55.1373 38.2813 55.649 38.1311 56.1683 38.0085C56.6876 37.8959 57.2171 37.8133 57.7465 37.7708C58.276 37.7333 58.8105 37.7207 59.3399 37.7558C60.3988 37.8183 61.4476 38.0235 62.4279 38.3914C61.3918 38.2262 60.3583 38.1336 59.3298 38.1461C58.8155 38.1561 58.3013 38.1787 57.7946 38.2437C57.2855 38.3013 56.7788 38.3814 56.2823 38.499C55.7833 38.6066 55.2893 38.7492 54.8054 38.9119C54.319 39.072 53.8453 39.2672 53.3741 39.4749C52.4368 39.9003 51.5426 40.4183 50.6788 41.0063Z" fill="#1B1B1B"/>
</g>
</g>
<path d="M54.3038 16.2878C54.3038 16.3103 54.3038 16.3328 54.3038 16.3528C54.281 17.1486 53.9973 17.8893 53.5312 18.4873C52.8523 19.3582 51.7858 19.9312 50.5673 19.9312H41.3893C41.1967 19.9312 41.0093 19.9687 40.8345 20.0413C40.685 20.1039 40.5432 20.194 40.4241 20.3041L37.3183 23.1468L36.5127 23.885C35.849 24.493 34.8205 24.493 34.1543 23.885L30.2429 20.3041C29.9795 20.0638 29.6349 19.9287 29.2778 19.9287H20.0998C18.1567 19.9287 16.6013 18.4773 16.386 16.6706C16.348 16.3428 16.3531 16.005 16.4063 15.6622L18.4962 2.53723C18.6887 1.32859 19.7426 0.437744 20.9813 0.437744H49.9745C51.2335 0.437744 52.3 1.35611 52.4672 2.58978L54.2709 15.7422C54.2962 15.9249 54.3089 16.1076 54.3038 16.2878Z" fill="white"/>
<path d="M35.3348 24.4005C34.894 24.4005 34.4558 24.2429 34.1138 23.9301L30.2024 20.3492C29.9491 20.1189 29.6223 19.9913 29.2778 19.9913H20.0998C18.172 19.9913 16.5481 18.5675 16.3252 16.6782C16.2847 16.3379 16.2923 15.995 16.348 15.6547L18.4354 2.52728C18.633 1.2811 19.7046 0.375244 20.9839 0.375244H49.9771C51.2615 0.375244 52.3609 1.32364 52.5332 2.58233L54.3343 15.7323C54.3596 15.92 54.3723 16.1076 54.3672 16.2878C54.3672 16.3103 54.3672 16.3329 54.3647 16.3554C54.3419 17.1436 54.0709 17.8943 53.5794 18.5224C52.8524 19.4558 51.7555 19.9888 50.5673 19.9888H41.3893C41.2069 19.9888 41.0296 20.0239 40.8599 20.0964C40.7155 20.1565 40.5812 20.2416 40.4672 20.3467L36.5559 23.9276C36.2139 24.2429 35.7731 24.4005 35.3348 24.4005ZM20.9839 0.500363C19.7679 0.500363 18.7496 1.36118 18.5621 2.5473L16.4747 15.6722C16.4215 16 16.4164 16.3354 16.4544 16.6632C16.6697 18.4874 18.2404 19.8637 20.1049 19.8637H29.2829C29.6578 19.8637 30.015 20.0013 30.2911 20.2541L34.2025 23.835C34.8383 24.418 35.8364 24.418 36.4748 23.8375L40.3862 20.2566C40.5128 20.1415 40.6572 20.0489 40.8168 19.9813C41.0017 19.9037 41.1968 19.8662 41.3969 19.8662H50.575C51.7251 19.8662 52.7865 19.3482 53.4882 18.4474C53.9619 17.8393 54.2254 17.1136 54.2456 16.3504C54.2482 16.3279 54.2456 16.3078 54.2456 16.2878V16.2853C54.2482 16.1127 54.2381 15.9325 54.2127 15.7498L52.4116 2.59735C52.2469 1.40122 51.2032 0.500363 49.9822 0.500363H20.9839Z" fill="#1B1B1B"/>
<g opacity="0.35">
<path opacity="0.35" d="M52.8777 16.3255C53.1918 16.3255 53.4122 16.6358 53.3033 16.9261C53.1715 17.2739 52.9891 17.6017 52.7611 17.892C52.6471 18.0396 52.523 18.1773 52.3862 18.3049C51.9657 18.7053 51.4008 18.9255 50.8156 18.9255H42.3672C42.01 18.9255 41.6655 19.0581 41.4045 19.2983L41.3665 19.3334L40.5609 20.0716L37.4932 22.8817C37.3564 23.0069 37.2044 23.1044 37.0448 23.1795C36.6471 23.3622 36.1936 23.3872 35.7807 23.2546C35.5476 23.1795 35.3272 23.0569 35.1347 22.8817L31.2233 19.3008C30.9599 19.0606 30.6154 18.928 30.2582 18.928H21.0802C19.1371 18.928 17.5817 17.4766 17.3664 15.6699C17.3284 15.3446 17.3335 15.0043 17.3892 14.6614L19.1878 3.35572C19.3499 2.33976 20.1783 1.53399 21.2169 1.44891C21.2625 1.44641 21.3081 1.44141 21.3588 1.44141L19.6691 12.0615C19.6134 12.4043 19.6083 12.7421 19.6463 13.0699C19.8591 14.8766 21.4145 16.328 23.3601 16.328H32.5381C32.8978 16.328 33.2423 16.4606 33.5033 16.7009L37.4146 20.2818C37.7313 20.572 38.129 20.7247 38.5318 20.7372C38.9751 20.7522 39.4235 20.6021 39.7706 20.2818L40.8041 19.3359L43.6845 16.6984C43.9479 16.4581 44.2924 16.3255 44.6496 16.3255H52.8777Z" fill="#1B1B1B"/>
</g>
<path d="M35.3349 24.7735C34.8029 24.7735 34.2709 24.5833 33.8555 24.2029L29.9441 20.622C29.7617 20.4569 29.5261 20.3643 29.2804 20.3643H20.0998C17.9795 20.3643 16.1935 18.7978 15.9478 16.7208C15.9047 16.348 15.9123 15.9676 15.9706 15.5948L18.058 2.46734C18.2885 1.03848 19.5172 0 20.9839 0H49.9772C51.4515 0 52.7131 1.08853 52.9082 2.5324L54.7093 15.6824C54.7423 15.9176 54.7524 16.1478 54.7448 16.3655C54.6789 18.5701 52.8068 20.3643 50.5674 20.3643H41.3894C41.1411 20.3643 40.9055 20.4569 40.7257 20.622L36.8143 24.2029C36.3989 24.5833 35.8669 24.7735 35.3349 24.7735ZM20.9839 0.87583C19.958 0.87583 19.0967 1.60402 18.9371 2.60497L16.8496 15.7299C16.8015 16.0252 16.7964 16.3255 16.8294 16.6182C17.0244 18.2523 18.4304 19.486 20.1024 19.486H29.2804C29.7516 19.486 30.2025 19.6611 30.547 19.9764L34.4584 23.5573C34.9498 24.0077 35.72 24.0077 36.2139 23.5573L40.1253 19.9764C40.4698 19.6611 40.9207 19.486 41.3919 19.486H50.57C52.3331 19.486 53.81 18.0721 53.8607 16.3355C53.8607 16.333 53.8607 16.333 53.8607 16.3305C53.8683 16.1603 53.8581 15.9801 53.8328 15.795L52.0317 2.64501C51.8923 1.63405 51.0107 0.873327 49.9772 0.873327H20.9839V0.87583Z" fill="#1B1B1B"/>
<path d="M50.5698 27.7987H41.3918C41.0346 27.7987 40.6875 27.9339 40.4266 28.1716L39.6742 28.8623L37.4982 30.8541C37.2499 31.0819 36.9712 31.2645 36.6799 31.3972C36.2543 31.5948 35.7933 31.6924 35.3322 31.6924C34.5571 31.6899 33.7819 31.4122 33.1739 30.8541L30.248 28.1716C29.9845 27.9314 29.64 27.7987 29.2828 27.7987H20.0997C17.8046 27.7987 16.0516 25.7743 16.4088 23.5347L16.3885 16.6707C16.6013 18.4749 18.1567 19.9288 20.1023 19.9288H29.2803C29.6375 19.9288 29.9845 20.0614 30.2454 20.3041L34.1568 23.885C34.4887 24.1903 34.9066 24.3405 35.3322 24.343C35.7553 24.343 36.1809 24.1928 36.5153 23.8875L36.6799 23.7374L39.6742 20.9973L40.4266 20.3092C40.6901 20.0689 41.0346 19.9338 41.3918 19.9338H50.5698C52.6217 19.9338 54.2481 18.3123 54.3038 16.3579L54.2709 23.6198C54.5749 25.8294 52.832 27.7987 50.5698 27.7987Z" fill="#1B1B1B"/>
<g opacity="0.55">
<path opacity="0.55" d="M50.5698 27.7989H50.5267C51.991 27.1583 52.9435 25.6144 52.7105 23.9303L52.7307 19.2458C53.6605 18.5927 54.2685 17.5317 54.3039 16.3506L54.271 23.6125C54.575 25.8296 52.8321 27.7989 50.5698 27.7989Z" fill="white"/>
</g>
<g opacity="0.25">
<path opacity="0.25" d="M39.9681 22.5363V28.4694L37.7921 30.4613C37.5438 30.689 37.2677 30.8717 36.9738 31.0043V25.3139C36.9738 25.0387 37.0903 24.7734 37.2955 24.5857L39.6717 22.4087C39.7857 22.3061 39.9681 22.3836 39.9681 22.5363Z" fill="white"/>
</g>
<path d="M35.3348 32.1229C34.4482 32.1229 33.5615 31.8076 32.8699 31.1745L29.9415 28.4945C29.7591 28.3293 29.5235 28.2367 29.2778 28.2367H20.0997C18.8762 28.2367 17.7185 27.7087 16.923 26.7903C16.1352 25.882 15.7881 24.6833 15.9654 23.5022L15.9452 16.6733C15.9452 16.4405 16.1276 16.2479 16.3632 16.2353C16.5987 16.2203 16.8014 16.3905 16.8293 16.6207C17.0243 18.2573 18.4303 19.4909 20.1023 19.4909H29.2803C29.7515 19.4909 30.2024 19.6661 30.5469 19.9814L34.4583 23.5623C34.9498 24.0127 35.7199 24.0127 36.2139 23.5623L40.1252 19.9814C40.4698 19.6661 40.9207 19.4909 41.3919 19.4909H50.5699C52.3331 19.4909 53.81 18.0771 53.8606 16.3404C53.8682 16.1027 54.0633 15.915 54.304 15.915C54.423 15.915 54.5345 15.9626 54.6181 16.0452C54.7017 16.1277 54.7473 16.2403 54.7473 16.3555L54.7143 23.5873C54.8663 24.7584 54.5041 25.937 53.7162 26.8279C52.9233 27.7262 51.7757 28.2392 50.5674 28.2392H41.3893C41.1411 28.2392 40.9055 28.3293 40.7256 28.497L37.7972 31.177C37.1081 31.8076 36.2215 32.1229 35.3348 32.1229ZM16.8369 18.8228L16.8521 23.5348C16.8521 23.5573 16.8495 23.5823 16.847 23.6048C16.6975 24.5457 16.9711 25.4991 17.5969 26.2223C18.2226 26.9455 19.1371 27.3609 20.0997 27.3609H29.2778C29.749 27.3609 30.1999 27.536 30.5444 27.8513L33.4729 30.5314C34.5166 31.4873 36.1505 31.4873 37.1942 30.5314L40.1227 27.8513C40.4672 27.536 40.9181 27.3609 41.3893 27.3609H50.5674C51.5174 27.3609 52.4217 26.9555 53.0475 26.2473C53.6732 25.5392 53.9594 24.6008 53.8302 23.6699C53.8277 23.6499 53.8252 23.6298 53.8252 23.6098L53.848 18.7803C53.0779 19.7437 51.8847 20.3643 50.5674 20.3643H41.3893C41.1411 20.3643 40.9055 20.4568 40.7256 20.622L36.8143 24.2029C35.9833 24.9636 34.6838 24.9636 33.8554 24.2029L29.944 20.622C29.7616 20.4568 29.526 20.3643 29.2803 20.3643H20.0997C18.79 20.3668 17.607 19.7687 16.8369 18.8228Z" fill="#1B1B1B"/>
<path d="M35.4159 14.0383C47.7174 9.67922 43.9859 -0.122554 35.4159 5.27255C26.8205 0.0701292 23.1144 9.67922 35.4159 14.0383Z" fill="#E07153"/>
<g opacity="0.35">
<path opacity="0.35" d="M39.2563 12.0688C38.1366 13.1248 36.5507 14.1383 34.4355 14.9891C33.8655 15.2193 33.222 15.2168 32.652 14.9866C24.4062 11.6835 24.239 5.94053 28.0542 5.14478C27.0307 7.3894 28.9737 11.3381 35.6945 13.7179C37.0777 13.2299 38.2607 12.6694 39.2563 12.0688Z" fill="#1B1B1B"/>
</g>
<g opacity="0.35">
<path opacity="0.35" d="M43.2868 6.97161C43.074 9.22623 40.756 12.1465 35.4134 14.0408C27.9655 11.4008 26.3873 6.83648 28.2087 4.79956C28.2847 7.05919 30.5799 10.0745 36.1049 12.0314C39.953 10.6676 42.2329 8.77081 43.2868 6.97161Z" fill="#1B1B1B"/>
</g>
<g opacity="0.55">
<path opacity="0.55" d="M41.445 10.4699C44.2797 6.44361 40.9003 2.62749 35.0688 5.97817C34.7623 6.15334 34.3873 6.15834 34.0757 5.98568C31.2816 4.44422 29.0523 4.49927 27.7983 5.41514C28.6723 3.5884 31.5476 2.93278 35.4133 5.2725C42.0403 1.10354 45.7743 6.01321 41.445 10.4699Z" fill="white"/>
</g>
<g opacity="0.35">
<path opacity="0.35" d="M35.3297 26.4926V31.69C34.5546 31.6875 33.7794 31.4097 33.1714 30.8517L30.2455 28.1691C29.982 27.9289 29.6375 27.7963 29.2803 27.7963H20.0997C18.2124 27.7963 16.6899 26.4275 16.4087 24.6933C16.3479 24.323 16.3454 23.9351 16.4087 23.5398C16.4087 23.5373 16.4087 23.5348 16.4087 23.5323L16.391 17.9495C16.619 19.7412 18.1668 21.1775 20.0997 21.1775H29.2778C29.6349 21.1775 29.982 21.3101 30.2429 21.5529L34.1543 25.1338C34.2962 25.2639 34.4532 25.3665 34.6204 25.4391C35.046 25.6292 35.3297 26.0346 35.3297 26.4926Z" fill="#1B1B1B"/>
</g>
<path d="M30.6331 3.77368C31.0257 4.09649 31.3348 4.51188 31.5602 4.96731C31.7857 5.42525 31.9275 5.91822 32.0314 6.41369C32.2366 7.40713 32.2872 8.42059 32.5406 9.36899C32.6647 9.84194 32.842 10.2924 33.0928 10.7028C33.3411 11.1156 33.6501 11.4885 33.9997 11.8213C34.7014 12.4895 35.55 12.9899 36.4544 13.3678L36.1352 14.0484C35.2004 13.5855 34.3088 12.9874 33.5919 12.2117C33.2347 11.8238 32.9206 11.3959 32.6774 10.928C32.4291 10.4625 32.267 9.95455 32.1707 9.45157C31.9706 8.43811 31.9858 7.42965 31.8465 6.44622C31.7755 5.95575 31.6666 5.46779 31.4766 5.00735C31.2816 4.54942 31.0029 4.11901 30.6331 3.77368Z" fill="white"/>
<path d="M34.2861 4.50921C34.1974 5.40757 34.1746 6.30342 34.4203 7.13671C34.6661 7.965 35.2006 8.7107 35.8972 9.28125C36.5939 9.85429 37.4324 10.2647 38.3216 10.5049C39.2133 10.7451 40.1506 10.8302 41.0854 10.8252C40.1532 10.8928 39.2083 10.8728 38.2785 10.6876C37.3514 10.4999 36.4495 10.1371 35.6642 9.57653C35.2741 9.29626 34.9143 8.96595 34.6103 8.58559C34.3038 8.20773 34.0581 7.77482 33.8807 7.31438C33.7085 6.85394 33.6147 6.36848 33.5666 5.89053C33.5185 5.41007 33.5159 4.93212 33.5311 4.46167L34.2861 4.50921Z" fill="white"/>
<path d="M37.5413 4.19409C37.3108 4.97483 37.3057 5.80813 37.521 6.57385C37.6274 6.95422 37.7895 7.32457 38.0353 7.61484C38.2759 7.90762 38.6154 8.0903 38.9827 8.13784C39.35 8.18789 39.7325 8.12283 40.0897 7.9927C40.4495 7.86258 40.7712 7.65989 41.0878 7.42216C41.4045 7.18694 41.711 6.92168 42.0378 6.66144C42.3671 6.40119 42.7167 6.14845 43.1372 5.94576L43.4336 6.63641C43.269 6.71148 43.0992 6.77655 42.932 6.87664C42.7648 6.97173 42.6002 7.07683 42.433 7.18944C42.1011 7.41215 41.7693 7.65989 41.4096 7.8876C40.7053 8.34804 39.806 8.69587 38.9092 8.50819C38.4659 8.4156 38.0555 8.14785 37.8047 7.78751C37.5489 7.42967 37.4146 7.02178 37.3336 6.61639C37.174 5.80312 37.2525 4.95481 37.5413 4.19409Z" fill="white"/>
<path d="M28.4975 4.37939C28.9054 4.65716 29.2803 5.00749 29.5488 5.43539C29.6806 5.6506 29.787 5.88582 29.8478 6.13356C29.9086 6.38129 29.9162 6.63904 29.8858 6.88427C29.8199 7.37473 29.5995 7.81515 29.3107 8.183C29.0194 8.55335 28.6546 8.84112 28.2746 9.09136C28.6166 8.79358 28.9333 8.45826 29.1536 8.0779C29.3766 7.70004 29.5108 7.27214 29.5058 6.85924C29.5032 6.44635 29.3436 6.06849 29.0827 5.7607C28.8218 5.45041 28.4798 5.21018 28.1049 5.0225L28.4975 4.37939Z" fill="white"/>
<path d="M35.4159 14.4762C35.3653 14.4762 35.3146 14.4687 35.2665 14.4512C29.6274 12.4543 27.3525 9.36386 27.1017 7.13925C26.9498 5.78047 27.4817 4.60936 28.566 3.92871C30.2025 2.90274 32.7459 3.21304 35.4109 4.757C38.0809 3.14297 40.5508 2.80014 42.2203 3.82111C43.3222 4.49425 43.872 5.67537 43.725 7.06168C43.4844 9.32132 41.2146 12.4468 35.5654 14.4487C35.5173 14.4687 35.4666 14.4762 35.4159 14.4762ZM30.856 4.20147C30.1569 4.20147 29.5413 4.35662 29.0422 4.66941C28.2544 5.16238 27.8693 6.0282 27.9833 7.04416C28.2012 8.98851 30.2734 11.7136 35.4159 13.5754C40.5686 11.7111 42.6332 8.94847 42.8435 6.9741C42.9549 5.93561 42.5572 5.05978 41.7541 4.56932C40.3583 3.71601 38.0784 4.11639 35.654 5.64284C35.5122 5.73292 35.3298 5.73542 35.1854 5.64784C33.6097 4.69444 32.1024 4.20147 30.856 4.20147Z" fill="#1B1B1B"/>
<g opacity="0.25">
<path opacity="0.25" d="M41.1511 6.09578C41.3437 6.24592 41.521 6.4311 41.5945 6.66382C41.6705 6.89403 41.6198 7.1768 41.4247 7.32444C41.2677 7.44205 41.0574 7.45206 40.8598 7.44205C40.2569 7.40701 39.6793 7.20432 39.1169 6.98912C38.9117 6.90905 38.6862 6.81145 38.5925 6.61377C38.5114 6.44611 38.5494 6.23591 38.6533 6.08077C38.7572 5.92562 38.9193 5.81552 39.089 5.73294C39.4285 5.57029 39.8135 5.51023 40.1859 5.55527C40.5735 5.60282 40.8547 5.86056 41.1511 6.09578Z" fill="white"/>
</g>
<g opacity="0.25">
<path opacity="0.25" d="M36.6774 6.04323C36.5634 6.09578 36.452 6.15834 36.3785 6.25593C36.2594 6.41357 36.267 6.64128 36.3684 6.80894C36.4697 6.97659 36.6571 7.08419 36.8497 7.12423C37.0447 7.16176 37.2474 7.13424 37.4374 7.07668C37.5717 7.03665 37.7034 6.97659 37.8022 6.879C37.9314 6.74638 37.9821 6.5512 37.9567 6.36853C37.8529 5.63785 37.1891 5.81051 36.6774 6.04323Z" fill="white"/>
</g>
<path d="M53.8226 10.1572C54.3014 10.5601 54.4204 11.4009 53.9239 11.7862C53.6453 12.0014 53.2552 12.024 52.9157 11.9289C52.9031 11.9264 52.8904 11.9214 52.8777 11.9164C52.5535 11.8213 52.2672 11.6311 51.9835 11.4459L52.0266 9.78683C52.3078 9.74929 52.6041 9.73928 52.8904 9.77682C53.2324 9.81936 53.5592 9.93447 53.8226 10.1572Z" fill="white"/>
<path d="M52.0088 9.66166C52.4901 9.4965 53.0474 9.44395 53.5997 9.64414C53.7364 9.69669 53.8707 9.76425 53.9923 9.85184C54.0531 9.89188 54.1164 9.94943 54.1747 10.002C54.2304 10.0595 54.2836 10.1196 54.3292 10.1847C54.5141 10.4399 54.6155 10.7427 54.6231 11.063C54.6256 11.2231 54.6003 11.3883 54.542 11.5484C54.4812 11.7086 54.3799 11.8612 54.2507 11.9839C53.9847 12.2316 53.6351 12.3167 53.3311 12.3017C53.1766 12.2967 53.0297 12.2666 52.8904 12.2191C52.751 12.1715 52.6269 12.109 52.5104 12.0389C52.2799 11.8938 52.0899 11.7286 51.9176 11.5459C51.8695 11.4934 51.872 11.4133 51.9227 11.3633C51.9607 11.3282 52.0114 11.3207 52.057 11.3357C52.2925 11.4208 52.5104 11.5234 52.7232 11.581C52.936 11.6485 53.1335 11.6686 53.3159 11.6485C53.4983 11.626 53.6478 11.556 53.7314 11.4584C53.7744 11.4108 53.8074 11.3558 53.8302 11.2907C53.853 11.2231 53.8606 11.1456 53.8631 11.0655C53.8631 10.9028 53.8124 10.7252 53.7238 10.58C53.6782 10.505 53.6301 10.4474 53.5642 10.3848C53.4958 10.3223 53.4198 10.2647 53.3311 10.2172C52.9866 10.0145 52.5231 9.94192 52.0443 9.90439H52.0417C51.9708 9.89938 51.9176 9.83682 51.9227 9.76676C51.9278 9.72171 51.9632 9.67917 52.0088 9.66166Z" fill="#1B1B1B"/>
<path d="M44.1023 20.9998C43.7527 21.5178 42.9218 21.7305 42.4785 21.29C42.2303 21.0423 42.1619 20.6619 42.2151 20.3166C42.2176 20.3041 42.2176 20.2916 42.2227 20.2791C42.2809 19.9513 42.438 19.646 42.5925 19.3482L44.267 19.1956C44.3379 19.4683 44.3835 19.7586 44.3784 20.0414C44.3708 20.3842 44.2923 20.717 44.1023 20.9998Z" fill="white"/>
<path d="M44.3861 19.1656C44.6065 19.6186 44.7256 20.1591 44.5888 20.7246C44.5533 20.8647 44.5001 21.0024 44.4267 21.1325C44.3937 21.1976 44.3431 21.2651 44.2975 21.3302C44.2468 21.3902 44.1936 21.4503 44.1328 21.5029C43.8972 21.7131 43.6059 21.8482 43.2842 21.8932C43.1246 21.9157 42.9549 21.9082 42.7852 21.8707C42.6155 21.8307 42.4508 21.7481 42.314 21.6355C42.0354 21.4053 41.9062 21.0699 41.8859 20.7697C41.8733 20.617 41.8859 20.4694 41.9163 20.3267C41.9492 20.1841 41.9974 20.0565 42.0531 19.9339C42.1722 19.6911 42.3166 19.4834 42.4787 19.2958C42.5243 19.2407 42.6079 19.2357 42.6611 19.2807C42.6991 19.3133 42.7143 19.3633 42.7041 19.4084C42.6459 19.6486 42.5699 19.8738 42.5344 20.0915C42.4913 20.3067 42.4939 20.5044 42.5369 20.6821C42.58 20.8572 42.6687 20.9974 42.7751 21.0674C42.8282 21.105 42.889 21.13 42.9574 21.145C43.0284 21.16 43.1069 21.16 43.188 21.1525C43.3501 21.1325 43.5249 21.0624 43.6591 20.9598C43.73 20.9073 43.7832 20.8522 43.8364 20.7797C43.8896 20.7046 43.9403 20.622 43.9783 20.5319C44.1404 20.1691 44.1607 19.7061 44.1429 19.2332V19.2307C44.1404 19.1606 44.1961 19.1006 44.2671 19.0981C44.3177 19.0906 44.3659 19.1206 44.3861 19.1656Z" fill="#1B1B1B"/>
<path d="M18.6229 11.1131C18.3392 11.2982 18.0529 11.4884 17.7286 11.5835C17.716 11.5885 17.7033 11.591 17.6906 11.596C17.3512 11.6911 16.9585 11.6661 16.6824 11.4534C16.6621 11.4359 16.6418 11.4208 16.6241 11.4033C16.196 11.0004 16.3227 10.2122 16.7837 9.82684C17.0472 9.60413 17.374 9.48902 17.716 9.44648C17.906 9.42146 18.1061 9.41645 18.2986 9.42646C18.3924 9.43397 18.4861 9.44148 18.5773 9.45399L18.6229 11.1131Z" fill="white"/>
<path d="M18.5621 9.57925C18.0833 9.61679 17.6197 9.68936 17.2752 9.89205C17.189 9.9396 17.1105 9.99715 17.0421 10.0597C16.9737 10.1223 16.9256 10.1798 16.8825 10.2549C16.7938 10.4 16.7432 10.5777 16.7432 10.7404C16.7457 10.8204 16.7533 10.898 16.7761 10.9656C16.8014 11.0306 16.8318 11.0882 16.8749 11.1332C16.9585 11.2308 17.108 11.3009 17.2904 11.3234C17.4728 11.3434 17.6703 11.3234 17.8831 11.2558C18.0959 11.1958 18.3138 11.0957 18.5494 11.0106C18.6178 10.9856 18.6912 11.0206 18.7166 11.0857C18.7343 11.1332 18.7216 11.1833 18.6887 11.2183C18.5165 11.3985 18.3265 11.5661 18.0959 11.7113C17.9794 11.7788 17.8553 11.8414 17.7159 11.8915C17.5766 11.939 17.4297 11.9665 17.2752 11.974C16.9712 11.989 16.6216 11.9015 16.3556 11.6562C16.2264 11.5336 16.1251 11.381 16.0643 11.2208C16.006 11.0607 15.9807 10.8955 15.9832 10.7354C15.9908 10.415 16.0921 10.1123 16.2771 9.85702C16.3227 9.79196 16.3759 9.7344 16.4316 9.67434C16.4899 9.62179 16.5532 9.56424 16.614 9.5242C16.7356 9.43662 16.8698 9.36655 17.0066 9.3165C17.5589 9.11631 18.1162 9.16886 18.5975 9.33402C18.6659 9.35654 18.7014 9.42911 18.6786 9.49667C18.6608 9.54672 18.6152 9.57925 18.5671 9.58176L18.5621 9.57925Z" fill="#1B1B1B"/>
<g opacity="0.6">
<g opacity="0.6">
<path opacity="0.6" d="M24.001 10.2795C23.8262 10.6273 23.6945 10.9877 23.7021 11.308C23.7046 11.4681 23.7401 11.6183 23.8034 11.7334C23.8364 11.7934 23.8718 11.836 23.9073 11.8835C23.9428 11.9286 23.9757 11.9761 24.0162 12.0186C24.0948 12.1012 24.186 12.1613 24.2923 12.1713C24.3987 12.1838 24.533 12.1488 24.6419 12.0712C24.7559 11.9911 24.8522 11.8635 24.9104 11.7134C24.9763 11.5557 25.0092 11.3855 25.0092 11.2054V11.2029C25.0092 11.1328 25.0675 11.0753 25.1359 11.0753C25.1942 11.0753 25.2423 11.1128 25.2575 11.1628C25.3233 11.3655 25.336 11.5882 25.3081 11.8059C25.2777 12.0312 25.1866 12.2589 25.0219 12.4541C24.8547 12.6467 24.6115 12.7869 24.3278 12.8244C24.0416 12.8644 23.7426 12.7693 23.5197 12.6092C23.2892 12.454 23.1397 12.1963 23.0967 11.9386C23.0486 11.6833 23.0739 11.4356 23.1423 11.2154C23.2841 10.7675 23.5856 10.4472 23.8997 10.2019C23.9276 10.1794 23.9681 10.1844 23.9909 10.2119C24.0112 10.2295 24.0137 10.257 24.001 10.2795Z" fill="#1B1B1B"/>
</g>
<g opacity="0.6">
<path opacity="0.6" d="M45.9111 6.59108C46.1797 6.9314 46.4837 7.23418 46.8181 7.38182C46.9853 7.45689 47.1576 7.49443 47.3121 7.48942C47.3906 7.48692 47.4565 7.47191 47.5249 7.45689C47.5933 7.44188 47.6592 7.42687 47.725 7.40434C47.8517 7.3568 47.9632 7.28423 48.024 7.17163C48.0873 7.06152 48.1076 6.90387 48.0746 6.75123C48.0392 6.59608 47.948 6.43843 47.8162 6.31081C47.6794 6.17319 47.5173 6.06558 47.3298 5.98551C47.264 5.95798 47.2361 5.88291 47.2614 5.82035C47.2842 5.7678 47.34 5.73778 47.3957 5.74528C47.6288 5.77531 47.8618 5.8654 48.0696 5.99051C48.2824 6.12314 48.4698 6.31582 48.5889 6.56355C48.7054 6.81379 48.7358 7.11157 48.6472 7.40434C48.5585 7.69962 48.333 7.94485 48.0746 8.08999C47.8162 8.24263 47.497 8.27517 47.2184 8.2051C46.9397 8.14004 46.7015 8.00741 46.509 7.84226C46.1163 7.50694 45.9213 7.06653 45.8047 6.64363C45.7946 6.6086 45.8149 6.57356 45.8503 6.56606C45.8681 6.56105 45.8934 6.57106 45.9111 6.59108Z" fill="#1B1B1B"/>
</g>
<g opacity="0.3">
<path opacity="0.3" d="M24.9206 12.1665C24.0112 14.9692 21.3209 12.6395 23.4057 10.9229C23.4032 10.9204 22.9472 13.0273 24.9206 12.1665Z" fill="#1B1B1B"/>
</g>
<g opacity="0.35">
<path opacity="0.35" d="M48.523 7.04883C48.8878 10.0392 45.3261 9.80394 46.1063 7.04883C46.9524 8.12485 47.7656 8.31503 48.523 7.04883Z" fill="#1B1B1B"/>
</g>
<g opacity="0.6">
<path opacity="0.6" d="M39.7909 14.3084C40.0594 14.6487 40.3634 14.9515 40.6978 15.0991C40.865 15.1742 41.0373 15.2117 41.1918 15.2067C41.2703 15.2042 41.3362 15.1892 41.4046 15.1742C41.473 15.1592 41.5389 15.1442 41.6047 15.1216C41.7314 15.0741 41.8428 15.0015 41.9036 14.8889C41.967 14.7788 41.9872 14.6212 41.9543 14.4685C41.9188 14.3134 41.8276 14.1557 41.6959 14.0281C41.5591 13.8905 41.397 13.7829 41.2095 13.7028C41.1437 13.6753 41.1158 13.6002 41.1411 13.5376C41.1639 13.4851 41.2197 13.4551 41.2754 13.4626C41.5085 13.4926 41.7415 13.5827 41.9492 13.7078C42.162 13.8404 42.3495 14.0331 42.4686 14.2808C42.5851 14.5311 42.6155 14.8289 42.5268 15.1216C42.4382 15.4169 42.2127 15.6621 41.9543 15.8073C41.6959 15.9599 41.3767 15.9925 41.0981 15.9224C40.8194 15.8598 40.5813 15.7247 40.3887 15.5595C39.9961 15.2242 39.801 14.7838 39.6845 14.3609C39.6744 14.3259 39.6946 14.2908 39.7301 14.2833C39.7478 14.2783 39.7757 14.2883 39.7909 14.3084Z" fill="#1B1B1B"/>
</g>
<g opacity="0.35">
<path opacity="0.35" d="M42.4026 14.7639C42.7673 17.7542 39.2057 17.519 39.9859 14.7639C40.832 15.8399 41.6451 16.0326 42.4026 14.7639Z" fill="#1B1B1B"/>
</g>
</g>
<g opacity="0.35">
<path opacity="0.35" d="M18.6229 11.1129C18.3392 11.2981 18.0529 11.4883 17.7286 11.5834C17.716 11.5884 17.7033 11.5909 17.6907 11.5959C17.3512 11.691 16.9585 11.6659 16.6824 11.4532C16.6621 11.4357 16.6419 11.4207 16.6241 11.4032C17.8325 11.2556 18.3898 10.5974 18.2986 9.42633L18.3012 9.42383C18.3949 9.43134 18.4886 9.43884 18.5798 9.45135L18.6229 11.1129Z" fill="#1B1B1B"/>
</g>
<g opacity="0.35">
<path opacity="0.35" d="M62.9827 49.144C63.0055 50.0199 62.2835 50.7506 61.369 50.7731H61.3488L24.3074 51.3036L17.3435 51.4037L6.4074 51.5589C5.86275 51.5664 5.4169 51.1535 5.4017 50.6355C5.3941 50.3752 5.49796 50.135 5.67022 49.9598C5.84248 49.7846 6.08314 49.6695 6.35674 49.6595L17.2574 49.2491L24.0693 48.9938L61.2652 47.5975C62.1847 47.5699 62.9574 48.2606 62.9827 49.144Z" fill="#1B1B1B"/>
</g>
<path d="M62.9827 47.7525C63.0055 48.6284 62.2835 49.3591 61.369 49.3816H61.3488L24.3074 49.9121L17.3435 50.0122L6.4074 50.1674C5.86275 50.1749 5.4169 49.762 5.4017 49.244C5.3941 48.9837 5.49796 48.7435 5.67022 48.5683C5.84248 48.3931 6.08314 48.278 6.35674 48.268L17.2574 47.8576L24.0693 47.6024L61.2652 46.206C62.1847 46.176 62.9574 46.8692 62.9827 47.7525Z" fill="#FFD78F"/>
<path d="M6.39475 50.2324C5.8273 50.2324 5.35611 49.7945 5.34091 49.249C5.33331 48.9787 5.43464 48.7235 5.62717 48.5283C5.8197 48.3331 6.07809 48.2205 6.35675 48.2105L61.2652 46.1486C61.7364 46.1286 62.1848 46.2937 62.5268 46.609C62.8536 46.9118 63.0385 47.3147 63.0512 47.7501C63.0638 48.1905 62.8941 48.6109 62.5775 48.9312C62.2608 49.2515 61.8352 49.4342 61.3767 49.4442H61.3564L24.3151 49.9747L6.41502 50.2324C6.40235 50.2324 6.39982 50.2324 6.39475 50.2324ZM61.3311 46.2712C61.3108 46.2712 61.288 46.2712 61.2678 46.2712L24.0719 47.67L6.35929 48.3356C6.11356 48.3456 5.88557 48.4432 5.71584 48.6159C5.54864 48.7861 5.45998 49.0113 5.46504 49.2465C5.47771 49.7244 5.89316 50.1098 6.39222 50.1098C6.39728 50.1098 6.39982 50.1098 6.40488 50.1098L24.3049 49.852L61.3666 49.3215C61.7921 49.309 62.1873 49.1414 62.4812 48.8461C62.7751 48.5508 62.9296 48.163 62.9195 47.7576C62.9093 47.3572 62.7371 46.9819 62.4356 46.7041C62.1367 46.4239 61.7466 46.2712 61.3311 46.2712Z" fill="#1B1B1B"/>
<path d="M45.0371 49.6169L43.5627 49.6569C44.1555 48.696 44.0744 47.7025 43.4816 46.6841L44.9561 46.644C45.4906 47.6225 45.5185 48.6134 45.0371 49.6169Z" fill="#1B1B1B"/>
<path d="M48.3507 49.5292L46.324 49.5843C46.9168 48.6234 46.8358 47.6299 46.243 46.6114L48.2696 46.5564C48.8067 47.5348 48.832 48.5233 48.3507 49.5292Z" fill="#1B1B1B"/>
<g opacity="0.55">
<path opacity="0.55" d="M62.9828 47.7528C62.9854 47.8253 62.9803 47.9004 62.9727 47.973C62.694 47.43 62.0987 47.0621 61.4249 47.0897L24.2289 48.486L17.4144 48.7387L6.5163 49.1466C6.24271 49.1566 6.00205 49.2692 5.82979 49.4468C5.73099 49.5469 5.65499 49.6695 5.61193 49.8022C5.4878 49.6495 5.40927 49.4568 5.4042 49.2467C5.3966 48.9864 5.50046 48.7487 5.67273 48.571C5.84499 48.3959 6.08565 48.2808 6.35924 48.2708L17.2574 47.8604L24.0693 47.6051L61.2653 46.2089C62.1874 46.1763 62.96 46.8695 62.9828 47.7528Z" fill="white"/>
</g>
<path d="M6.39223 50.6078C5.61958 50.6078 4.9812 50.0072 4.96093 49.259C4.94067 48.5033 5.55878 47.8627 6.34156 47.8351L61.2501 45.7756C61.8226 45.7531 62.3698 45.9533 62.7852 46.3362C63.1855 46.7065 63.4135 47.207 63.4287 47.7425C63.4439 48.2781 63.2412 48.7911 62.8612 49.1814C62.4686 49.5868 61.934 49.8145 61.359 49.822L6.41756 50.6078C6.40489 50.6078 6.39983 50.6078 6.39223 50.6078ZM61.3311 46.6465C61.3134 46.6465 61.2982 46.6465 61.2805 46.6465L6.37196 48.706C6.07304 48.716 5.83744 48.9537 5.84504 49.2315C5.85264 49.5067 6.09584 49.7295 6.39223 49.7295C6.39476 49.7295 6.39729 49.7295 6.39983 49.7295L61.3413 48.9462C61.6782 48.9412 61.9898 48.8086 62.2178 48.5733C62.4331 48.3531 62.5471 48.0654 62.5395 47.7651C62.5319 47.4648 62.4027 47.1845 62.1747 46.9743C61.9467 46.7616 61.6478 46.6465 61.3311 46.6465Z" fill="#1B1B1B"/>
<g opacity="0.35">
<path opacity="0.35" d="M62.9625 55.3049C62.9599 56.1833 62.2152 56.8889 61.3032 56.8889H61.2829L24.2416 56.3684L17.2776 56.2708L6.34155 56.1157C5.79943 56.1082 5.36371 55.6828 5.36371 55.1648C5.36371 54.9045 5.47264 54.6693 5.64997 54.4967C5.8273 54.3265 6.07302 54.2189 6.34408 54.2164L17.2523 54.1163L24.0693 54.0537L61.2905 53.7159C62.2126 53.7059 62.965 54.4216 62.9625 55.3049Z" fill="#1B1B1B"/>
</g>
<path d="M63.0031 53.9136C63.0006 54.7919 62.2558 55.4976 61.3439 55.4976H61.3236L24.2821 54.9771L17.3182 54.8795L6.38208 54.7243C5.83996 54.7168 5.40424 54.2914 5.40424 53.7734C5.40424 53.5132 5.51317 53.278 5.6905 53.1053C5.86782 52.9351 6.11355 52.8275 6.38461 52.825L17.2929 52.7249L24.1099 52.6624L61.3312 52.3246C62.2533 52.3146 63.0057 53.0302 63.0031 53.9136Z" fill="#FFD78F"/>
<path d="M45.0119 55.2673L43.535 55.2648C44.1556 54.3214 44.1024 53.3255 43.54 52.292L45.0169 52.2945C45.5236 53.2854 45.521 54.2764 45.0119 55.2673Z" fill="#1B1B1B"/>
<path d="M48.3279 55.2722L46.3013 55.2697C46.9219 54.3263 46.8687 53.3304 46.3063 52.2969L48.3329 52.2994C48.8396 53.2903 48.8371 54.2813 48.3279 55.2722Z" fill="#1B1B1B"/>
<g opacity="0.55">
<path opacity="0.55" d="M63.0032 53.9112C63.0032 53.9862 62.9981 54.0588 62.9855 54.1289C62.722 53.5758 62.1394 53.1955 61.463 53.2005L24.2417 53.5383L17.4247 53.6009L6.51893 53.701C6.24534 53.7035 6.00215 53.8111 5.82482 53.9812C5.72349 54.0788 5.64496 54.1964 5.59683 54.3291C5.47523 54.1714 5.4043 53.9787 5.4043 53.7685C5.4043 53.5083 5.51576 53.273 5.69309 53.1004C5.87042 52.9277 6.11615 52.8226 6.3872 52.8201L17.2929 52.72L24.1099 52.6574L61.3313 52.3196C62.2534 52.3146 63.0057 53.0278 63.0032 53.9112Z" fill="white"/>
</g>
<path d="M61.3489 55.9355C61.3388 55.9355 61.3286 55.9355 61.316 55.9355L6.37451 55.1598C5.59426 55.1498 4.95841 54.5242 4.96095 53.7685C4.96348 53.0127 5.59933 52.3897 6.38211 52.3821L61.3286 51.8817C61.9037 51.8767 62.4433 52.0919 62.846 52.4872C63.2362 52.8701 63.449 53.3756 63.449 53.9111C63.449 54.4466 63.2311 54.9521 62.841 55.3324C62.4407 55.7228 61.9113 55.9355 61.3489 55.9355ZM61.3286 55.0597C61.663 55.0597 61.9797 54.9421 62.2153 54.7118C62.4357 54.4966 62.5598 54.2139 62.5598 53.9111C62.5598 53.6108 62.4382 53.3255 62.2203 53.1103C61.9898 52.8826 61.6807 52.76 61.3489 52.76C61.3438 52.76 61.3413 52.76 61.3362 52.76L6.38971 53.2605C6.09078 53.263 5.84759 53.4932 5.84759 53.771C5.84759 54.0487 6.08825 54.2789 6.38717 54.2839L61.3286 55.0597Z" fill="#1B1B1B"/>
</svg>
